<svg width="96" height="111" viewBox="0 0 96 111" fill="none" xmlns="http://www.w3.org/2000/svg">
<path d="M45.6329 56.0801L45.6329 64.6681L44.6855 72.7791C43.896 77.8683 43.5216 84.7955 38.5273 92.3408C35.685 96.6348 34.0744 105.414 40.8958 108.086M59.3704 56.0801L60.3178 72.7791C60.9495 77.8683 63.2548 88.9055 67.4235 92.3408C69.4762 95.8396 72.1606 105.223 63.1601 108.086M40.8958 101.883C42.7906 102.519 46.1066 102.837 49.4225 107.131C51.8903 110.327 55.1071 109.517 56.5282 107.131C58.8967 104.746 60.7916 101.883 64.5812 101.883" stroke="white" stroke-width="2.97516" stroke-linecap="round"/>
<path d="M51.9914 32.0462L51.9998 32.0611L52.0116 32.0733C52.0194 32.0814 52.0262 32.0889 52.0327 32.0965C50.4247 32.662 48.4587 32.9354 46.3393 32.6733C45.0329 32.4986 44.1544 31.7894 43.4904 30.7385C42.822 29.6806 42.3764 28.2844 41.9416 26.7512C41.866 26.4848 41.7908 26.2144 41.7148 25.9411C41.3555 24.6488 40.9788 23.2944 40.466 22.0111C39.876 20.5344 39.1019 19.1411 37.9557 18.0294C39.1919 17.7691 43.7756 16.8766 48.0549 17.5674C50.3884 17.9441 52.6143 18.7891 54.1602 20.4474C55.702 22.1013 56.5856 24.584 56.1981 28.2771C56.1357 28.8247 55.8222 29.4194 55.2894 29.9969C54.7938 30.534 54.115 31.0491 53.2941 31.4886C53.2828 31.423 53.2618 31.3543 53.2233 31.2922C53.0012 30.8622 52.8387 30.2269 52.6723 29.5023L52.6721 29.5014L52.6712 29.4978C52.4228 28.4506 52.119 27.1702 51.3891 26.0838C50.653 24.9882 49.4887 24.0966 47.5386 23.8153L47.5386 23.8152L47.5333 23.8147C47.1371 23.7736 46.7615 24.0233 46.7201 24.4528C46.6817 24.8504 46.9135 25.2433 47.3362 25.2889C48.8289 25.5081 49.683 26.143 50.2296 26.966C50.7764 27.7891 51.0221 28.808 51.2696 29.8343L51.2792 29.8743L51.2795 29.8756C51.3006 29.9592 51.3213 30.0428 51.342 30.1262C51.5151 30.8236 51.6842 31.5049 51.9914 32.0462Z" fill="white" stroke="white" stroke-width="0.269559"/>
<path d="M67.4589 47.6665L67.4589 47.6665L67.4597 47.6659C70.7892 45.3967 73.6077 44.8211 75.9668 45.2358C78.3284 45.6509 80.2536 47.0626 81.7857 48.8152C84.5803 52.0119 86.0381 56.3094 86.4252 57.6054C83.077 56.0308 79.4532 56.9029 76.2562 57.6723C76.1407 57.7001 76.0257 57.7278 75.9114 57.7552C74.2176 58.1611 72.6584 58.5109 71.3111 58.4432C69.9752 58.3759 68.857 57.8989 68.0288 56.6493C67.6671 56.087 67.3609 55.5825 67.0849 55.0839C67.1891 55.0483 67.3055 54.9896 67.3891 54.8774C68.7815 53.3002 70.2061 52.6382 71.554 52.462C72.9076 52.285 74.1977 52.5962 75.3204 52.9898L75.321 52.99C75.6953 53.1193 76.1032 52.9032 76.2249 52.5247C76.3461 52.1481 76.1467 51.7262 75.7748 51.5977C74.5697 51.1814 73.0504 50.8036 71.4079 51.0054C69.7961 51.2035 68.0773 51.9582 66.4266 53.7568C65.7393 52.1573 65.595 50.9199 65.807 49.9531C66.0265 48.9523 66.6322 48.2209 67.4589 47.6665Z" fill="white" stroke="white" stroke-width="0.269559"/>
<path d="M72.6194 62.0021L72.6194 62.0021L72.6203 62.0012C73.8369 60.9073 75.1596 60.7215 76.606 61.0358C78.0633 61.3526 79.6351 62.1748 81.3328 63.0924C81.4413 63.151 81.5502 63.21 81.6597 63.2693C84.8769 65.0116 88.5191 66.984 92.5141 66.2299C91.7825 67.4537 89.0846 71.6296 85.2411 74.241C83.1451 75.665 80.7192 76.6165 78.0916 76.3822C75.4663 76.148 72.6154 74.7277 69.672 71.3599L69.6716 71.3595C68.9879 70.5833 68.5482 69.7072 68.5122 68.6864C68.4778 67.7123 68.8104 66.5888 69.6814 65.2757C71.8178 69.0532 75.4257 70.3425 78.1836 70.3425H78.1886C78.4172 70.3425 78.6902 70.3425 78.9321 70.307C79.3362 70.2636 79.6218 69.9234 79.5814 69.5055C79.542 69.097 79.2194 68.7912 78.8045 68.8325L78.8042 68.8326C78.2298 68.8676 73.4025 69.162 70.8211 64.3901C70.7641 64.2735 70.6712 64.1782 70.5559 64.1149C71.0983 63.4425 71.7857 62.7382 72.6194 62.0021Z" fill="white" stroke="white" stroke-width="0.269559"/>
<path d="M11.9223 42.77L11.9222 42.7699L11.9197 42.774C11.721 43.1036 11.7934 43.5657 12.1265 43.7829C12.2507 43.8681 12.4102 43.909 12.534 43.909C12.7749 43.909 13.0204 43.7858 13.1475 43.5694C14.1354 42.0607 15.6421 41.3518 17.1969 41.0719C18.7501 40.7923 20.3407 40.9432 21.4793 41.1477C21.5506 41.171 21.621 41.1801 21.686 41.1837C21.7609 42.453 21.525 44.089 20.8192 46.2836L20.8191 46.284C20.3603 47.7271 19.4137 48.5054 18.1484 48.9497C16.8725 49.3978 15.2809 49.5032 13.5454 49.5939C13.434 49.5998 13.322 49.6055 13.2095 49.6113C9.93058 49.7799 6.21374 49.9709 3.42816 52.4581C3.46118 51.0938 3.72503 46.5587 5.55171 42.6944C6.55622 40.5694 8.0277 38.6592 10.1816 37.584C12.3328 36.5102 15.1859 36.2587 18.977 37.4914C20.0457 37.8395 20.9011 38.4803 21.3438 39.6407C20.0459 39.4371 18.3419 39.3236 16.6636 39.6698C14.8839 40.037 13.1272 40.923 11.9223 42.77Z" fill="white" stroke="white" stroke-width="0.269559"/>
<path d="M25.335 18.3712L25.335 18.3712C25.2947 17.9534 25.5783 17.6203 25.9378 17.5375L25.9459 17.5356L25.9541 17.5348C26.368 17.4919 26.6869 17.7936 26.7649 18.1576L26.7676 18.17L26.767 18.1701C27.0449 20.5252 28.1198 21.9036 29.4015 22.757C30.6907 23.6154 32.1961 23.9476 33.345 24.1892C33.345 24.1892 33.345 24.1892 33.3451 24.1892L33.3173 24.3211C33.4005 24.3384 33.4753 24.3556 33.5501 24.3728C33.625 24.3901 33.6998 24.4073 33.7829 24.4245L25.335 18.3712ZM25.335 18.3712L25.3354 18.3741C25.6727 21.2233 26.9835 22.9207 28.5236 23.9673C30.0064 24.9749 31.6951 25.3745 32.902 25.6334C32.4719 25.9349 31.9806 26.1375 31.467 26.2216C27.9199 26.7773 25.456 26.0889 23.7496 24.7447C22.0394 23.3975 21.0694 21.3758 20.5454 19.2267C19.5905 15.3108 20.1281 11.0234 20.3074 9.79186C22.3858 11.8963 25.3447 12.6655 28.0242 13.3622C28.3006 13.434 28.574 13.5051 28.8431 13.5768C30.3325 13.9735 31.6896 14.3872 32.7322 15.0428C33.7676 15.6938 34.4887 16.5807 34.7141 17.9323L34.7141 17.9324C35.2261 20.9834 34.8357 23.0801 34.0484 24.3957L25.335 18.3712Z" fill="white" stroke="white" stroke-width="0.269559"/>
<path d="M50.8552 15.0845V15.0839V15.0827V15.0815V15.0802V15.079V15.0777V15.0765V15.0753V15.074V15.0728V15.0716V15.0703V15.0691V15.0678V15.0666V15.0654V15.0641V15.0629V15.0616V15.0604V15.0592V15.0579V15.0567V15.0554V15.0542V15.0529V15.0517V15.0505V15.0492V15.048V15.0467V15.0455V15.0442V15.043V15.0417V15.0405V15.0392V15.038V15.0368V15.0355V15.0343V15.033V15.0318V15.0305V15.0293V15.028V15.0268V15.0255V15.0243V15.023V15.0218V15.0205V15.0193V15.018V15.0168V15.0155V15.0142V15.013V15.0117V15.0105V15.0092V15.008V15.0067V15.0055V15.0042V15.0029V15.0017V15.0004V14.9992V14.9979V14.9967V14.9954V14.9941V14.9929V14.9916V14.9904V14.9891V14.9878V14.9866V14.9853V14.9841V14.9828V14.9815V14.9803V14.979V14.9777V14.9765V14.9752V14.9739V14.9727V14.9714V14.9701V14.9689V14.9676V14.9663V14.9651V14.9638V14.9625V14.9613V14.96V14.9587V14.9574V14.9562V14.9549V14.9536V14.9524V14.9511V14.9498V14.9485V14.9473V14.946V14.9447V14.9434V14.9422V14.9409V14.9396V14.9383V14.9371V14.9358V14.9345V14.9332V14.9319V14.9307V14.9294V14.9281V14.9268V14.9255V14.9242V14.923V14.9217V14.9204V14.9191V14.9178V14.9165V14.9153V14.914V14.9127V14.9114V14.9101V14.9088V14.9075V14.9062V14.9049V14.9037V14.9024V14.9011V14.8998V14.8985V14.8972V14.8959V14.8946V14.8933V14.892V14.8907V14.8894V14.8881V14.8868V14.8855V14.8842V14.8829V14.8816V14.8803V14.879V14.8777V14.8764V14.8751V14.8738V14.8725V14.8712V14.8699V14.8686V14.8673V14.866V14.8647V14.8634V14.8621V14.8608V14.8595V14.8582V14.8569V14.8556V14.8542V14.8529V14.8516V14.8503V14.849V14.8477V14.8464V14.8451V14.8437V14.8424V14.8411V14.8398V14.8385V14.8372V14.8358V14.8345V14.8332V14.8319V14.8306V14.8292V14.8279V14.8266V14.8253V14.824V14.8226V14.8213V14.82V14.8187V14.8173V14.816V14.8147V14.8133V14.812V14.8107V14.8094V14.808V14.8067V14.8054V14.804V14.8027V14.8014V14.8V14.7987V14.7974V14.796V14.7947V14.7934V14.792V14.7907V14.7893V14.788V14.7867V14.7853V14.784V14.7826V14.7813V14.7799V14.7786V14.7773V14.7759V14.7746V14.7732V14.7719V14.7705V14.7692V14.7678V14.7665V14.7651V14.7638V14.7624V14.7611V14.7597V14.7584V14.757V14.7557V14.7543V14.7529V14.7516V14.7502V14.7489V14.7475V14.7461V14.7448V14.7434V14.7421V14.7407V14.7393V14.738V14.7366V14.7352V14.7339V14.7325V14.7311V14.7298V14.7284V14.727V14.7257V14.7243V14.7229V14.7216V14.7202V14.7188V14.7174V14.7161V14.7147V14.7133V14.7119V14.7105V14.7092V14.7078V14.7064V14.705V14.7036V14.7023V14.7009V14.6995V14.6981V14.6967V14.6953V14.694V14.6926V14.6912V14.6898V14.6884V14.687V14.6856V14.6842V14.6828V14.6814V14.68V14.6787V14.6773V14.6759V14.6745V14.6731V14.6717V14.6703V14.6689V14.6675V14.6661V14.6647V14.6633V14.6619V14.6605V14.659V14.6576V14.6562V14.6548V14.6534V14.652V14.6506V14.6492V14.6478V14.6464V14.6449L50.8556 14.6136C50.8722 13.4325 50.8933 11.9313 50.3478 10.4745C49.7943 8.99621 48.6623 7.5738 46.3864 6.56012C46.0137 6.38893 45.6027 6.56527 45.4421 6.93999C45.2806 7.31645 45.4423 7.73945 45.8088 7.90828L45.8088 7.9083L45.8109 7.90922C47.6592 8.72298 48.5543 9.82574 48.9895 10.9995C49.4237 12.1704 49.4056 13.4232 49.389 14.5727L49.3885 14.6085H49.3885V14.6105V14.6123V14.6141V14.6159V14.6178V14.6196V14.6214V14.6232V14.625V14.6269V14.6287V14.6305V14.6323V14.6342V14.636V14.6378V14.6397V14.6415V14.6433V14.6452V14.647V14.6488V14.6507V14.6525V14.6543V14.6562V14.658V14.6598V14.6617V14.6635V14.6653V14.6672V14.669V14.6709V14.6727V14.6745V14.6764V14.6782V14.6801V14.6819V14.6838V14.6856V14.6875V14.6893V14.6912V14.693V14.6949V14.6967V14.6986V14.7004V14.7023V14.7041V14.706V14.7078V14.7097V14.7115V14.7134V14.7152V14.7171V14.7189V14.7208V14.7226V14.7245V14.7264V14.7282V14.7301V14.7319V14.7338V14.7357V14.7375V14.7394V14.7412V14.7431V14.745V14.7468V14.7487V14.7506V14.7524V14.7543V14.7562V14.758V14.7599V14.7618V14.7636V14.7655V14.7674V14.7692V14.7711V14.773V14.7748V14.7767V14.7786V14.7804V14.7823V14.7842V14.7861V14.7879V14.7898V14.7917V14.7935V14.7954V14.7973V14.7992V14.801V14.8029V14.8048V14.8067V14.8085V14.8104V14.8123V14.8142V14.816V14.8179V14.8198V14.8217V14.8236V14.8254V14.8273V14.8292V14.8311V14.8329V14.8348V14.8367V14.8386V14.8405V14.8423V14.8442V14.8461V14.848V14.8499V14.8517V14.8536V14.8555V14.8574V14.8593V14.8612V14.863V14.8649V14.8668V14.8687V14.8706V14.8724V14.8743V14.8762V14.8781V14.88V14.8819V14.8837V14.8856V14.8875V14.8894V14.8913V14.8932V14.8951V14.8969V14.8988V14.9007V14.9026V14.9045V14.9064V14.9082V14.9101V14.912V14.9139V14.9158V14.9177V14.9196V14.9214V14.9233V14.9252V14.9271V14.929V14.9309V14.9327V14.9346V14.9365V14.9384V14.9403V14.9422V14.9441V14.9459V14.9478V14.9497V14.9516V14.9535V14.9554V14.9572V14.9591V14.961V14.9629V14.9648V14.9667V14.9686V14.9704V14.9723V14.9742V14.9761V14.978V14.9799V14.9817V14.9836V14.9855V14.9874V14.9893V14.9912V14.993V14.9949V14.9968V14.9987V15.0006V15.0024V15.0043V15.0062V15.0081V15.01V15.0118V15.0137V15.0156V15.0175V15.0194V15.0212V15.0231V15.025V15.0269V15.0288V15.0306V15.0325V15.0344V15.0363V15.0382V15.04V15.0419V15.0438V15.0457V15.0475V15.0494V15.0513V15.0532V15.055V15.0569V15.0588V15.0607V15.0625V15.0644V15.0663V15.0681V15.07V15.0719V15.0738V15.0756V15.0775V15.0794V15.0812V15.0831V15.085V15.0869V15.0887V15.0906V15.0925V15.0943V15.0962V15.0981V15.0999V15.1018V15.1037V15.1055V15.1074V15.1092V15.1111V15.113V15.1148V15.1167V15.1186V15.1204V15.1223V15.1241V15.126V15.1279V15.1297V15.1316V15.1334V15.1353V15.1371V15.139V15.1409V15.1427V15.1446V15.1464V15.1483V15.1501V15.152V15.1538V15.1557V15.1575V15.1594V15.1612V15.1631V15.1649V15.1668V15.1686V15.1705V15.1723V15.1742V15.176V15.1779V15.1797V15.1815V15.1834V15.1852V15.1871V15.1889V15.1907V15.1926V15.1944V15.1963V15.1981V15.1999V15.2018V15.2036V15.2054V15.2073V15.2091V15.2109V15.2128V15.2146V15.2164V15.2183V15.2201V15.2219V15.2237V15.2256V15.2274V15.2292V15.231V15.2329V15.2347V15.2365V15.2383V15.2402V15.242V15.2438V15.2456V15.2474V15.2492V15.2511V15.2529V15.2547V15.2565V15.2583V15.2601V15.2619V15.2638V15.2656V15.2674V15.2692V15.271V15.2728V15.2746V15.2764V15.2782V15.28V15.2818V15.2836V15.2854V15.2872V15.289V15.2908V15.2926V15.2944V15.2962V15.298V15.2998V15.3016V15.3034V15.3051V15.3069V15.3087V15.3105V15.3123V15.3141V15.3159V15.3176V15.3194V15.3212V15.323V15.3248V15.3266V15.3283V15.3301V15.3319V15.3337V15.3354V15.3372V15.339V15.3407V15.3425V15.3443V15.346V15.3478V15.3496V15.3513V15.3531V15.3549V15.3566V15.3584V15.3601V15.3619V15.3637V15.3654V15.3672V15.3689V15.3707V15.3724V15.3742V15.3759V15.3777V15.3794V15.3812V15.3829V15.3846V15.3864V15.3881V15.3899V15.3916V15.3933V15.3951V15.3968V15.3986V15.4003V15.402V15.4037V15.4055V15.4072V15.4089V15.4107V15.4124V15.4141V15.4158V15.4175V15.4193V15.421V15.4227V15.4244V15.4261V15.4278V15.4295V15.4313V15.433V15.4347V15.4364V15.4381V15.4398V15.4415V15.4432V15.4449V15.4466V15.4483V15.45V15.4517V15.4534V15.4551V15.4568V15.4584V15.4601V15.4618V15.4635V15.4652V15.4669V15.4686V15.4702V15.4719V15.4736V15.4753V15.4769V15.4786V15.4803V15.482V15.4836V15.4853V15.487V15.4886V15.4903V15.492V15.4936V15.4953V15.4969V15.4986V15.5002V15.5019V15.5035V15.5052V15.5068V15.5085V15.5101V15.5118V15.5134V15.5151V15.5167V15.5183V15.52V15.5216V15.5232V15.5249V15.5265V15.5281V15.5298V15.5314V15.533V15.5346V15.5363V15.5379V15.5395V15.5411V15.5719L49.3943 15.5841C48.4704 15.8322 47.3608 15.9561 46.0348 15.9234L46.0341 15.9234C44.7191 15.8984 43.7667 15.2972 42.988 14.334C42.2043 13.3646 41.6028 12.0356 40.9974 10.5694C40.8891 10.3069 40.7806 10.0401 40.671 9.77045C40.171 8.5407 39.6474 7.25259 38.9999 6.04821C38.2504 4.65379 37.3299 3.3612 36.0757 2.38689C37.2129 2.01655 41.2319 0.807845 45.1203 1.19447C47.2469 1.40591 49.3202 2.09323 50.864 3.64202C52.4058 5.18887 53.4373 7.61322 53.4455 11.3363C53.4454 12.7129 52.6708 14.1664 50.8552 15.0845Z" fill="white" stroke="white" stroke-width="0.269559"/>
<path d="M28.4212 70.2725L28.4211 70.2727C28.2155 70.6137 28.3387 71.0714 28.661 71.2816C28.7779 71.3619 28.9034 71.4077 29.0353 71.4077C29.2771 71.4077 29.5235 71.2836 29.6502 71.0658C30.5885 69.507 32.2776 68.6504 34.004 68.1934C35.6631 67.7543 37.3365 67.6899 38.3574 67.7161C38.4471 68.6479 38.4738 69.7396 38.3786 71.0217L38.3786 71.0219C38.2658 72.5667 37.5087 73.5855 36.3549 74.3589C35.1923 75.1382 33.6348 75.663 31.9329 76.2114C31.8273 76.2455 31.7211 76.2796 31.6144 76.3139C28.3923 77.3494 24.7429 78.5222 22.5773 81.7228C22.2799 80.3724 21.4386 75.8077 22.3168 71.4937C22.7996 69.1222 23.7995 66.8388 25.6828 65.2034C27.5638 63.5699 30.343 62.568 34.4153 62.7906L34.4174 62.7907C35.276 62.8243 36.0591 63.0669 36.6999 63.6198C37.3143 64.1497 37.8103 64.9754 38.1102 66.2079C36.7086 66.2023 34.8687 66.3356 33.1065 66.8832C31.2711 67.4534 29.5082 68.4769 28.4212 70.2725Z" fill="white" stroke="white" stroke-width="0.269559"/>
<path d="M63.0146 16.8254L63.0145 16.8252C62.3374 13.1708 62.9021 10.5895 64.1291 8.76866C65.3577 6.94553 67.2642 5.86393 69.3105 5.23812C73.0464 4.09561 77.203 4.48524 78.4018 4.61547C77.3477 5.82163 76.6787 7.272 76.1964 8.78764C75.7784 10.1011 75.4984 11.4716 75.2312 12.7791C75.1735 13.0616 75.1164 13.3412 75.0586 13.6166C74.732 15.1734 74.3849 16.5943 73.794 17.6985C73.2067 18.7958 72.3834 19.5721 71.1003 19.8547C69.7354 20.1508 68.5604 20.2557 67.5727 20.1736V20.1723V20.1706V20.169V20.1673V20.1657V20.164V20.1624V20.1607V20.1591V20.1574V20.1558V20.1541V20.1525V20.1508V20.1492V20.1475V20.1459V20.1442V20.1426V20.1409V20.1392V20.1376V20.1359V20.1343V20.1326V20.1309V20.1293V20.1276V20.126V20.1243V20.1226V20.121V20.1193V20.1176V20.116V20.1143V20.1126V20.1109V20.1093V20.1076V20.1059V20.1042V20.1026V20.1009V20.0992V20.0975V20.0959V20.0942V20.0925V20.0908V20.0891V20.0875V20.0858V20.0841V20.0824V20.0807V20.079V20.0773V20.0757V20.074V20.0723V20.0706V20.0689V20.0672V20.0655V20.0638V20.0621V20.0604V20.0587V20.057V20.0553V20.0536V20.0519V20.0502V20.0485V20.0468V20.0451V20.0434V20.0417V20.04V20.0383V20.0366V20.0349V20.0332V20.0315V20.0298V20.0281V20.0264V20.0247V20.0229V20.0212V20.0195V20.0178V20.0161V20.0144V20.0127V20.0109V20.0092V20.0075V20.0058V20.0041V20.0023V20.0006V19.9989V19.9972V19.9954V19.9937V19.992V19.9903V19.9885V19.9868V19.9851V19.9833V19.9816V19.9799V19.9781V19.9764V19.9747V19.9729V19.9712V19.9695V19.9677V19.966V19.9643V19.9625V19.9608V19.959V19.9573V19.9556V19.9538V19.9521V19.9503V19.9486V19.9468V19.9451V19.9433V19.9416V19.9398V19.9381V19.9363V19.9346V19.9328V19.9311V19.9293V19.9276V19.9258V19.924V19.9223V19.9205V19.9188V19.917V19.9152V19.9135V19.9117V19.91V19.9082V19.9064V19.9047V19.9029V19.9011V19.8994V19.8976V19.8958V19.894V19.8923V19.8905V19.8887V19.887V19.8852V19.8834V19.8816V19.8799V19.8781V19.8763V19.8745V19.8727V19.871V19.8692V19.8674V19.8656V19.8638V19.862V19.8603V19.8585V19.8567V19.8549V19.8531V19.8513V19.8495V19.8477V19.8459V19.8441V19.8424V19.8406V19.8388V19.837V19.8352V19.8334V19.8316V19.8298V19.828V19.8262V19.8244V19.8226V19.8208V19.819V19.8172V19.8154V19.8135V19.8117V19.8099V19.8081V19.8063V19.8045V19.8027V19.8009V19.7991V19.7973V19.7954V19.7936V19.7918V19.79V19.7882V19.7864V19.7845V19.7827V19.7809V19.7791V19.7773V19.7754V19.7736V19.7718V19.77V19.7681V19.7663V19.7645V19.7627V19.7608V19.759V19.7572V19.7553V19.7535V19.7517V19.7498V19.748V19.7462V19.7443V19.7425V19.7407V19.7388V19.737V19.7351V19.7333V19.7315V19.7296V19.7278V19.7259V19.7241V19.7222V19.7204V19.7185V19.7167V19.7148V19.713V19.7111V19.7093V19.7074V19.7056V19.7037V19.7019V19.7V19.6982V19.6963V19.6945V19.6926V19.6907V19.6889V19.687V19.6852V19.6833V19.6814V19.6796V19.6777V19.6758V19.674V19.6721V19.6702V19.6684V19.6665V19.6646V19.6628V19.6609V19.659V19.6571V19.6553V19.6534V19.6515V19.6496V19.6478V19.6459V19.644V19.6421V19.6402V19.6384V19.6365V19.6346V19.6327V19.6308V19.6289V19.6271V19.6252V19.6233V19.6214V19.6195V19.6176V19.6157V19.6138V19.6119V19.6101V19.6082V19.6063V19.6044V19.6025V19.6006V19.5987V19.5968V19.5949V19.593V19.5911V19.5892V19.5873V19.5854V19.5835V19.5816V19.5797V19.5777V19.5758V19.5739V19.572V19.5701V19.5682V19.5663V19.5644V19.5625V19.5606V19.5586V19.5567V19.5548V19.5529V19.551V19.5491V19.5471V19.5452V19.5433V19.5414V19.5395V19.5375V19.5356V19.5337V19.5318V19.5298V19.5279V19.526V19.524V19.5221V19.5202V19.5183V19.5163V19.5144V19.5125V19.5105V19.5086V19.5067V19.5047V19.5028V19.5008V19.4989V19.497V19.495V19.4931V19.4911V19.4892V19.4873V19.4853V19.4834V19.4814V19.4795V19.4775V19.4756V19.4736V19.4717V19.4697V19.4678V19.4658V19.4639V19.4619V19.46V19.458V19.4561V19.4541V19.4521V19.4502V19.4482V19.4463V19.4443V19.4423V19.4404V19.4384V19.4365V19.4345V19.4325V19.4306V19.4286V19.4266V19.4247V19.4227V19.4207V19.4187V19.4168V19.4148V19.4128V19.4108V19.4089V19.4069V19.4049V19.4029V19.401V19.399V19.397V19.395V19.393V19.3911V19.3891V19.3871V19.3851V19.3831V19.3811V19.3792V19.3772V19.3752V19.3732V19.3712V19.3692V19.3672V19.3652V19.3632V19.3612V19.3592V19.3572V19.3552V19.3533V19.3513V19.3493V19.3473V19.3453V19.3433V19.3413V19.3393V19.3372V19.3352V19.3332V19.3312V19.3292V19.3272V19.3252V19.3232V19.3212V19.3192V19.3172V19.3152V19.3131V19.3111V19.3091V19.3071V19.3051V19.3031V19.3011V19.299V19.297H67.5728L67.5727 19.2931C67.5393 18.153 67.5165 16.886 67.9591 15.6991C68.3986 14.5208 69.3021 13.4095 71.1503 12.5958L71.1503 12.5958L71.1524 12.5948C71.5189 12.426 71.6806 12.003 71.5192 11.6265C71.3585 11.2519 70.9478 11.0755 70.5751 11.2465C68.3151 12.2432 67.1914 13.6661 66.6423 15.1485C66.1011 16.6097 66.1222 18.1194 66.1388 19.3007L66.1392 19.3315V19.3331V19.3347V19.3363V19.3379V19.3396V19.3412V19.3428V19.3444V19.346V19.3476V19.3493V19.3509V19.3525V19.3541V19.3557V19.3573V19.3589V19.3606V19.3622V19.3638V19.3654V19.367V19.3686V19.3703V19.3719V19.3735V19.3751V19.3767V19.3783V19.3799V19.3816V19.3832V19.3848V19.3864V19.388V19.3896V19.3912V19.3929V19.3945V19.3961V19.3977V19.3993V19.4009V19.4025V19.4042V19.4058V19.4074V19.409V19.4106V19.4122V19.4138V19.4155V19.4171V19.4187V19.4203V19.4219V19.4235V19.4251V19.4268V19.4284V19.43V19.4316V19.4332V19.4348V19.4364V19.438V19.4397V19.4413V19.4429V19.4445V19.4461V19.4477V19.4493V19.4509V19.4525V19.4542V19.4558V19.4574V19.459V19.4606V19.4622V19.4638V19.4654V19.467V19.4687V19.4703V19.4719V19.4735V19.4751V19.4767V19.4783V19.4799V19.4815V19.4831V19.4848V19.4864V19.488V19.4896V19.4912V19.4928V19.4944V19.496V19.4976V19.4992V19.5008V19.5024V19.504V19.5057V19.5073V19.5089V19.5105V19.5121V19.5137V19.5153V19.5169V19.5185V19.5201V19.5217V19.5233V19.5249V19.5265V19.5281V19.5297V19.5313V19.5329V19.5345V19.5361V19.5377V19.5394V19.541V19.5426V19.5442V19.5458V19.5474V19.549V19.5506V19.5522V19.5538V19.5554V19.557V19.5586V19.5602V19.5618V19.5634V19.565V19.5666V19.5682V19.5698V19.5714V19.573V19.5746V19.5762V19.5778V19.5794V19.581V19.5826V19.5841V19.5857V19.5873V19.5889V19.5905V19.5921V19.5937V19.5953V19.5969V19.5985V19.6001V19.6017V19.6033V19.6049V19.6065V19.6081V19.6097V19.6113V19.6128V19.6144V19.616V19.6176V19.6192V19.6208V19.6224V19.624V19.6256V19.6272V19.6288V19.6303V19.6319V19.6335V19.6351V19.6367V19.6383V19.6399V19.6415V19.643V19.6446V19.6462V19.6478V19.6494V19.651V19.6526V19.6541V19.6557V19.6573V19.6589V19.6605V19.6621V19.6636V19.6652V19.6668V19.6684V19.67V19.6716V19.6731V19.6747V19.6763V19.6779V19.6795V19.681V19.6826V19.6842V19.6858V19.6874V19.6889V19.6905V19.6921V19.6937V19.6952V19.6968V19.6984V19.7V19.7015V19.7031V19.7047V19.7063V19.7078V19.7094V19.711V19.7126V19.7141V19.7157V19.7173V19.7188V19.7204V19.722V19.7235V19.7251V19.7267V19.7283V19.7298V19.7314V19.733V19.7345V19.7361V19.7377V19.7392V19.7408V19.7424V19.7439V19.7455V19.747V19.7486V19.7502V19.7517V19.7533V19.7549V19.7564V19.758V19.7595V19.7611V19.7627V19.7642V19.7658V19.7673V19.7689V19.7705V19.772V19.7736V19.7751V19.7767V19.7782V19.7798V19.7813V19.7829V19.7845V19.786V19.7876V19.7891V19.7907V19.7922V19.7938V19.7953V19.7969V19.7984V19.8V19.8015V19.8031V19.8046V19.8062V19.8077V19.8092V19.8108V19.8123V19.8139V19.8154V19.817V19.8185V19.8201V19.8216V19.8231V19.8247V19.8262V19.8278V19.8293V19.8309V19.8324V19.8339V19.8355V19.837V19.8385V19.8401V19.8416V19.8432V19.8447V19.8462V19.8478V19.8493V19.8508V19.8524V19.8539V19.8554V19.857V19.8585V19.86V19.8615V19.8631V19.8646V19.8661V19.8677V19.8692V19.8707V19.8722V19.8738V19.8753V19.8768V19.8783V19.8799V19.8814V19.8829V19.8844V19.886V19.8875V19.889V19.8905V19.892V19.8936V19.8951V19.8966V19.8981V19.8996V19.9011V19.9027V19.9042V19.9057V19.9072V19.9087V19.9102V19.9117V19.9133V19.9148V19.9163V19.9178V19.9193V19.9208V19.9223V19.9238V19.9253V19.9268V19.9283V19.9298V19.9313V19.9329V19.9344V19.9359V19.9374V19.9389V19.9404V19.9419V19.9434V19.9449V19.9464V19.9479V19.9491C64.2356 19.4168 63.2632 18.1783 63.0146 16.8254Z" fill="white" stroke="white" stroke-width="0.269559"/>
<path d="M10.6269 59.7579L10.627 59.7579L10.6239 59.7555C10.3033 59.5063 9.84892 59.5432 9.60063 59.8863C9.36412 60.2132 9.3966 60.6753 9.7253 60.9322C11.0521 62.0247 12.6144 62.4095 14.166 62.4095C16.3203 62.4095 18.4337 61.6438 19.8359 61.0213C19.8636 61.0113 19.8893 60.9994 19.9132 60.9861C20.0128 62.1908 19.5156 63.1073 18.6992 63.8281L18.6982 63.829C15.99 66.268 13.5431 67.1298 11.393 67.0522C9.24052 66.9745 7.361 65.9545 5.79133 64.5817C2.9548 62.1008 1.16257 58.4962 0.645169 57.3625C3.81212 58.3415 6.94216 57.1124 9.70009 56.0293C9.80058 55.9899 9.90058 55.9506 10.0001 55.9116C11.4672 55.3371 12.8184 54.8305 14.0282 54.7237C15.2267 54.6179 16.2763 54.9052 17.157 55.9177L17.1575 55.9182C18.4205 57.355 19.1879 58.545 19.5768 59.5721C19.4796 59.571 19.3821 59.5927 19.2948 59.6373C18.4356 60.031 16.938 60.6185 15.3169 60.8269C13.6927 61.0357 11.9662 60.8617 10.6269 59.7579Z" fill="white" stroke="white" stroke-width="0.269559"/>
<path d="M30.8089 53.4564L30.8097 53.4558C32.165 52.3855 33.9168 52.2364 35.5585 52.4667C37.1984 52.6967 38.7057 53.3026 39.5461 53.7124L39.574 53.7261H39.602C39.5626 53.8652 39.5254 54.0047 39.4878 54.1457C39.4767 54.1875 39.4655 54.2295 39.4542 54.2716C39.392 54.5037 39.3262 54.7424 39.2441 54.9977L39.244 54.9977L39.2434 54.9999C38.8505 56.2962 38.0117 57.0051 36.8801 57.4205C35.7381 57.8397 34.3065 57.9568 32.7414 58.0626C32.6402 58.0694 32.5384 58.0762 32.4362 58.0831C29.4885 58.2799 26.1394 58.5035 23.643 60.7608C23.6533 59.508 23.8447 55.4618 25.4365 51.9887C26.3185 50.0642 27.6251 48.3275 29.5574 47.333C31.4871 46.3398 34.0618 46.076 37.5037 47.1368L37.5038 47.1368C38.3778 47.4052 39.0919 47.8781 39.5279 48.6916C39.9509 49.4808 40.1227 50.6096 39.8968 52.2234C38.6885 51.6869 37.0323 51.0901 35.2875 50.9109C33.4618 50.7234 31.5268 50.9923 29.9106 52.2795L29.9105 52.2794L29.905 52.2842C29.6249 52.533 29.5421 52.9891 29.7856 53.3256L29.7854 53.3258L29.7909 53.3325C30.0314 53.6234 30.4788 53.713 30.8089 53.4564L30.8089 53.4564Z" fill="white" stroke="white" stroke-width="0.269559"/>
<path d="M66.9084 32.9592L66.9085 32.9602C67.0401 34.2215 67.1997 38.5404 63.1784 41.1527H63.1783H63.1781H63.1779H63.1778H63.1776H63.1774H63.1772H63.177H63.1769H63.1767H63.1765H63.1763H63.1761H63.1759H63.1758H63.1756H63.1754H63.1752H63.175H63.1748H63.1747H63.1745H63.1743H63.1741H63.1739H63.1737H63.1736H63.1734H63.1732H63.173H63.1728H63.1726H63.1724H63.1723H63.1721H63.1719H63.1717H63.1715H63.1713H63.1711H63.1709H63.1708H63.1706H63.1704H63.1702H63.17H63.1698H63.1696H63.1694H63.1693H63.1691H63.1689H63.1687H63.1685H63.1683H63.1681H63.1679H63.1677H63.1676H63.1674H63.1672H63.167H63.1668H63.1666H63.1664H63.1662H63.166H63.1658H63.1656H63.1655H63.1653H63.1651H63.1649H63.1647H63.1645H63.1643H63.1641H63.1639H63.1637H63.1635H63.1633H63.1632H63.163H63.1628H63.1626H63.1624H63.1623C62.6484 41.07 62.0998 40.7373 61.5761 40.1815C61.0505 39.6235 60.5587 38.8496 60.1624 37.909C59.37 36.0282 58.9657 33.4948 59.427 30.7282C59.6522 29.386 60.3767 28.5122 61.4179 27.8755C62.4667 27.2342 63.832 26.8364 65.3299 26.4547C65.5878 26.3891 65.8494 26.3239 66.1138 26.2581C68.8191 25.5844 71.8117 24.8392 73.9018 22.724C74.0897 23.955 74.6864 28.3211 74.0012 32.5196C73.6249 34.8257 72.864 37.0663 71.4496 38.7092C70.0948 40.283 68.1312 41.3193 65.2967 41.3289C68.6049 38.2699 68.4709 34.1187 68.3071 32.7929C68.266 32.4147 67.9387 32.1147 67.5275 32.1573L67.526 32.1575C67.1503 32.2007 66.8684 32.5449 66.9084 32.9592Z" fill="white" stroke="white" stroke-width="0.269559"/>
<path d="M82.6503 34.9127L82.6504 34.9128L82.6543 34.9095C83.6096 34.1072 84.9189 33.2682 86.5782 33.2263C88.2336 33.1844 90.2699 33.9355 92.6807 36.3829C94.8155 38.562 95.2604 42.0941 94.9372 45.4785C94.6272 48.7247 93.6145 51.7909 92.7655 53.3075C91.6243 51.7037 91.0042 51.0839 89.7519 50.2933C89.29 50.0017 88.7403 49.6856 88.0466 49.2867C87.7777 49.1321 87.4872 48.965 87.1719 48.7822C86.0408 48.1263 84.5833 47.2634 82.6397 46.0323C80.2234 44.4989 79.3246 42.786 79.2562 41.1556C79.1887 39.5446 79.9302 37.9827 80.8929 36.7146C83.0704 37.2142 84.3143 38.2267 85.078 39.3871C85.8508 40.5613 86.1392 41.8965 86.3881 43.0493L86.3932 43.0725L86.3925 43.0727L86.3966 43.0854L86.4284 43.1842C86.5087 43.5077 86.7869 43.7648 87.1235 43.7648H87.1237H87.1239H87.1241H87.1243H87.1245H87.1247H87.1249H87.1251H87.1253H87.1255H87.1257H87.1259H87.1261H87.1263H87.1265H87.1267H87.1269H87.1271H87.1273H87.1275H87.1277H87.128H87.1282H87.1284H87.1286H87.1288H87.129H87.1292H87.1294H87.1297H87.1299H87.1301H87.1303H87.1305H87.1308H87.131H87.1312H87.1314H87.1316H87.1319H87.1321H87.1323H87.1325H87.1328H87.133H87.1332H87.1334H87.1337H87.1339H87.1341H87.1344H87.1346H87.1348H87.135H87.1353H87.1355H87.1357H87.136H87.1362H87.1364H87.1367H87.1369H87.1372H87.1374H87.1376H87.1379H87.1381H87.1383H87.1386H87.1388H87.1391H87.1393H87.1396H87.1398H87.14H87.1403H87.1405H87.1408H87.141H87.1413H87.1415H87.1418H87.142H87.1423H87.1425H87.1427H87.143H87.1432H87.1435H87.1438H87.144H87.1443H87.1445H87.1448H87.145H87.1453H87.1455H87.1458H87.146H87.1463H87.1465H87.1468H87.1471H87.1473H87.1476H87.1478H87.1481H87.1484H87.1486H87.1489H87.1491H87.1494H87.1497H87.1499H87.1502H87.1504H87.1507H87.151H87.1512H87.1515H87.1518H87.152H87.1523H87.1526H87.1528H87.1531H87.1534H87.1536H87.1539H87.1542H87.1544H87.1547H87.155H87.1552H87.1555H87.1558H87.1561H87.1563H87.1566H87.1569H87.1571H87.1574H87.1577H87.158H87.1582H87.1585H87.1588H87.1591H87.1593H87.1596H87.1599H87.1602H87.1604H87.1607H87.161H87.1613H87.1615H87.1618H87.1621H87.1624H87.1627H87.1629H87.1632H87.1635H87.1638H87.1641H87.1643H87.1646H87.1649H87.1652H87.1655H87.1657H87.166H87.1663H87.1666H87.1669H87.1672H87.1674H87.1677H87.168H87.1683H87.1686H87.1689H87.1691H87.1694H87.1697H87.17H87.1703H87.1706H87.1709H87.1711H87.1714H87.1717H87.172H87.1723H87.1726H87.1729H87.1731H87.1734H87.1737H87.174H87.1743H87.1746H87.1749H87.1752H87.1755H87.1757H87.176H87.1763H87.1766H87.1769H87.1772H87.1775H87.1778H87.1781H87.1783H87.1786H87.1789H87.1792H87.1795H87.1798H87.1801H87.1804H87.1807H87.181H87.1812H87.1815H87.1818H87.1821H87.1824H87.1827H87.183H87.1833H87.1836H87.1839H87.1842H87.1845H87.1847H87.185H87.1853H87.1856H87.1859H87.1862H87.1865H87.1868H87.1871H87.1874H87.1877H87.188H87.1883H87.1885H87.1888H87.1891H87.1894H87.1897H87.19H87.1903H87.1906H87.1909H87.1912H87.1915H87.1918H87.1921H87.1923H87.1926H87.1929H87.1932H87.1935H87.1938H87.1941H87.1944H87.1947H87.195H87.1953H87.1956H87.1958H87.1961H87.1964H87.1967H87.197H87.1973H87.1976H87.1979H87.1982H87.1985H87.1988H87.1991H87.1993H87.1996H87.1999H87.2002H87.2005H87.2008H87.2011H87.2014H87.2017H87.202H87.2022H87.2025H87.2028H87.2031H87.2034H87.2037H87.204H87.2043H87.2046H87.2048H87.2051H87.2054H87.2057H87.206H87.2063H87.2066H87.2069H87.2071H87.2074H87.2077H87.208H87.2083H87.2086H87.2089H87.2092H87.2094H87.2097H87.21H87.2103H87.2106H87.2109H87.2112H87.2114H87.2117H87.212H87.2123H87.2126H87.2129H87.2131H87.2134H87.2137H87.214H87.2143H87.2145H87.2148H87.2151H87.2154H87.2157H87.216H87.2162H87.2165H87.2168H87.2171H87.2173H87.2176H87.2179H87.2182H87.2185H87.2187H87.219H87.2193H87.2196H87.2198H87.2201H87.2204H87.2207H87.2209H87.2212H87.2215H87.2218H87.222H87.2223H87.2226H87.2229H87.2231H87.2234H87.2237H87.224H87.2242H87.2245H87.2248H87.225H87.2253H87.2256H87.2258H87.2261H87.2264H87.2266H87.2269H87.2272H87.2274H87.2277H87.228H87.2282H87.2285H87.2288H87.229H87.2293H87.2296H87.2298H87.2301H87.2304H87.2306H87.2309H87.2311H87.2314H87.2317H87.2319H87.2322H87.2324H87.2327H87.233H87.2332H87.2335H87.2337H87.234H87.2342H87.2345H87.2347H87.235H87.2353H87.2355H87.2358H87.236H87.2363H87.2365H87.2368H87.237H87.2373H87.2375H87.2378H87.238H87.2383H87.2385H87.2387H87.239H87.2392H87.2395H87.2397H87.24H87.2402H87.2405H87.2407H87.2409H87.2412H87.2414H87.2417H87.2419H87.2421H87.2424H87.2426H87.2429H87.2431H87.2433H87.2436H87.2438H87.244H87.2443H87.2445H87.2447H87.245H87.2452H87.2454H87.2457H87.2459H87.2461H87.2463H87.2466H87.2468H87.247H87.2473H87.2475H87.2477H87.2479H87.2481H87.2484H87.2486H87.2488H87.249H87.2493H87.2495H87.2497H87.2499H87.2501H87.2503H87.2506H87.2508H87.251H87.2512H87.2514H87.2516H87.2518H87.2521H87.2523H87.2525H87.2527H87.2529H87.2531H87.2533H87.2535H87.2537H87.2539H87.2541H87.2543H87.2545H87.2547H87.2549H87.2551H87.2553H87.2555H87.2557H87.2559H87.2561H87.2563H87.2565H87.2718L87.2868 43.7614C87.6657 43.6741 87.9008 43.252 87.8206 42.878L87.8213 42.8778L87.8171 42.865L87.7861 42.7684C87.5538 41.6505 87.2421 40.1583 86.3945 38.7771C85.5681 37.4305 84.2361 36.195 81.99 35.4996C82.2095 35.2828 82.4411 35.0753 82.6503 34.9127Z" fill="white" stroke="white" stroke-width="0.269559"/>
<path d="M81.7971 28.4639L81.797 28.4638L81.7931 28.4674C81.69 28.5608 81.5925 28.6434 81.4981 28.7233C81.4726 28.7449 81.4473 28.7663 81.4221 28.7877C81.3292 28.8668 81.2392 28.9452 81.1536 29.0285C80.0375 27.8458 78.9904 26.2759 78.2857 24.3503C77.8192 23.0749 78.0138 21.9409 78.5996 20.8448C79.1893 19.7415 80.1722 18.6825 81.2769 17.5678C81.4648 17.3781 81.6562 17.187 81.8496 16.9938C83.8553 14.9905 86.075 12.7735 86.8382 9.83946C87.6454 10.8575 90.5275 14.6312 91.9316 18.8682C92.7004 21.1879 93.0206 23.6305 92.33 25.8303C91.6416 28.0232 89.9414 29.9974 86.6209 31.3724C86.1115 31.5802 85.423 31.5697 84.6381 31.3252C83.8934 31.0933 83.0734 30.6539 82.2604 30.0111L82.4373 29.8583L82.7354 29.6008C82.7356 29.6006 82.7358 29.6005 82.736 29.6003C83.6323 28.8434 84.7662 27.8803 85.4907 26.4926C86.2188 25.0979 86.528 23.2866 85.804 20.843C85.6847 20.4316 85.2787 20.21 84.901 20.3392C84.4975 20.4659 84.2942 20.886 84.4152 21.2652C85.0045 23.2686 84.7721 24.7051 84.1917 25.8163C83.6073 26.9353 82.6639 27.7382 81.7971 28.4639Z" fill="white" stroke="white" stroke-width="0.269559"/>
<path d="M38.2503 41.4668C38.4496 42.0519 38.6522 42.6131 38.9242 43.1068C37.5531 43.994 35.6501 44.7492 33.3353 45.1158L33.3351 45.1158C32.0349 45.3238 31.0246 44.9172 30.1399 44.1359C29.2481 43.3484 28.4885 42.1841 27.702 40.8836C27.5673 40.6609 27.4319 40.4342 27.295 40.205C25.8851 37.8454 24.3149 35.2173 21.7112 33.8382C22.8115 33.2678 26.8268 31.3006 30.974 30.9326C33.2396 30.7315 35.5288 31.0093 37.403 32.237C39.2733 33.4621 40.752 35.6477 41.3709 39.3085L41.3708 39.3085L38.3778 41.423M38.2503 41.4668C38.2503 41.4667 38.2503 41.4665 38.2502 41.4664L38.3778 41.423M38.2503 41.4668C38.2504 41.467 38.2505 41.4672 38.2506 41.4674L38.3778 41.423M38.2503 41.4668C37.9003 40.4648 37.5413 39.4802 36.8698 38.6835C36.2037 37.8933 35.2213 37.2788 33.6055 37.0415M38.3778 41.423C37.6795 39.4239 36.9146 37.3903 33.6224 36.9077M33.6055 37.0415C33.6065 37.0416 33.6075 37.0417 33.6085 37.0418L33.6224 36.9077M33.6055 37.0415C33.1829 36.9959 32.9511 36.603 32.9894 36.2054C33.0309 35.7759 33.4064 35.5262 33.8026 35.5673L33.8083 35.5679L33.8083 35.568C35.8356 35.8657 37.1047 36.7092 37.9579 37.7394C38.7903 38.7447 39.2208 39.9214 39.5811 40.9065C39.5879 40.925 39.5947 40.9436 39.6014 40.962M33.6055 37.0415C33.6046 37.0413 33.6038 37.0412 33.6029 37.0411L33.6224 36.9077M33.6224 36.9077L39.6014 40.962M39.6014 40.962C39.6015 40.9623 39.6017 40.9627 39.6018 40.9631L39.4752 41.0094L39.601 40.9608C39.6011 40.9612 39.6013 40.9616 39.6014 40.962ZM39.981 42.2951C40.0006 42.3383 40.0204 42.3808 40.0405 42.4226C40.0759 42.3913 40.1107 42.3599 40.1449 42.3284C40.1249 42.2861 40.1052 42.2431 40.0858 42.1995C40.0515 42.2314 40.0166 42.2633 39.981 42.2951Z" fill="white" stroke="white" stroke-width="0.269559"/>
</svg>
