<svg width="1007" height="220" viewBox="0 0 1007 220" fill="none" xmlns="http://www.w3.org/2000/svg">
<path d="M466.218 93.1403C468.413 89.1301 471.073 85.5947 474.088 82.3665C476.638 79.6353 479.381 77.0773 482.152 74.564C483.31 73.514 484.757 72.7879 486.07 71.9111C486.94 71.3302 487.866 70.8778 488.83 71.6206C489.9 72.4417 490.06 73.6034 489.678 74.8209C488.88 77.3734 488.171 79.9705 487.156 82.4335C485.837 85.6226 484.191 88.6721 482.8 91.8333C481.127 95.6313 478.428 98.6752 475.662 101.619C473.589 103.819 471.09 105.623 468.773 107.589C467.986 108.259 466.944 108.756 466.451 109.594C465.974 110.398 465.925 111.543 465.93 112.538C465.958 116.012 466.091 119.485 466.202 122.959C466.213 123.278 466.346 123.591 466.473 124.093C468.818 122.909 471.018 121.753 473.251 120.675C475.463 119.614 477.713 118.631 479.952 117.62C481.215 117.05 482.479 116.475 483.754 115.928C485.582 115.146 487.395 114.336 489.257 113.643C492.311 112.51 495.359 111.32 498.484 110.426C500.119 109.963 502.009 109.672 503.611 110.052C505.285 110.449 505.961 112.258 506.033 113.995C506.177 117.464 506.232 120.938 506.277 124.412C506.277 124.59 505.817 124.87 505.534 124.942C500.945 126.11 496.312 127.109 491.773 128.444C487.101 129.818 482.484 131.404 477.918 133.108C475.158 134.141 472.498 135.481 469.876 136.839C466.357 138.665 462.849 140.536 459.451 142.586C456.725 144.233 454.076 146.049 451.571 148.02C448.4 150.517 445.369 153.192 442.354 155.884C440.37 157.655 438.524 159.581 436.629 161.419C416.229 142.519 392.852 129.137 364.665 124.467C364.587 123.764 364.349 122.714 364.382 121.669C364.487 118.112 364.654 114.554 364.909 111.002C364.936 110.616 365.696 109.946 366.067 109.98C368.106 110.158 370.14 110.443 372.152 110.828C376.148 111.594 380.149 112.348 384.101 113.314C386.805 113.973 389.438 114.95 392.087 115.844C394.548 116.676 396.986 117.575 399.425 118.463C401.032 119.044 402.612 119.726 404.246 120.184C404.507 120.256 405.316 119.452 405.377 118.988C405.87 115.185 406.236 111.359 406.657 107.544C406.945 104.931 407.245 102.317 407.577 99.7028C407.644 99.1723 407.865 98.664 408.048 98.0273C406.314 96.9326 404.396 95.9273 402.739 94.6036C401.52 93.6318 400.478 92.336 399.63 91.0067C397.574 87.7729 395.623 84.4218 394.963 80.5904C394.564 78.2558 394.675 75.8207 394.609 73.4358C394.592 72.76 394.62 72.0395 394.847 71.414C395.374 69.9618 396.659 69.6379 397.867 70.5371C399.059 71.4252 400.323 72.2294 401.464 73.1845C403.587 74.955 404.729 77.4125 405.704 79.9146C406.58 82.1598 407.272 84.4721 408.359 86.7676C408.497 85.7232 408.691 84.6788 408.758 83.6287C408.991 79.8699 409.184 76.1055 409.384 72.3467C409.445 71.1794 409.561 70.0009 409.467 68.8448C409.417 68.236 409.085 67.5491 408.669 67.0799C407.339 65.5719 405.92 64.1365 404.518 62.69C403.665 61.8075 402.772 60.9697 401.924 60.0873C399.037 57.088 398.621 53.4968 399.591 49.6486C400.35 46.6382 401.132 43.6222 402.14 40.6956C402.418 39.8913 403.57 39.3942 404.324 38.752C405.178 39.8411 406.031 40.556 406.391 41.4663C407.483 44.1975 408.497 46.9733 409.312 49.7994C409.994 52.1731 410.354 54.6417 410.792 56.7809C413.02 53.776 415.031 50.4026 417.686 47.6659C420.38 44.8956 423.5 42.4102 427.435 41.4217C428.565 41.1368 429.685 40.6342 430.815 40.6062C431.447 40.5895 432.367 41.2038 432.655 41.7903C432.894 42.2706 432.511 43.1922 432.184 43.7954C430.937 46.1132 429.64 48.4031 428.277 50.6539C427.219 52.4077 425.595 53.9492 425.018 55.8314C424.37 57.9426 422.885 59.3445 421.859 61.0982C420.224 63.8908 418.157 66.4488 414.943 67.4541C413.463 67.9177 413.153 68.9565 413.053 70.0456C412.737 73.6536 412.61 77.2784 412.382 80.8976C412.199 83.8577 411.972 86.8179 411.773 89.778C411.756 90.0014 411.823 90.2304 411.861 90.5655C413.635 88.5437 415.142 86.4716 416.999 84.7905C419.581 82.4503 422.336 80.2609 425.196 78.2782C427.074 76.9768 429.252 76.1111 431.336 75.1337C432.633 74.5249 433.969 75.3292 433.83 76.8539C433.592 79.5181 433.093 82.1654 432.528 84.7849C432.251 86.0639 431.669 87.2982 431.081 88.4822C430.533 89.5825 429.912 90.694 429.108 91.6099C427.723 93.185 426.265 94.7265 424.658 96.0669C423.322 97.1895 421.748 98.0329 420.252 98.9488C418.451 100.044 416.633 101.127 414.776 102.116C413.757 102.657 412.632 102.998 411.157 103.585C411.157 106.399 411.102 109.438 411.174 112.476C411.257 115.866 411.435 119.251 411.629 122.636C411.645 122.959 412.055 123.39 412.388 123.551C416.428 125.551 420.585 127.333 424.52 129.528C428.277 131.622 431.846 134.063 435.41 136.481C437.56 137.944 439.544 139.659 441.711 141.346C444.116 139.341 446.766 137.096 449.47 134.917C450.29 134.258 451.293 133.845 452.18 133.264C453.278 132.544 454.331 131.756 455.417 131.013C457.129 129.84 458.919 128.757 460.532 127.461C460.959 127.12 460.987 126.137 461.02 125.445C461.169 122.105 461.136 118.748 461.447 115.425C461.541 114.42 461.408 114.001 460.632 113.521C458.249 112.029 456.885 109.672 455.661 107.254C454.547 105.053 453.51 102.803 452.535 100.535C450.955 96.8768 449.498 93.1459 449.913 89.0464C450.085 87.3708 450.091 85.5445 451.715 84.3325C452.768 83.5505 453.682 83.8298 454.441 84.5782C456.985 87.0971 459.39 89.7445 461.131 92.9225C461.563 93.71 461.851 94.5701 462.25 95.3743C462.367 95.6089 462.638 95.7597 462.854 95.9664C462.854 92.7996 462.888 89.7277 462.843 86.6615C462.782 82.3162 462.732 77.971 462.505 73.6369C462.455 72.7209 461.984 71.8329 460.516 71.6095C458.005 71.2297 455.888 69.7496 454.214 67.7892C452.302 65.544 451.199 62.8017 450.723 59.9867C450.141 56.5407 450.29 53.0053 451.798 49.71C452.463 48.2579 454.475 47.7552 455.954 48.4646C459.202 50.0116 460.266 53.0444 461.314 56.1386C462.355 59.216 462.937 62.3772 463.165 65.611C463.187 65.9294 463.42 66.2365 463.824 66.5605C463.99 65.4825 464.09 64.3823 464.334 63.3211C465.381 58.8362 467.066 54.7032 470.907 51.8324C472.725 50.4752 474.52 49.0957 476.377 47.7943C477.641 46.9119 479.353 47.1911 480.029 48.0903C480.656 48.9337 480.567 50.7098 480.173 51.8603C479.22 54.6641 478.001 57.3896 476.698 60.0538C475.911 61.6735 474.864 63.1815 473.789 64.628C472.099 66.8956 470.502 69.2916 468.48 71.2297C465.442 74.1396 465.781 77.7308 465.836 81.3165C465.908 85.254 466.091 89.1972 466.218 93.1403ZM466.385 105.238C475.64 97.6754 481.908 88.3426 484.962 76.6082C483.465 77.742 482.058 78.563 480.955 79.6912C478.66 82.0314 476.46 84.4777 474.343 86.9854C472.065 89.6886 470.137 92.6264 468.502 95.81C466.967 98.798 466.412 101.859 466.385 105.238ZM429.175 79.7638C428.56 80.0431 428.017 80.1771 427.606 80.4899C424.137 83.1428 420.413 85.4942 417.564 88.9011C416.561 90.1019 415.541 91.2916 414.649 92.5762C414.084 93.3804 413.718 94.3355 413.308 95.2403C412.837 96.2959 412.421 97.3794 411.867 98.7087C420.529 96.2791 429.868 85.9019 429.175 79.7638ZM453.039 87.1697C452.856 95.9105 457.301 102.769 461.142 110.069C463.137 103.702 458.98 92.0121 453.039 87.1697ZM426.276 45.9792C418.656 50.559 414.876 56.5854 413.225 64.2203C416.456 63.5389 423.533 53.6923 426.276 45.9792ZM460.011 68.5879C460.288 64.9129 456.625 53.3069 454.851 52.1061C452.718 56.1106 453.887 64.8123 460.011 68.5879ZM398.721 75.1225C396.814 77.9766 402.124 89.4541 406.668 92.0344C404.302 86.0862 403.382 79.8141 398.721 75.1225ZM466.651 68.1578C467.05 67.6719 467.476 67.2028 467.837 66.6945C469.549 64.2817 471.35 61.9192 472.919 59.4115C474.038 57.6186 474.847 55.6303 475.767 53.7202C475.823 53.6029 475.657 53.2231 475.607 53.2231C475.335 53.2399 474.969 53.2399 474.809 53.413C473.19 55.1444 471.572 56.8758 470.031 58.6742C469.339 59.4841 468.773 60.428 468.263 61.3663C467.138 63.4495 466.507 65.678 466.651 68.1578ZM404.13 46.1914C401.176 54.8875 403.232 56.954 407.322 60.2437C406.258 55.5633 405.227 51.0226 404.13 46.1914Z" fill="white"/>
<path d="M364.35 149.439C366.75 150.048 369.139 150.668 371.538 151.266C373.484 151.752 375.479 152.092 377.374 152.724C380.439 153.746 383.487 154.846 386.463 156.103C389.999 157.594 393.541 159.113 396.916 160.934C401.765 163.548 406.581 166.273 411.198 169.278C414.689 171.551 417.959 174.215 421.135 176.935C424.521 179.834 427.686 182.995 430.917 186.073C431.504 186.631 431.898 187.396 432.485 187.949C433.699 189.089 434.342 190.697 435.749 191.719C436.558 192.306 436.969 193.439 437.6 194.294C438.736 195.83 439.828 197.416 441.092 198.846C442.932 200.929 444.062 203.442 445.454 205.794C445.936 206.615 446.44 207.425 447.122 208.547C445.72 208.441 444.461 208.341 443.203 208.251C443.087 208.246 442.971 208.307 442.849 208.324C441.308 208.558 439.845 208.218 438.371 207.81C437.661 207.615 436.869 207.721 436.11 207.693C434.774 207.642 433.416 207.698 432.097 207.508C430.49 207.274 428.921 206.754 427.309 206.503C425.956 206.291 424.56 206.38 423.207 206.179C421.988 206 420.802 205.576 419.589 205.325C418.757 205.151 417.898 205.09 417.056 204.967C415.909 204.805 414.761 204.61 413.609 204.47C412.633 204.353 411.641 204.358 410.677 204.191C409.718 204.023 408.593 203.962 407.867 203.414C406.149 202.113 403.949 202.688 402.214 201.655C401.627 201.309 401.034 200.974 400.435 200.644C400.224 200.527 400.008 200.348 399.787 200.331C398.008 200.197 396.483 199.589 394.904 198.656C393.169 197.634 390.969 197.455 389.107 196.606C387.239 195.757 385.305 195.076 383.598 193.73C381.886 192.384 379.574 191.842 377.685 190.68C376.255 189.803 374.786 188.982 373.445 187.832C372.032 186.614 370.513 185.559 369.66 183.9C368.717 182.068 367.809 180.158 367.31 178.175C366.528 175.092 365.935 171.936 365.575 168.781C365.026 163.95 364.716 159.091 364.356 154.243C364.262 152.835 364.35 151.411 364.35 149.439Z" fill="white"/>
<path d="M364.352 144.455C364.352 139.25 364.352 134.223 364.352 128.822C368.575 129.984 372.559 131.006 376.5 132.19C381.133 133.586 385.822 134.888 390.311 136.675C394.706 138.423 398.94 140.629 403.135 142.841C406.283 144.5 409.315 146.399 412.296 148.354C414.641 149.889 416.819 151.688 419.097 153.324C420.194 154.117 421.419 154.737 422.483 155.575C424.555 157.206 426.589 158.893 428.574 160.63C429.909 161.803 431.14 163.098 432.403 164.355C434.853 166.801 437.319 169.236 439.735 171.722C441.852 173.9 443.92 176.117 445.97 178.357C446.397 178.821 446.663 179.435 446.984 179.988C447.212 180.379 447.306 180.926 447.633 181.161C449.911 182.797 450.842 185.394 452.31 187.617C453.713 189.745 455.347 191.711 456.766 193.828C457.548 194.995 458.118 196.313 458.739 197.581C460.191 200.558 461.627 203.541 463.034 206.54C463.195 206.88 463.129 207.327 463.195 207.958C461.211 207.958 459.321 207.925 457.431 207.975C456.528 207.998 455.636 208.227 454.732 208.277C454.067 208.316 453.386 208.277 452.732 208.165C452.466 208.12 452.155 207.858 452.006 207.607C450.066 204.356 448.287 200.994 446.192 197.849C443.936 194.459 441.437 191.225 438.954 187.997C437.862 186.578 436.571 185.316 435.324 184.026C433.246 181.881 431.212 179.675 429 177.681C426.229 175.185 423.286 172.889 420.432 170.482C416.115 166.846 411.482 163.651 406.588 160.892C402.265 158.457 397.826 156.217 393.331 154.117C389.884 152.509 386.348 151.034 382.729 149.873C376.771 147.963 370.719 146.349 364.706 144.606C364.557 144.567 364.429 144.489 364.352 144.455Z" fill="white"/>
<path d="M439.176 164.071C457.592 144.819 480.453 134.531 506.008 129.281C506.008 135.296 506.008 141.072 506.008 146.925C503.941 147.372 501.874 147.74 499.862 148.282C497.058 149.036 494.237 149.773 491.521 150.79C486.478 152.677 481.451 154.638 476.53 156.816C473.265 158.263 470.212 160.195 467.025 161.832C462.951 163.915 459.188 166.473 455.614 169.31C453.691 170.84 451.851 172.488 450.033 174.141C449.285 174.823 448.991 174.912 448.204 173.99C445.344 170.651 442.296 167.473 439.176 164.071Z" fill="white"/>
<path d="M461.463 192.779C458.426 188.06 455.333 183.245 452.113 178.241C467.653 165.082 485.676 156.878 505.905 153.27C506.01 155.012 506.193 156.755 506.204 158.497C506.221 160.659 506.143 162.831 505.988 164.987C505.955 165.417 505.445 166.104 505.063 166.177C497.359 167.69 490.587 171.405 483.936 175.325C479.696 177.822 475.501 180.458 471.555 183.407C468.23 185.892 465.292 188.903 462.205 191.701C461.873 192.003 461.673 192.466 461.463 192.779Z" fill="white"/>
<path d="M506.008 170.895C505.765 172.47 505.593 173.687 505.377 174.894C504.944 177.301 504.318 179.686 504.074 182.104C503.803 184.824 501.918 186.661 500.943 188.963C500.145 190.85 498.477 191.844 497.479 193.498C496.698 194.799 495.129 195.62 493.916 196.659C493.522 196.994 492.984 197.273 492.79 197.703C492.33 198.714 490.679 198.346 490.596 199.72C490.596 199.759 490.391 199.781 490.291 199.826C488.789 200.501 487.276 201.166 485.785 201.87C484.256 202.59 482.793 203.836 481.224 203.981C479.052 204.182 477.35 205.584 475.183 205.701C473.454 205.796 471.769 206.539 470.035 206.824C469.624 206.891 468.915 206.371 468.666 205.93C467.247 203.411 465.889 200.853 464.609 198.256C464.415 197.865 464.553 197.011 464.864 196.709C468.278 193.375 471.625 189.951 475.25 186.857C479.861 182.919 485.02 179.741 490.435 177.038C492.469 176.022 494.669 175.34 496.792 174.508C499.779 173.335 502.772 172.162 506.008 170.895Z" fill="white"/>
<path d="M843.429 163.89C848.185 163.492 852.258 163.089 856.342 162.839C857.519 162.768 857.311 161.919 857.59 161.224C862.561 148.58 869.98 137.712 878.506 127.592C880.676 125.015 883.607 122.83 883.934 118.75C884.005 117.853 884.095 117.004 883.821 116.243C882.733 113.209 881.919 110.15 884.499 107.537C887.347 104.645 890.902 104.2 894.469 105.239C896.675 105.88 897.947 107.3 898.226 110.435C898.851 117.425 895.254 122.604 888.851 122.533C887.543 122.521 886.443 122.319 885.652 124.005C880.111 135.812 872.674 146.306 865.658 157.096C864.63 158.676 863.785 160.398 862.668 162.394C870.456 162.762 877.852 163.053 885.236 163.504C886.859 163.605 887.311 162.625 887.703 161.396C888.809 157.892 892.204 155.938 895.593 156.948C898.88 157.928 899.719 160.695 899.368 164.698C899.332 165.126 898.952 165.512 898.821 165.945C896.806 172.751 890.955 174.657 885.884 169.888C884.398 168.487 883.334 168.439 881.586 168.879C870.284 171.7 858.863 173.119 847.246 172.353C843.904 172.133 840.516 172.959 837.133 172.525C835.688 172.341 834.975 173.618 834.231 174.521C827.287 182.972 819.303 190.342 812.68 199.089C810.914 201.423 810.129 201.109 808.245 198.668C799.945 187.907 794.814 175.126 788.245 163.279C782.317 152.583 781.723 140.955 783.922 128.923C785.302 121.398 786.419 113.82 787.769 106.29C789.303 97.7501 790.902 89.2221 792.65 80.7296C792.995 79.0608 792.698 78.0512 791.925 76.614C785.337 64.392 780.082 51.5999 778.512 37.335C778.191 34.3894 778.066 31.711 774.826 30.0303C772.335 28.7356 770.551 25.7425 769.41 22.8325C767.365 17.6064 770.272 12.4218 776.538 11.8636C782.71 11.3113 785.212 14.4707 783.435 21.4547C782.43 25.3921 782.466 28.7059 783.899 32.4533C787.4 41.6169 788.494 51.6118 791.806 60.8644C792.68 63.3053 793.453 65.7877 794.541 69.0718C796.348 60.4249 797.638 52.5323 799.856 44.8832C800.551 42.478 801.158 40.0371 801.913 37.6497C802.739 35.0307 804.505 32.388 804.327 29.8937C804.178 27.8329 801.711 26.0394 800.403 24.0321C797.692 19.8691 798.387 11.4657 804.88 10.1116C810.331 8.97735 814.327 12.8257 812.793 18.806C811.972 22.0011 811.164 25.2971 808.619 27.6904C807.008 29.2107 807.644 31.4912 807.721 33.3738C808.167 43.7667 808.352 54.0764 806.954 64.4871C805.444 75.7648 803.197 86.8703 801.223 98.0411C799.196 109.503 796.633 120.858 794.457 132.29C793.001 139.927 793.227 147.47 796.122 154.745C800.557 165.898 805.73 176.7 809.731 188.061C809.844 188.376 810.123 188.619 810.254 188.797C815.92 184.765 813.482 178.909 813.215 173.719C812.84 166.337 811.883 158.997 811.277 151.627C810.914 147.226 810.73 142.79 810.385 138.407C810.183 135.847 807.18 134.434 805.819 132.082C802.882 126.999 803.292 122.004 807.382 119.308C809.315 118.031 811.514 117.122 813.833 117.805C816.865 118.696 818.53 123.299 817.507 127.278C816.764 130.158 816.211 133.418 815.046 135.788C811.693 142.606 815.866 148.348 816.128 154.566C816.289 158.332 817.115 162.079 817.876 165.779C818.637 169.496 819.041 173.244 819.463 177.674C823.221 172.983 826.794 168.677 830.212 164.235C836.8 155.653 843.411 147.107 846.497 136.132C847.406 132.884 847.519 129.493 848.577 126.304C848.994 125.051 847.882 124.445 847.275 123.685C835.956 109.598 826.55 94.2581 820.658 76.5903C819.648 73.5556 816.782 71.7383 816.265 68.2582C815.23 61.3158 817.638 57.1349 824.38 55.864C827.097 55.3532 829.588 58.4651 829.243 62.1591C828.916 65.6273 828.096 69.149 825.201 71.2573C824.285 71.9224 824.582 72.1006 824.909 72.6291C833.096 85.8726 840.01 99.9653 848.286 114.159C849.148 109.45 848.429 105.53 848.233 101.759C848.024 97.6907 848.048 93.593 847.852 89.5249C847.162 75.159 848.458 60.8347 849.826 46.5401C850.189 42.7511 850.896 38.9325 851.966 35.298C852.567 33.2432 852.038 32.5127 850.706 31.3546C847.489 28.5634 845.129 23.9371 847.038 20.944C848.845 18.1112 854.267 15.3912 857.228 16.3474C860.117 17.2857 862.275 21.1815 861.187 24.6498C860.254 27.6429 860.284 31.4021 856.847 33.0412C855.878 33.5045 856.181 34.7457 856.235 35.6127C856.592 41.6287 856.865 47.6566 857.489 53.6369C858.411 62.4857 859.279 71.3345 859.54 80.8543C861.074 78.8886 862.329 77.1426 863.714 75.5332C869.231 69.1312 874.915 62.9014 881.039 57.1646C882.602 55.6977 884.023 54.0467 885.926 53.0193C889.297 51.1961 890.842 48.2148 891.401 44.1883C891.972 40.0965 897.822 36.4976 901.514 37.5013C905.789 38.6593 907.269 42.4126 905.652 47.9832C905.557 48.3158 905.616 48.6959 905.533 49.0344C904.089 54.7118 901.134 56.2737 896.134 53.8151C894.647 53.0846 893.708 52.657 892.555 54.5099C887.097 63.2934 879.6 69.9982 872.454 77.0654C868.423 81.0503 864.546 85.2193 860.611 89.3171C860.159 89.7862 859.523 90.1307 859.558 90.9918C859.832 98.4509 860.248 105.904 860.319 113.363C860.414 123.186 859.017 132.783 855.599 142C852.989 149.043 849.594 155.57 844.945 161.319C844.445 161.907 844.136 162.649 843.429 163.89Z" fill="white"/>
<path d="M5.97948 131.866C4.73647 130.811 3.48408 129.774 2.26922 128.7C1.12472 127.687 -0.094836 126.716 -1.06579 125.548C-1.72716 124.751 -2.37915 123.653 -2.4073 122.673C-2.49173 119.328 -2.31818 115.975 -2.2056 112.626C-2.15401 111.134 -2.04143 109.642 -1.91479 108.151C-1.62397 104.816 -1.37537 101.471 -0.962595 98.1504C-0.699922 96.0491 -0.146432 93.9805 0.214743 91.8885C0.449273 90.5282 0.514941 89.1351 0.768233 87.7795C1.25605 85.1575 1.75326 82.5308 2.36772 79.9369C3.29177 76.0343 4.09386 72.0754 5.37439 68.2854C6.47668 65.0302 8.1137 61.9485 9.63814 58.848C10.5059 57.089 11.5378 55.391 12.6636 53.7774C13.6908 52.3046 14.9151 50.9584 16.1158 49.6122C16.6881 48.9743 17.4151 47.9752 18.0531 47.9893C19.7933 48.0315 20.7924 46.7087 22.101 46.0849C23.8272 45.2593 25.5721 44.7621 27.3873 44.4948C29.9437 44.1195 32.5282 43.9929 35.0471 44.9029C36.7029 45.5032 38.4431 45.8973 40.0379 46.6243C41.1683 47.1403 42.1158 48.0455 43.1383 48.7867C43.9826 49.3964 44.841 49.9874 45.6478 50.6394C48.0447 52.5673 50.1179 54.7812 51.8112 57.3751C52.7775 58.8527 54.0862 60.1051 55.0149 61.5967C57.0413 64.8425 58.9644 68.1588 60.85 71.4891C63.1672 75.5793 65.3999 79.7117 67.6701 83.8301C67.9094 84.2663 68.2658 84.6931 68.3456 85.1669C68.5707 86.5318 69.2696 86.8414 70.6534 86.9305C73.8054 87.1322 76.934 87.6717 80.0674 88.075C80.649 88.1501 81.2306 88.2674 81.8123 88.2955C83.9183 88.3893 84.5938 89.8246 84.8002 91.5742C84.9831 93.1315 85.166 94.731 84.9878 96.2695C84.8799 97.1936 84.1998 98.1317 83.5619 98.8822C83.0131 99.5248 82.1781 99.9469 81.4276 100.393C80.391 101.007 79.3919 101.378 78.0223 101.223C73.4818 100.707 68.9084 100.477 64.3492 100.125C62.9279 100.017 61.4785 99.9938 60.0948 99.6889C59.4147 99.5389 58.6876 98.9478 58.2702 98.3568C56.9521 96.4712 55.7607 94.4965 54.5412 92.5452C53.2137 90.4156 51.9051 88.272 50.5917 86.1331C49.7661 84.7869 48.9406 83.4361 48.0541 81.9913C47.5334 83.3375 46.8814 84.4821 47.0644 86.0909C47.2332 87.6013 46.6 89.1914 46.403 90.7581C46.1732 92.6155 45.9902 94.4777 45.8589 96.3446C45.6009 99.9938 45.3429 103.648 45.1834 107.302C45.0662 110.046 45.1084 112.799 45.0802 115.548C45.0474 118.944 45.0146 122.335 44.9958 125.731C44.9864 127.528 45.0099 129.329 45.0333 131.125C45.0474 132.242 44.3063 132.664 43.3963 132.941C42.6787 133.161 41.9751 133.452 41.2433 133.578C39.1607 133.94 37.0687 134.306 34.9673 134.54C32.8566 134.775 30.7317 134.864 28.6116 135.004C27.7204 135.065 26.8292 135.126 25.9379 135.103C25.7832 135.098 25.5486 134.7 25.5064 134.451C25.1405 132.279 24.7137 130.112 24.4932 127.926C24.2118 125.173 24.0383 122.401 23.9538 119.638C23.8928 117.537 24.0617 115.431 24.1039 113.324C24.1227 112.457 24.1508 111.58 24.0523 110.721C23.8459 108.976 24.057 107.297 24.3807 105.571C24.7231 103.756 24.5777 101.856 24.7794 100.003C25.0514 97.5172 25.4595 95.05 25.7925 92.5733C25.9661 91.2787 26.0552 89.9747 26.2616 88.6895C26.4961 87.2167 26.8854 85.7673 27.0824 84.2944C27.1997 83.4079 27.059 82.4932 27.059 81.588C27.0543 78.6704 27.0543 75.7576 27.0543 72.84C26.9323 72.8072 26.8104 72.7743 26.6884 72.7415C26.3929 73.6327 26.0552 74.5145 25.816 75.4245C25.0936 78.1638 24.3056 80.8891 23.7427 83.6565C23.2455 86.105 22.9688 88.6004 22.6639 91.0864C22.1151 95.5472 21.5241 100.008 21.1254 104.483C20.7971 108.146 20.7314 111.833 20.5391 115.506C20.3937 118.329 20.131 121.158 20.1075 123.982C20.0888 126.514 20.3045 129.052 20.464 131.58C20.525 132.528 20.7689 133.471 20.7971 134.418C20.8017 134.657 20.2952 135.122 20.0231 135.122C18.6628 135.117 17.2791 135.122 15.947 134.887C13.8831 134.521 11.8474 134.01 9.82576 133.452C9.44114 133.344 8.91579 132.739 8.92048 132.364C8.94393 128.03 9.02367 123.691 9.16439 119.357C9.24413 116.917 9.38016 114.469 9.64752 112.044C9.88674 109.868 10.3605 107.719 10.6935 105.552C10.8483 104.53 10.8624 103.484 11.0219 102.456C11.1954 101.345 11.4393 100.242 11.6926 99.1402C11.9506 98.0191 12.2836 96.9168 12.5229 95.7911C13.0294 93.366 13.3812 90.9269 14.2724 88.5722C14.9151 86.8649 14.9713 84.9464 15.4498 83.1687C16.1768 80.4763 17.0493 77.8261 17.8467 75.1572C19.1319 70.8465 20.5062 66.5593 21.0081 62.061C21.0175 61.9672 20.8721 61.8593 20.6282 61.531C19.9105 62.5254 19.2492 63.4494 18.5831 64.3688C16.4536 67.3051 15.5436 70.7715 14.4272 74.1346C12.9497 78.5907 11.5331 83.0702 10.2385 87.5825C9.67097 89.5573 9.47866 91.6399 9.08934 93.6662C8.56868 96.3774 7.96829 99.0792 7.49454 101.8C7.10991 104.004 6.82848 106.232 6.56111 108.456C6.29375 110.67 5.98886 112.884 5.89974 115.107C5.80593 117.565 5.95603 120.027 5.9701 122.49C5.99355 125.534 5.97948 128.574 5.97948 131.866Z" fill="white"/>
<path d="M33.5234 24.8254C34.091 22.4238 34.4569 19.9659 35.2965 17.6816C35.8312 16.2135 36.9663 14.9142 38.0076 13.6899C38.9411 12.5923 40.0621 11.6308 41.1972 10.7302C41.9008 10.172 42.7451 9.73108 43.5941 9.4215C45.0341 8.89146 46.5164 8.46931 47.9986 8.07061C49.5746 7.64377 51.1788 7.58748 52.7924 7.85953C54.1104 8.08468 55.527 8.08468 56.7137 8.60534C58.0271 9.18228 59.5234 9.3699 60.6397 10.5144C61.5216 11.4244 62.8772 11.8841 63.7355 12.8081C64.9926 14.159 65.9964 15.7491 67.1034 17.2407C69.1344 19.98 69.322 23.2822 69.3314 26.4155C69.3408 29.2205 68.2104 31.9129 66.7469 34.4458C65.0301 37.4196 62.3143 39.1598 59.5562 40.8391C58.407 41.538 56.9389 41.7303 55.602 42.1055C53.1817 42.7904 50.7238 42.4057 48.3363 42.0539C45.658 41.6646 43.1673 40.567 41.08 38.7658C39.6165 37.5041 37.9654 36.3408 36.8772 34.7929C35.7562 33.1981 35.1089 31.2374 34.4709 29.3612C33.9831 27.9306 33.8377 26.3874 33.5234 24.8254Z" fill="white"/>
<path d="M116.228 131.823C115.055 130.589 113.793 129.403 112.396 128.441C110.533 127.161 108.399 126.255 106.57 124.928C104.717 123.586 102.728 122.231 102.217 119.707C102.175 119.491 101.954 119.323 101.87 119.112C101.682 118.652 101.377 118.173 101.382 117.704C101.387 116.691 101.682 115.673 101.635 114.665C101.551 112.887 101.274 111.119 101.129 109.341C101.021 108.079 101.007 106.808 100.932 105.542C100.885 104.754 101.26 104.271 101.959 103.989C103.263 103.459 104.614 103.018 105.857 102.366C107.93 101.278 109.933 100.044 111.678 98.4542C112.321 97.8726 113.104 97.3754 113.55 96.6718C114.957 94.4578 116.153 92.2579 116.162 89.3826C116.172 87.5533 116.092 86.2024 114.488 85.0579C109.881 87.4172 105.716 90.452 102.006 94.2092C102.728 91.1697 103.591 88.2193 104.412 85.2596C104.675 84.3261 104.755 83.3364 105.05 82.4171C105.167 82.0512 105.622 81.7745 105.965 81.5071C106.176 81.3476 106.537 81.3476 106.715 81.1647C108.169 79.6731 109.6 78.1533 111.031 76.643C111.317 76.3428 111.673 76.0707 111.842 75.7142C112.443 74.4431 112.93 73.1156 113.55 71.8492C114.399 70.1277 114.891 68.3687 114.497 66.4362C114.225 65.1041 113.981 63.7673 113.69 62.4352C113.474 61.4454 112.593 61.0514 111.809 60.9811C111.289 60.9342 110.693 61.5439 110.163 61.9051C109.919 62.0787 109.75 62.3648 109.544 62.5993C108.029 64.2879 106.157 65.7795 105.074 67.7121C103.197 71.0565 101.889 74.6682 101.922 78.6552C101.94 80.4658 101.607 82.2951 101.284 84.0916C100.782 86.8497 100.153 89.589 99.5622 92.4127C99.4074 92.1641 99.1916 91.9718 99.1682 91.756C99.0415 90.5224 99.0556 89.2653 98.8492 88.0458C98.3192 84.8468 98.2629 81.6666 98.9243 78.4817C99.126 77.506 98.4364 76.2677 97.5077 76.1833C96.9871 76.1364 96.4101 76.6242 95.8707 76.8916C94.4964 77.5623 93.6474 78.6787 92.9719 80.0342C91.4803 83.0222 91.0675 86.2071 91.0582 89.4717C91.0582 91.1322 90.8565 92.8958 91.9963 94.3124C93.1924 95.7899 94.4776 97.1924 95.7675 98.5902C96.9026 99.8192 97.3951 101.273 97.2497 102.891C97.0199 105.438 96.5321 107.967 96.4336 110.514C96.3398 112.915 96.8745 115.354 96.0583 117.7C95.8144 118.394 95.2515 118.985 94.7825 119.585C94.5714 119.862 94.2102 120.022 93.9616 120.28C92.789 121.49 91.743 122.859 90.4437 123.91C88.1781 125.739 86.2268 127.808 84.6555 130.256C84.4679 130.552 83.9988 130.824 83.6611 130.829C81.874 130.861 81.0531 132.081 80.3636 133.427C80.2041 133.746 80.1901 134.445 80.3918 134.6C81.3955 135.364 82.4322 136.434 83.5767 136.603C86.0721 136.978 88.6378 136.889 91.1754 136.955C91.8556 136.969 92.4935 137.137 93.2346 136.912C94.2008 136.617 95.2938 136.762 96.3257 136.654C98.2535 136.453 100.177 136.148 102.114 135.988C103.399 135.885 104.703 135.988 105.998 135.941C107.311 135.899 108.624 135.744 109.938 135.707C111.626 135.66 113.301 135.627 114.863 134.858C116.425 134.084 117.105 132.747 116.228 131.823ZM103.446 97.8538C104.619 96.517 105.73 95.1098 107.044 93.9231C108.352 92.7504 109.863 91.8029 111.307 90.7804C111.429 90.6913 111.692 90.7992 111.992 90.8273C111.012 94.0497 108.812 95.9588 106.054 97.3754C105.355 97.7365 104.731 98.2337 104.037 98.6043C103.802 98.7309 103.455 98.6512 103.16 98.6653C103.254 98.3932 103.272 98.0555 103.446 97.8538ZM110.313 66.4503C110.806 69.1146 108.198 74.6354 105.97 75.5172C106.41 73.0593 107.006 70.4936 110.313 66.4503ZM95.275 83.8524C95.8425 87.5861 96.396 91.2541 96.9448 94.8659C94.2055 92.788 93.455 88.1161 95.275 83.8524ZM102.644 130.097C101.513 129.426 100.242 128.92 98.9665 128.591C98.2723 128.413 97.2873 128.526 96.7056 128.915C95.4814 129.74 94.4494 130.843 93.3237 131.814C92.6623 132.386 91.9775 132.874 91.1754 131.729C92.1417 129.801 93.5535 128.146 95.2656 126.771C96.0724 126.119 97.0293 125.524 98.0143 125.266C98.7413 125.069 99.6372 125.392 100.425 125.608C101.176 125.819 101.87 126.218 102.606 126.48C104.586 127.189 106.167 128.371 107.41 130.378C105.594 130.829 104.145 130.993 102.644 130.097Z" fill="white"/>
<path d="M52.7248 147.405C62.0241 148.475 70.4937 149.354 78.9141 150.442C90.9423 151.991 101.182 149.403 111.293 145.998C120.924 142.753 131.293 140.079 142.503 141.302C159.307 143.134 175.816 146.115 191.231 151.37C194.538 152.495 197.894 153.576 201.323 154.523C203.026 154.99 205.57 155.297 205.57 156.416C205.57 158.1 203.136 158.93 200.709 159.354C191.876 160.915 182.946 162.224 173.825 163.042C159.848 164.302 145.798 165.328 131.901 166.846C126.732 167.412 121.526 168.647 117.027 170.313C101.846 175.93 86.0314 175.156 69.7069 171.732C63.155 170.362 56.6277 168.567 49.9344 167.953C39.4857 166.994 30.254 169.557 21.7414 173.06C19.8484 173.841 18.0414 174.713 16.1115 175.451C10.9547 177.424 6.57245 175.783 6.01314 171.696C5.42924 167.399 7.77096 163.847 12.1041 160.811C23.1735 153.035 35.8349 147.197 52.7248 147.405Z" fill="white"/>
<path d="M36.0332 180.486C44.5642 180.21 53.2243 182.428 61.5526 184.383C72.3085 186.909 81.823 185.882 91.5033 183.614C100.735 181.451 108.449 177.315 117.883 175.434C135.412 171.937 153.175 172.914 170.292 177.401C184.583 181.144 199.549 183.326 213.734 187.186C216.187 187.849 219.893 188.507 220.169 189.724C220.544 191.377 218.055 192.772 215.332 193.799C202.911 198.47 190.04 199.878 175.781 196.331C168.436 194.506 161.374 192.201 153.722 190.867C138.946 188.292 125.578 190.123 112.554 194.278C99.5058 198.445 85.9594 201.592 70.5384 200.093C61.2022 199.183 52.5667 196.7 43.8328 194.598C32.8556 191.949 22.8433 192.355 12.9663 195.649C10.643 196.423 8.14145 197.001 5.67064 197.591C3.02161 198.218 -0.266664 199.447 -2.09825 197.167C-3.6041 195.292 -5.30661 193.006 -2.06137 190.867C8.14143 184.143 19.3276 178.956 36.0332 180.486Z" fill="white"/>
<path d="M691.184 149.871C690.496 155.853 689.93 161.302 689.23 166.719C688.234 174.457 689.899 181.045 692.089 187.549C694.177 193.745 695.897 200.416 695.11 207.628C693.932 218.439 692.014 229.059 688.633 238.976C687.91 241.104 687.214 243.262 686.605 245.469C686.304 246.564 686.107 248.201 685.387 248.201C684.304 248.201 683.77 246.635 683.497 245.073C682.493 239.391 681.65 233.646 681.125 227.778C680.314 218.787 679.654 209.748 678.677 200.807C678.313 197.482 677.518 194.133 676.447 191.238C672.833 181.472 673.331 171.298 675.534 160.796C676.415 156.581 677.57 152.382 677.965 148.076C678.582 141.354 676.933 135.415 674.679 129.938C674.177 128.72 673.616 127.558 673.141 126.316C671.872 122.999 672.928 120.179 675.557 119.82C678.321 119.444 680.607 120.95 682.56 123.738C687.562 130.859 691.318 139.005 691.184 149.871Z" fill="white"/>
<path d="M669.899 139.132C670.077 144.621 668.65 150.192 667.392 155.55C665.767 162.469 666.427 168.59 667.887 174.818C669.278 180.757 671.939 185.719 673.149 191.789C675.399 203.066 674.771 214.493 671.884 225.506C669.476 234.699 668.072 244.327 665.589 253.453C665.162 255.031 664.739 257.415 663.956 257.593C662.892 257.834 661.995 256.233 661.335 254.481C658.329 246.49 657.424 238.21 659.705 229.037C660.88 224.311 662.363 219.768 663.221 214.845C664.877 205.34 663.699 196.739 661.026 188.361C658.345 179.966 656.321 171.251 657.286 161.331C657.871 155.324 659.468 149.769 660.82 144.15C662.525 137.088 662.264 130.647 660.144 124.293C659.646 122.798 659.274 121.189 658.895 119.599C658.492 117.895 657.701 115.779 659.168 114.601C660.374 113.632 661.845 112.537 663.221 114.625C667.546 121.189 670.884 128.385 669.899 139.132Z" fill="white"/>
<path d="M633.671 186.305C633.616 178.729 635.786 171.113 636.423 163.067C637.309 151.9 636.648 141.287 634.236 131.121C633.378 127.5 634.489 125.665 636.399 124.641C640.27 122.569 641.219 123.281 643.343 129.061C648.4 142.834 649.586 157.891 647.51 174.193C646.482 182.276 647.071 190.192 647.953 198.1C649.452 211.579 648.803 225.063 646.202 238.444C645.798 240.527 645.434 242.639 645.142 244.766C645.003 245.759 644.869 246.53 644.181 246.387C643.71 246.292 643.177 246.506 642.975 245.292C642.726 243.786 642.22 242.429 641.935 240.939C639.693 229.128 636.609 217.874 634.707 205.846C633.73 199.705 633.09 193.434 633.671 186.305Z" fill="white"/>
<path d="M347.788 194.564C346.732 193.907 345.526 193.579 344.334 193.284C341.245 192.522 338.09 192.344 334.929 192.147C334.551 192.121 333.867 192.404 333.965 191.622C334.173 189.934 333.215 188.969 331.912 188.385C328.542 186.868 324.951 186.933 321.367 187.143C320.376 187.202 319.392 187.262 318.101 187.124C319.991 186.756 321.588 186.441 323.185 186.125C327.428 185.291 331.644 184.392 335.705 182.862C338.735 181.719 341.551 180.202 343.324 177.385C344.979 174.738 344.992 173.28 342.861 171.028C341.42 169.498 339.55 168.775 337.549 168.303C336.005 167.941 336.076 167.948 336.78 166.497C337.38 165.275 338.188 163.975 337.301 162.57C336.63 161.499 335.672 160.737 334.447 160.317C333.261 159.91 332.035 159.726 330.602 159.542C331.677 158.675 332.642 157.979 333.515 157.185C335.483 155.392 337.432 153.579 338.201 150.867C338.39 150.204 338.318 149.652 337.927 149.173C337.262 148.352 336.5 147.676 335.411 147.393C331.677 146.441 327.884 146.408 324.078 146.651C323.009 146.723 321.953 146.828 320.871 146.658C321.008 146.119 321.314 145.804 321.614 145.462C323.048 143.821 322.996 142.12 321.464 140.57C320.91 140.012 320.265 139.565 319.568 139.191C316.609 137.595 313.402 136.768 310.157 136.091C304.91 134.995 299.572 134.482 294.235 134.108C288.167 133.688 282.086 133.327 275.993 133.405C272.291 133.458 268.595 133.346 264.887 133.57C261.283 133.786 257.672 133.957 254.068 134.266C249.356 134.666 244.69 135.297 240.082 136.334C236.549 137.122 233.043 138.042 229.973 140.104C228.813 140.879 227.686 141.772 227.699 143.374C227.705 144.228 227.451 144.353 226.741 143.972C226.454 143.814 226.03 143.492 225.763 143.978C225.548 144.366 225.665 144.786 225.972 145.121C226.428 145.64 227.008 145.981 227.621 146.27C228.931 146.874 230.254 147.452 231.57 148.043C231.551 148.135 231.531 148.227 231.518 148.313C230.997 148.313 230.475 148.319 229.954 148.313C228.214 148.306 226.552 148.693 224.975 149.422C218.75 152.292 219.089 158.426 222.772 162.307C224.57 164.205 226.975 165.301 229.439 166.122C236.849 168.591 244.559 169.274 252.276 169.885C254.433 170.056 256.603 170.049 258.767 170.148C264.489 170.424 270.199 170.437 275.921 170.141C277.863 170.043 279.818 170.01 281.754 170.148C284.211 170.325 286.674 170.614 289.132 170.496C292.775 170.319 296.431 170.168 300.061 169.701C305.946 168.94 311.74 167.836 317.378 165.925C318.851 165.426 320.285 164.815 321.894 164.697C323.446 164.586 325.003 164.421 326.554 164.251C328.536 164.041 330.497 164.008 332.459 164.369C333.248 164.513 333.391 164.927 332.824 165.492C332.179 166.122 331.442 166.628 330.673 167.101C327.16 169.248 323.146 170.043 319.307 171.146C310.913 173.569 302.218 174.338 293.537 174.981C288.434 175.362 283.318 175.566 278.202 175.651C271.483 175.769 264.757 175.723 258.057 175.034C255.398 174.758 252.732 174.522 250.08 174.154C247.544 173.799 244.989 173.543 242.448 173.208C239.828 172.873 237.201 172.637 234.555 172.486C231.583 172.308 228.67 172.466 225.848 173.451C224.492 173.924 223.287 174.778 222.954 176.222C222.498 178.225 223.072 180.74 225.066 182.139C226.78 183.341 228.709 184.017 230.703 184.549C231.081 184.654 231.616 184.733 231.107 185.213C229.882 186.362 229.713 187.721 230.13 189.232C230.325 189.928 230.052 190.164 229.413 190.433C225.607 192.049 224.975 195.175 226.917 198.767C228.175 201.098 230.527 201.932 232.9 202.576C236.536 203.574 240.251 204.014 244.018 204.185C248.828 204.395 253.631 204.868 258.454 204.408C259.256 204.336 260.097 204.283 260.905 204.507C267.957 206.45 275.191 207.206 282.445 207.225C298.106 207.278 313.78 207.705 329.422 206.418C333.026 206.122 336.617 205.794 340.137 205.012C343.356 204.296 346.563 203.397 348.772 200.645C351.053 197.802 350.701 196.383 347.788 194.564ZM230.456 145.206C229.328 144.149 229.406 143.42 230.742 142.671C233.916 140.898 237.41 140.091 240.936 139.441C245.4 138.62 249.903 138.193 254.427 137.818C262.899 137.122 271.378 137.352 279.857 137.451C283.65 137.49 287.45 137.766 291.23 138.107C298.438 138.764 305.666 139.335 312.698 141.207C314.504 141.686 316.302 142.231 317.912 143.21C318.89 143.808 318.857 144.024 317.815 144.622C315.749 145.81 313.409 146.224 311.173 146.927C306.709 148.332 302.062 148.588 297.48 149.206C296.6 149.324 295.727 149.462 294.717 149.613C295.519 147.406 295.382 147.025 293.29 146.093C291.165 145.141 288.864 144.806 286.609 144.346C280.828 143.177 274.982 142.442 269.084 142.56C263.603 142.665 258.174 143.368 252.928 145.128C251.168 145.719 250.021 146.704 250.001 148.687C249.995 149.317 249.571 149.219 249.226 149.166C243.947 148.339 238.648 147.597 233.467 146.257C232.443 146.001 231.303 146.001 230.456 145.206ZM257.262 166.306C254.994 166.227 252.719 166.044 250.451 165.906C246.703 165.689 242.969 165.262 239.261 164.684C236.028 164.178 232.789 163.64 229.765 162.333C227.751 161.46 225.704 160.573 224.368 158.669C224.043 158.202 223.814 157.697 223.678 157.139C223.293 155.602 223.573 154.899 224.922 154.164C228.077 152.437 231.355 152.483 234.672 153.527C238.791 154.827 242.63 156.784 246.436 158.794C251.539 161.486 256.792 163.811 262.221 165.748C262.541 165.866 262.99 165.814 263.199 166.326C261.192 166.313 259.223 166.372 257.262 166.306ZM326.691 156.784C323.784 158.426 320.793 159.956 317.528 160.645C313.5 161.499 309.42 162.097 305.353 162.773C301.697 163.377 298.034 163.975 294.365 164.513C290.155 165.137 285.958 165.295 281.689 164.855C273.138 163.981 265.141 161.263 257.242 158.084C252.172 156.042 247.381 153.409 242.363 151.248C242.031 151.104 241.698 150.952 241.359 150.808C245.263 151.452 249.193 152.148 253.149 152.706C255.43 153.028 257.737 153.159 260.018 153.448C263.753 153.927 267.513 154.039 271.261 154.275C274.096 154.453 276.944 154.302 279.792 154.335C285.501 154.394 291.178 153.967 296.842 153.251C301.045 152.712 305.269 152.351 309.479 151.872C313.402 151.425 317.339 151.176 321.275 150.933C324.306 150.749 327.33 150.841 330.354 150.782C331.24 150.762 332.14 150.887 333.013 151.031C333.613 151.123 333.893 151.386 333.287 151.957C331.299 153.855 329.077 155.438 326.691 156.784ZM312.333 177.378C315.82 176.347 319.457 175.894 322.95 174.83C325.31 174.114 327.604 173.254 329.898 172.348C333.385 170.956 336.793 171.488 339.935 173.464C341.284 174.318 341.192 175.185 339.837 176.38C338.26 177.772 336.357 178.567 334.421 179.25C329.487 181.003 324.345 181.883 319.209 182.783C315.768 183.387 312.327 183.971 308.873 184.471C306.481 184.812 304.076 185.035 301.665 185.272C298.145 185.613 294.645 185.344 291.139 185.213C288.265 185.101 285.391 184.766 282.516 184.53C282.51 184.444 282.51 184.352 282.497 184.267C284.224 183.926 285.951 183.591 287.672 183.236C295.962 181.548 304.213 179.769 312.333 177.378ZM299.501 189.521C295.219 190.355 290.891 190.906 286.583 191.524C279.518 192.548 272.408 192.666 265.311 193.067C262.775 193.211 260.475 192.331 258.083 191.845C254.042 191.024 249.982 190.381 245.889 189.895C242.291 189.475 238.7 189.166 235.076 189.251C234.692 189.265 234.32 189.212 234.021 188.956C233.617 188.614 233.558 188.273 234.132 188.036C237.416 186.671 240.825 186.007 244.383 186.434C244.644 186.467 244.898 186.565 245.152 186.559C248.998 186.513 252.843 186.973 256.695 186.789C258.031 186.73 259.373 186.611 260.716 186.546C264.392 186.368 267.983 187.045 271.593 187.511C274.35 187.872 277.1 188.26 279.857 188.601C285.117 189.251 290.389 189.508 295.688 189.514H299.501V189.521ZM227.862 179.329C227.249 178.974 226.389 178.58 226.48 177.858C226.578 177.142 227.549 177.188 228.175 177.05C231.453 176.347 234.744 176.623 238.055 176.958C242.265 177.391 246.436 178.094 250.627 178.606C255.763 179.237 260.892 179.723 266.06 179.979C270.551 180.202 275.028 180.143 279.512 180.084C281.663 180.058 283.82 179.874 286.003 180.169C283.722 180.603 281.441 181.089 279.147 181.456C275.993 181.955 272.838 182.435 269.638 182.638C268.283 182.724 266.973 182.441 265.656 182.29C262.547 181.923 259.445 181.575 256.323 181.496C254.492 181.45 252.68 181.161 250.842 181.246C247.153 181.41 243.471 181.522 239.815 182.1C237.905 182.402 236.048 181.824 234.184 181.476C231.974 181.069 229.824 180.471 227.862 179.329ZM261.368 200.343C259.256 200.245 257.164 199.864 255.059 199.739C254.44 199.699 253.397 199.161 253.234 200.501C253.227 200.56 252.823 200.599 252.602 200.593C246.306 200.553 240.017 200.402 233.864 198.826C232.574 198.491 231.427 197.894 230.371 197.112C229.804 196.692 229.432 196.081 229.498 195.378C229.556 194.728 230.254 194.715 230.723 194.571C232.626 193.947 234.503 193.71 236.51 194.367C239.528 195.346 242.682 195.661 245.837 195.95C249.884 196.318 253.957 196.298 257.998 196.666C260.722 196.915 263.329 197.999 265.975 198.747C267.044 199.049 268.113 199.351 269.182 199.654C266.568 200.034 263.975 200.468 261.368 200.343ZM276.462 196.153C280.744 195.963 284.993 195.451 289.229 194.86C294.196 194.163 299.162 193.487 304.135 192.817C307.993 192.298 311.845 191.675 315.729 191.32C319.998 190.933 324.293 190.782 328.575 191.274C329.148 191.34 329.728 191.484 330.282 192.003C328.066 192.587 325.961 192.364 323.882 192.561C320.474 192.889 317.065 193.152 313.65 193.461C310.163 193.776 306.696 194.118 303.261 194.801C299.357 195.575 295.466 196.416 291.55 197.119C288.812 197.611 286.062 198.261 283.259 198.117C280.6 197.986 278.019 197.303 275.386 196.606C275.719 196.075 276.116 196.166 276.462 196.153ZM322.07 196.954C320.617 198.399 310.033 199.516 304.03 198.892C309.948 197.729 315.964 197.486 322.07 196.954ZM345.266 198.99C343.747 199.988 342.059 200.579 340.319 201.052C337.191 201.906 333.997 202.313 330.771 202.622C317.73 203.87 304.656 203.764 291.589 203.686C288.187 203.666 284.785 203.568 281.382 203.462C280.014 203.423 278.632 203.285 277.035 203.226C278.945 202.687 280.672 202.727 282.347 202.418C283.448 202.215 284.582 202.536 285.677 202.648C289.998 203.108 294.326 203.108 298.654 203.036C303.542 202.957 308.436 202.839 313.324 202.576C317.567 202.339 321.751 201.676 325.694 199.923C326.998 199.338 328.353 198.747 329.363 197.782C330.81 196.396 332.466 196.232 334.238 196.383C337.126 196.633 340.045 196.613 342.893 197.27C343.656 197.447 344.405 197.67 345.142 197.933C345.39 198.018 345.82 198.077 345.774 198.445C345.761 198.649 345.474 198.852 345.266 198.99Z" fill="white"/>
<path d="M349.911 108.554C349.159 103.709 347.486 99.2542 343.571 95.8115C339.959 92.6339 335.879 90.6311 331.162 89.9988C327.526 89.5134 323.894 89.8316 320.295 90.6433C315.82 91.6549 312.595 94.2778 310.565 98.2304C308.412 102.415 307.615 106.935 308.441 111.606C309.02 114.869 310.24 117.904 312.435 120.49C315.29 123.855 319.189 125.691 323.121 127.294C325.735 128.358 328.603 128.962 331.52 128.958C335.053 128.84 338.624 129.035 341.886 127.163C343.538 126.217 345.227 125.332 346.348 123.765C347.503 122.146 348.97 120.706 349.52 118.703C350.445 115.35 350.432 111.912 349.911 108.554ZM334.688 96.4234C335.255 96.6967 335.817 96.9822 336.376 97.2718C336.537 97.3574 336.73 97.4309 336.75 97.7001C336.693 97.7735 336.623 97.8714 336.537 97.9571C334.938 99.5683 333.693 101.453 332.313 103.235C332.074 103.541 331.914 103.998 331.388 103.513C331.031 103.182 330.456 103.027 330.903 102.362C332.095 100.588 333.019 98.6668 333.862 96.713C334.084 96.1908 334.322 96.2439 334.688 96.4234ZM327.403 94.9345C327.419 94.6 327.551 94.3756 327.916 94.4164C329.35 94.5796 330.751 94.8978 332.095 95.424C332.21 95.4688 332.329 95.5219 332.288 95.7217C332.247 95.8033 332.198 95.9175 332.136 96.0277C331.162 97.8143 330.283 99.6417 329.609 101.559C329.432 102.061 329.256 102.207 328.738 101.938C328.085 101.604 327.337 101.587 326.614 101.575C326.133 101.567 325.936 101.469 326.108 100.927C326.737 98.9728 327.312 97.0066 327.403 94.9345ZM311.946 112.581C311.477 111.104 311.255 109.603 311.399 108.142C311.494 106.172 311.51 106.115 313.314 106.597C314.924 107.029 316.584 107.18 318.195 107.592C318.569 107.686 318.832 107.788 318.668 108.183C318.306 109.064 318.199 109.99 318.064 110.916C317.985 111.459 317.743 111.752 317.127 111.887C315.689 112.201 314.263 112.589 312.874 113.062C312.258 113.274 312.106 113.078 311.946 112.581ZM312.989 115.224C312.743 114.636 312.845 114.428 313.421 114.233C314.641 113.816 315.869 113.396 317.036 112.854C317.981 112.413 317.99 113.013 317.985 113.572C317.973 115.326 318.253 117.039 318.61 118.744C318.82 119.743 319.132 120.722 319.448 121.901C316.58 120.192 314.255 118.226 312.989 115.224ZM321.235 103.741C320.438 104.341 319.978 105.206 319.502 106.054C319.358 106.307 319.272 106.694 318.885 106.511C316.987 105.964 315.15 105.446 313.326 104.904C311.588 104.39 311.58 104.378 312.065 102.628C312.467 101.175 313.133 99.8334 313.86 98.52C314.082 98.1202 314.292 97.9 314.772 98.3324C316.683 100.062 319.009 101.208 321.112 102.668C321.659 103.048 321.848 103.28 321.235 103.741ZM321.77 101.538C320.052 99.9436 318.146 98.5567 316.227 97.1984C315.972 97.0189 315.767 96.7741 315.496 96.5212C317.098 95.3138 318.7 94.3267 320.603 93.98C322.357 93.6618 324.112 93.9514 325.862 94.1187C326.145 94.1472 326.24 94.3104 326.178 94.5714C325.665 96.7864 325.246 99.0176 325.073 101.29C325.053 101.547 324.95 101.689 324.683 101.73C324.531 101.755 324.375 101.812 324.239 101.889C323.319 102.424 322.62 102.326 321.77 101.538ZM332.978 122.97C331.138 122.778 329.691 121.97 328.34 120.902C326.754 119.649 325.348 118.254 324.35 116.472C323.914 115.701 323.84 114.881 323.771 114.049C323.734 113.588 324.128 113.547 324.407 113.539C325.525 113.498 326.556 113.119 327.596 112.784C327.99 112.658 328.29 112.576 328.496 113.09C329.724 116.215 331.347 119.16 332.785 122.191C332.892 122.415 333.052 122.623 332.978 122.97ZM342.613 120.816C340.879 122.036 339.035 123.051 336.865 123.276C336.491 123.317 336.109 123.296 335.731 123.304C334.774 123.48 334.429 122.99 334.141 122.138C333.13 119.144 332.103 116.15 330.792 113.266C330.086 111.716 330.09 111.744 331.655 110.945C332.07 110.733 332.391 110.839 332.724 110.973C336.717 112.572 340.785 113.931 344.98 114.901C345.49 115.02 345.613 115.322 345.646 115.852C345.794 118.226 344.335 119.609 342.613 120.816Z" fill="white"/>
<path d="M201.261 71.8961C199.306 61.5813 195.517 51.9627 190.578 42.7436C182.987 28.5791 172.86 16.642 159.712 7.34426C156.558 5.11666 153.701 6.26676 152.727 10.1651C152.127 12.5864 151.776 15.0682 151.365 17.5319C149.748 27.1626 148.283 36.8235 146.516 46.424C144.506 57.3622 143.332 68.3731 142.63 82.5679C142.012 87.4711 143.61 95.1466 145.856 102.755C147.805 109.366 150.729 115.401 156.716 119.22C164.161 123.972 172.739 125.921 181.225 125.068C190.638 124.123 196.8 117.453 200.148 108.869C204.869 96.781 203.61 84.3113 201.261 71.8961ZM192.859 92.8887C192.206 100.189 190.039 106.866 183.132 111.188C179.264 113.609 175.305 113.736 171.189 113.324C167 112.913 163.035 111.545 159.337 109.438C156.97 108.094 156.074 105.818 155.257 103.488C152.26 94.965 150.771 86.2241 151.552 79.8379C152.043 66.5934 153.059 56.0971 154.76 45.6553C156.292 36.2667 157.587 26.8357 158.961 17.4229C159.234 15.5525 160.178 16.3394 160.874 16.9508C165.644 21.1093 170.178 25.5161 173.901 30.6432C181.268 40.7945 187.109 51.7206 190.335 63.9481C192.847 73.4699 193.731 83.149 192.859 92.8887Z" fill="white"/>
<path d="M189 74.9358C186.47 59.5666 177.863 47.2785 167.99 35.747C166.797 34.3487 165.369 33.5921 163.631 34.3366C162.1 34.9964 161.422 36.4008 161.41 38.0896C161.343 46.7216 159.527 55.1598 158.407 63.6646C157.185 72.9321 155.248 82.0483 155.938 91.5579C156.64 101.201 164.358 108.646 172.524 108.731C177.766 109.591 180.78 105.614 182.881 102.387C188.226 94.173 190.617 84.7541 189 74.9358ZM177.572 97.2964C176.283 99.5059 173.74 100.438 171.597 101.637C170.296 102.363 166.519 99.5362 165.284 97.3388C164.188 95.3897 163.649 93.3134 163.516 91.0858C163.28 87.0483 162.415 83.0652 163.171 78.9672C163.934 74.8631 163.831 70.644 164.11 66.5036C164.654 58.3922 166.198 50.3596 165.944 41.3281C174.66 51.1646 181.319 61.2675 183.256 73.598C184.582 82.0301 181.827 89.9841 177.572 97.2964Z" fill="white"/>
<path d="M174.881 65.0068C174.046 63.669 173.338 62.1557 171.461 62.4826C169.306 62.8518 168.047 64.4801 167.847 66.4838C167.515 69.7465 166.546 72.9668 166.976 75.6786C166.927 77.761 166.776 79.2259 166.879 80.6786C167.254 85.8299 168.616 89.7343 172.817 91.2416C173.531 91.4958 174.488 92.1616 174.893 91.296C175.941 89.0684 178.108 87.3977 178.428 84.8735C179.306 77.9062 178.725 71.1629 174.881 65.0068ZM172.714 87.1677C171.28 82.0951 172.502 77.4159 173.089 72.0467C174.978 77.4522 175.947 82.1617 172.714 87.1677Z" fill="white"/>
<path d="M741.781 199.504C748.712 198.19 755.175 195.644 761.37 192.325C770.889 187.224 778.91 180.419 785.158 171.584C786.655 169.465 785.882 167.545 783.262 166.89C781.635 166.487 779.967 166.252 778.312 165.975C771.84 164.889 765.349 163.905 758.897 162.717C751.547 161.366 744.148 160.577 734.61 160.105C731.315 159.691 726.157 160.764 721.044 162.273C716.602 163.583 712.547 165.548 709.98 169.571C706.787 174.574 705.477 180.338 706.051 186.04C706.686 192.366 711.168 196.506 716.936 198.756C725.059 201.928 733.438 201.082 741.781 199.504ZM727.674 193.858C722.769 193.419 718.282 191.963 715.378 187.322C713.751 184.723 713.666 182.062 713.942 179.296C714.219 176.482 715.138 173.817 716.554 171.332C717.457 169.742 718.986 169.14 720.552 168.59C726.279 166.577 732.153 165.576 736.444 166.101C745.344 166.431 752.397 167.114 759.414 168.257C765.723 169.286 772.06 170.156 778.385 171.08C779.642 171.263 779.113 171.897 778.702 172.365C775.908 175.57 772.947 178.617 769.502 181.119C762.68 186.069 755.338 189.994 747.122 192.162C740.723 193.85 734.219 194.444 727.674 193.858Z" fill="white"/>
<path d="M739.737 191.264C750.065 189.563 758.322 183.779 766.071 177.145C767.011 176.344 767.519 175.384 767.019 174.216C766.575 173.187 765.632 172.732 764.497 172.724C758.697 172.679 753.026 171.458 747.311 170.706C741.084 169.884 734.958 168.583 728.568 169.046C722.088 169.518 717.085 174.704 717.028 180.192C716.45 183.714 719.123 185.74 721.291 187.151C726.811 190.743 733.14 192.35 739.737 191.264ZM724.712 183.584C723.227 182.718 722.601 181.009 721.795 179.569C721.307 178.695 723.207 176.157 724.683 175.327C725.993 174.591 727.388 174.229 728.885 174.139C731.598 173.98 734.275 173.399 737.028 173.907C739.786 174.42 742.621 174.351 745.404 174.538C750.854 174.904 756.252 175.941 762.321 175.77C755.711 181.628 748.922 186.102 740.636 187.404C734.97 188.294 729.625 186.444 724.712 183.584Z" fill="white"/>
<path d="M746.414 181.782C747.313 181.22 748.33 180.745 748.11 179.484C747.862 178.036 746.768 177.19 745.422 177.055C743.229 176.832 741.065 176.181 739.243 176.47C737.844 176.437 736.859 176.335 735.883 176.404C732.422 176.657 729.798 177.572 728.785 180.395C728.614 180.875 728.167 181.517 728.749 181.79C730.245 182.494 731.368 183.95 733.064 184.165C737.746 184.755 742.277 184.365 746.414 181.782ZM731.523 180.326C734.931 179.362 738.076 180.183 741.684 180.578C738.051 181.847 734.887 182.498 731.523 180.326Z" fill="white"/>
<path d="M961.789 37.4371C962.018 37.8529 961.807 38.323 961.645 38.7207C961.289 39.6066 960.837 40.4623 960.126 41.1011C959.433 41.7158 958.957 42.6861 957.691 42.433C956.384 42.1618 955.926 41.2699 955.648 40.1068C955.269 39.2872 955.227 38.3772 955.522 37.5094C955.847 36.5572 956.396 35.6894 957.559 35.6171C959.27 35.5086 960.855 35.7678 961.789 37.4371Z" fill="white"/>
<path d="M966.404 28.1498C964.945 26.595 963.282 25.691 961.137 25.8899C959.889 26.0044 958.684 25.7995 957.454 25.6971C954.773 25.4861 952.109 25.0101 949.463 26.4022C945.504 28.4813 943.051 31.4161 943.28 36.0203C943.54 41.1849 945.143 45.9397 948.373 50.0437C951.012 53.3884 954.423 54.5816 959.1 53.1051C961.504 52.2193 964.276 50.9477 966.488 48.6396C969.513 45.4818 971.918 42.0467 971.165 37.4003C970.586 33.8508 968.887 30.7894 966.404 28.1498ZM967.82 38.9853C967.41 42.577 964.915 44.8188 961.89 46.5545C960.172 47.5368 958.256 47.6754 956.43 48.1816C954.779 48.6396 953.543 47.6332 952.621 46.5665C950.259 43.8245 948.909 40.528 948.059 37.0388C947.909 36.4361 947.879 35.6286 948.451 35.1947C950.259 33.8327 952.025 32.3984 953.598 31.5186C955.912 30.8316 957.864 31.3197 959.69 30.7291C959.974 30.6387 960.353 30.7171 960.564 30.5604C962.131 29.3611 963.348 30.1687 964.367 31.3016C966.319 33.4832 968.169 35.9058 967.82 38.9853Z" fill="white"/>
<path d="M961.645 38.7207C961.289 39.6066 960.837 40.4623 960.126 41.1011C959.433 41.7158 958.957 42.6861 957.691 42.433C956.384 42.1618 955.926 41.2699 955.648 40.1068C955.269 39.2872 955.227 38.3772 955.522 37.5094C955.847 36.5572 956.396 35.6894 957.559 35.6171C959.264 35.5086 960.849 35.7678 961.789 37.4371C962.018 37.8529 961.807 38.323 961.645 38.7207Z" fill="white"/>
<path d="M961.645 38.7207C961.289 39.6066 960.837 40.4623 960.126 41.1011C959.433 41.7158 958.957 42.6861 957.691 42.433C956.384 42.1618 955.926 41.2699 955.648 40.1068C955.269 39.2872 955.227 38.3772 955.522 37.5094C955.847 36.5572 956.396 35.6894 957.559 35.6171C959.264 35.5086 960.849 35.7678 961.789 37.4371C962.018 37.8529 961.807 38.323 961.645 38.7207Z" fill="white"/>
<path d="M943.381 89.38C943.84 90.2125 943.418 91.1537 943.092 91.95C942.38 93.7236 941.475 95.4369 940.051 96.7158C938.664 97.9465 937.711 99.889 935.177 99.3823C932.559 98.8393 931.642 97.0537 931.087 94.725C930.327 93.0841 930.242 91.2622 930.833 89.5248C931.485 87.6185 932.583 85.881 934.911 85.7362C938.338 85.519 941.511 86.0379 943.381 89.38Z" fill="white"/>
<path d="M952.614 70.7838C949.694 67.671 946.364 65.8611 942.069 66.2593C939.571 66.4885 937.158 66.0783 934.697 65.8732C929.328 65.4509 923.995 64.4977 918.698 67.2849C910.771 71.4475 905.86 77.3233 906.319 86.5414C906.837 96.8815 910.047 106.401 916.514 114.618C921.799 121.314 928.628 123.703 937.991 120.747C942.805 118.973 948.355 116.428 952.783 111.806C958.84 105.484 963.654 98.6069 962.146 89.3044C960.987 82.1978 957.585 76.0685 952.614 70.7838ZM955.449 92.4776C954.629 99.6686 949.634 104.157 943.577 107.632C940.138 109.599 936.301 109.876 932.646 110.889C929.34 111.806 926.866 109.792 925.02 107.656C920.29 102.166 917.588 95.5663 915.887 88.5804C915.585 87.3739 915.525 85.7571 916.671 84.8884C920.29 82.1616 923.826 79.29 926.975 77.5284C931.608 76.153 935.517 77.1303 939.173 75.9479C939.74 75.7669 940.5 75.9237 940.922 75.61C944.059 73.209 946.497 74.8258 948.536 77.0941C952.445 81.4618 956.149 86.3121 955.449 92.4776Z" fill="white"/>
<path d="M943.092 91.95C942.38 93.7236 941.475 95.4369 940.051 96.7158C938.664 97.9465 937.711 99.889 935.177 99.3823C932.559 98.8393 931.642 97.0537 931.087 94.725C930.327 93.0841 930.242 91.2622 930.833 89.5248C931.485 87.6185 932.583 85.881 934.911 85.7362C938.326 85.519 941.499 86.0379 943.381 89.38C943.84 90.2125 943.418 91.1537 943.092 91.95Z" fill="white"/>
<path d="M943.092 91.95C942.38 93.7236 941.475 95.4369 940.051 96.7158C938.664 97.9465 937.711 99.889 935.177 99.3823C932.559 98.8393 931.642 97.0537 931.087 94.725C930.327 93.0841 930.242 91.2622 930.833 89.5248C931.485 87.6185 932.583 85.881 934.911 85.7362C938.326 85.519 941.499 86.0379 943.381 89.38C943.84 90.2125 943.418 91.1537 943.092 91.95Z" fill="white"/>
<path d="M994.719 75.8716C994.961 76.3128 994.738 76.8115 994.565 77.2335C994.188 78.1734 993.708 79.0814 992.954 79.7591C992.219 80.4113 991.713 81.4407 990.371 81.1722C988.983 80.8844 988.497 79.9381 988.203 78.7041C987.8 77.8346 987.756 76.8691 988.069 75.9484C988.414 74.9381 988.996 74.0174 990.23 73.9407C992.046 73.8256 993.727 74.1005 994.719 75.8716Z" fill="white"/>
<path d="M999.611 66.0179C998.064 64.3682 996.299 63.4092 994.023 63.6202C992.7 63.7416 991.421 63.5242 990.117 63.4155C987.271 63.1918 984.445 62.6867 981.638 64.1636C977.438 66.3695 974.835 69.4833 975.078 74.3683C975.353 79.8478 977.054 84.8926 980.481 89.2468C983.282 92.7954 986.9 94.0614 991.862 92.4949C994.413 91.555 997.354 90.2059 999.701 87.757C1002.91 84.4066 1005.46 80.7621 1004.66 75.8325C1004.05 72.0665 1002.25 68.8184 999.611 66.0179ZM1001.11 77.514C1000.68 81.3248 998.032 83.7033 994.822 85.5448C993 86.587 990.967 86.734 989.03 87.2711C987.278 87.757 985.967 86.6892 984.989 85.5575C982.482 82.6483 981.05 79.1509 980.148 75.4488C979.989 74.8094 979.957 73.9527 980.564 73.4923C982.482 72.0473 984.356 70.5255 986.024 69.592C988.48 68.8631 990.551 69.381 992.489 68.7544C992.789 68.6585 993.192 68.7416 993.416 68.5754C995.078 67.303 996.37 68.1598 997.45 69.3618C999.522 71.6764 1001.48 74.2468 1001.11 77.514Z" fill="white"/>
<path d="M994.565 77.2335C994.188 78.1734 993.708 79.0814 992.954 79.7591C992.219 80.4113 991.713 81.4407 990.371 81.1722C988.983 80.8844 988.497 79.9381 988.203 78.7041C987.8 77.8346 987.756 76.8691 988.069 75.9484C988.414 74.9381 988.996 74.0174 990.23 73.9407C992.039 73.8256 993.721 74.1005 994.719 75.8716C994.961 76.3128 994.738 76.8115 994.565 77.2335Z" fill="white"/>
<path d="M994.565 77.2335C994.188 78.1734 993.708 79.0814 992.954 79.7591C992.219 80.4113 991.713 81.4407 990.371 81.1722C988.983 80.8844 988.497 79.9381 988.203 78.7041C987.8 77.8346 987.756 76.8691 988.069 75.9484C988.414 74.9381 988.996 74.0174 990.23 73.9407C992.039 73.8256 993.721 74.1005 994.719 75.8716C994.961 76.3128 994.738 76.8115 994.565 77.2335Z" fill="white"/>
<path d="M629.466 161.996C629.294 161.462 629.054 161.092 628.641 160.78C627.062 159.581 625.32 158.749 623.497 158.08C623.243 157.989 622.703 158.053 622.816 157.564C622.903 157.175 623.37 157.279 623.683 157.302C624.88 157.388 626.06 157.6 627.212 158.012C627.452 158.098 627.756 158.446 627.988 158.107C628.155 157.872 627.901 157.587 627.788 157.347C626.15 153.811 623.973 150.672 621.633 147.642C621.061 146.91 620.617 146.896 619.836 147.186C617.428 148.09 615.237 149.483 612.892 150.51C612.669 150.605 612.397 150.948 612.125 150.473C614.23 148.664 616.43 147.018 618.834 145.716C619.555 145.327 619.582 145.056 619.02 144.486C616.393 141.827 613.599 139.407 610.515 137.372C609.712 136.843 609.158 136.916 608.419 137.454C607.535 138.096 606.718 138.91 605.552 139.091C606.224 138.2 606.959 137.386 607.725 136.608C608.115 136.215 608.247 135.975 607.648 135.649C603.924 133.651 600.182 131.711 596.253 130.191C589.35 127.514 582.151 125.619 575.81 121.45C575.324 121.133 575.156 121.255 575.07 121.852C574.943 122.775 574.753 123.688 574.512 124.583C574.245 125.592 574.326 126.691 573.768 127.731C573.415 127.283 573.374 126.858 573.374 126.41C573.378 124.534 573.374 122.661 573.374 120.785C573.374 120.364 573.369 119.998 572.934 119.727C570.153 118.031 567.241 116.656 564.27 115.394C563.635 115.123 563.535 115.43 563.549 116C563.567 116.692 563.621 117.398 563.531 118.08C563.44 118.763 563.549 119.555 562.868 120.305C562.723 118.596 562.451 117.144 562.27 115.688C562.156 114.788 561.771 114.467 561.036 114.232C557.575 113.129 554.078 112.224 550.462 112.007C548.131 111.867 545.799 111.926 543.445 112.708C544.647 114.517 546.18 116.005 546.82 118.135C545.958 117 545.078 115.883 544.239 114.725C542.928 112.921 542.692 112.844 540.655 113.572C540.061 113.784 539.512 114.083 539.004 114.454C537.594 115.485 536.532 116.896 535.394 118.23C532.087 122.101 531.261 126.397 533.157 131.285C533.484 132.136 533.924 132.375 534.695 132.244C535.879 132.041 537.058 131.801 538.251 131.683C539.199 131.593 540.17 131.548 541.154 131.747C541.027 132.145 540.764 132.181 540.524 132.249C538.791 132.71 537.076 133.23 535.33 133.601C534.3 133.818 534.441 134.211 534.827 134.989C536.836 139.028 539.494 142.568 542.288 146.001C542.642 146.435 542.91 146.431 543.363 146.128C544.692 145.246 545.904 144.201 547.092 143.12C547.251 142.98 547.391 142.654 547.641 142.853C547.881 143.048 547.668 143.306 547.577 143.509C546.897 144.965 545.895 146.141 544.779 147.208C544.225 147.737 544.171 148.072 544.742 148.674C547.496 151.568 550.58 153.969 553.887 156.09C554.79 156.669 555.343 156.524 555.964 155.814C556.164 155.588 556.377 155.371 556.59 155.154C557.575 154.123 558.559 153.092 559.543 152.061C558.963 154.164 557.593 155.715 556.314 157.392C556.618 157.569 556.867 157.723 557.121 157.867C561.807 160.531 566.878 162.1 571.89 163.823C573.832 164.488 573.832 164.443 574.78 162.466C575.193 161.603 575.605 160.73 576.095 159.907C576.535 159.165 576.844 158.31 577.588 157.628C577.638 158.102 577.529 158.405 577.42 158.722C576.835 160.413 576.322 162.141 575.669 163.8C575.297 164.732 575.488 165.094 576.381 165.279C577.048 165.415 577.697 165.677 578.341 165.912C582.033 167.269 585.78 168.495 589.177 170.607C589.948 171.09 590.484 171.244 590.951 170.254C591.123 169.892 591.409 169.584 591.681 169.286C592.298 168.594 592.938 167.929 593.573 167.246C593.645 167.328 593.718 167.405 593.79 167.482C593.056 168.739 592.316 169.991 591.577 171.244C591.327 171.665 591.219 171.945 591.745 172.325C593.736 173.777 595.432 175.613 597.256 177.286C600.213 180.013 603.652 181.6 607.489 182.292C608.034 182.387 608.342 182.287 608.505 181.582C608.945 179.656 609.571 177.792 610.651 176.146C610.782 175.943 610.86 175.54 611.191 175.658C611.558 175.784 611.336 176.128 611.304 176.377C611.082 178.086 610.746 179.778 610.605 181.505C610.51 182.681 610.556 182.907 611.671 182.903C614.203 182.893 616.752 183.097 619.26 182.518C620.48 182.233 620.512 182.233 620.249 180.89C619.963 179.434 619.696 177.969 619.419 176.504C619.755 176.445 619.859 176.571 619.927 176.739C620.476 178.145 621.165 179.497 621.515 180.985C621.664 181.641 621.905 181.817 622.531 181.55C628.976 178.823 630.464 173.944 630.496 168.499C630.519 166.315 630.142 164.113 629.466 161.996ZM589.2 148.004C587.789 148.588 586.315 148.814 584.791 148.714C580.264 148.502 576 147.38 572.303 144.432C571.582 143.857 570.92 143.152 570.344 142.406C569.26 140.995 569.296 139.48 570.035 137.847C570.793 136.174 572.045 135.387 573.678 135.374C579.234 135.346 584.337 136.902 588.765 140.606C589.586 141.289 590.284 142.13 590.847 143.07C592.117 145.182 591.482 147.059 589.2 148.004Z" fill="white"/>
<path d="M584.103 180.129C582.541 178.191 580.654 176.62 578.708 175.195C577.269 174.137 576.015 172.757 574.313 172.113C571.131 170.905 567.977 169.625 564.872 168.191C557.178 164.645 549.71 160.669 542.957 155.299C540.722 153.52 538.472 151.745 537.096 148.998C536.435 147.687 535.399 146.738 533.973 146.357C530.271 145.362 526.99 146.266 524.306 149.116C520.685 152.961 518.83 157.669 518.87 163.17C518.884 164.836 518.495 165.099 520.468 164.568C521.663 164.246 522.898 164.096 524.197 164.409C523.881 164.913 523.446 164.909 523.098 165.054C521.98 165.522 520.848 165.966 519.726 166.411C519.237 166.602 519.047 166.847 519.183 167.501C519.776 170.515 521.147 173.152 522.536 175.794C522.767 176.225 523.03 176.28 523.414 176.03C524.084 175.599 524.763 175.181 525.447 174.791C526.777 174.028 528.035 173.12 529.542 172.53C529.529 173.048 529.244 173.252 529.004 173.452C527.515 174.677 526.021 175.898 524.505 177.092C523.903 177.564 523.79 177.914 524.288 178.658C527.506 183.479 531.339 187.655 535.63 191.373C536.11 191.786 536.413 191.886 536.816 191.169C538.264 188.563 539.889 186.089 541.803 183.847C541.916 183.711 541.993 183.416 542.242 183.547C542.536 183.706 542.378 183.974 542.301 184.187C542.197 184.478 542.066 184.759 541.935 185.041C540.749 187.56 539.595 190.097 538.622 192.726C538.409 193.289 538.468 193.565 538.929 193.91C543.075 196.984 547.741 198.768 552.525 200.27C553.014 200.424 553.281 200.211 553.498 199.716C554.082 198.391 554.72 197.097 555.354 195.803C555.648 195.204 555.897 194.573 556.408 194.006C556.54 194.419 556.485 194.705 556.418 195.014C556.064 196.643 555.585 198.232 555.024 199.784C554.689 200.715 554.974 200.983 555.793 201.137C557.712 201.5 559.617 201.85 561.564 202C564.718 202.236 567.859 202.213 571.009 201.936C571.385 201.904 571.475 201.7 571.516 201.332C571.693 199.748 571.887 198.173 572.091 196.598C572.304 194.936 572.462 193.266 573.01 191.545C573.426 192.14 573.444 192.68 573.44 193.23C573.435 195.708 573.462 198.182 573.431 200.66C573.421 201.319 573.566 201.482 574.186 201.346C576.82 200.774 579.31 199.839 581.573 198.264C581.957 197.996 582.039 197.746 581.921 197.238C581.55 195.681 581.414 194.088 581.5 192.485C581.514 192.226 581.383 191.822 581.731 191.782C582.071 191.736 582.03 192.131 582.093 192.394C582.424 193.702 582.754 195 583.116 196.294C583.179 196.525 583.247 197.024 583.682 196.607C585.895 194.496 587.493 191.963 587.606 188.717C587.728 185.308 586.094 182.612 584.103 180.129ZM558.441 181.913C553.806 181.709 550.579 180.079 548.284 176.688C547.348 175.304 546.755 173.71 547.488 171.908C547.854 171.014 548.438 170.742 549.271 170.946C551.561 171.518 553.575 172.707 555.367 174.287C556.39 175.19 557.608 175.826 558.481 176.942C558.948 177.533 559.359 178.141 559.617 178.858C560.283 180.71 559.518 181.913 558.441 181.913Z" fill="white"/>
<path d="M695.422 67.6177C694.416 79.0443 693.507 90.1267 692.449 101.201C692.012 105.746 691.276 106.276 687.765 106.375C679.588 106.612 671.438 106.456 663.276 106.278C656.475 106.126 649.666 105.972 642.868 105.786C634.948 105.572 627.041 105.305 619.128 105.031C611.643 104.774 604.149 104.658 596.663 104.34C587.834 103.963 578.982 103.878 570.13 103.99C563.515 104.074 556.896 104.063 550.284 104.244C540.736 104.502 531.23 104.28 521.721 103.704C519.812 103.588 519.288 102.594 519.251 100.588C519.147 95.2104 519.084 89.8301 518.994 84.4538C518.921 80.1555 518.932 75.8385 518.722 71.5599C518.591 68.9379 518.997 67.5156 521.316 66.6999C531.959 62.9663 542.467 58.5102 553.263 55.6095C559.743 53.8694 566.109 55.1348 572.514 55.4438C582.198 55.9084 591.28 59.3687 600.369 62.8229C606.129 65.0131 611.942 66.6843 617.998 67.536C626.14 68.6855 634.114 71.2683 642.37 71.4489C651.864 71.6554 661.386 71.1906 670.872 71.4644C679.077 71.6806 687.102 69.8892 695.422 67.6177Z" fill="white"/>
<path d="M576.859 11.3658C593.556 11.5962 610.997 12.7277 628.409 14.2784C637.85 15.1197 647.358 15.5184 656.718 17.0052C669.657 19.0668 682.721 19.5136 695.702 20.9052C697.392 21.0871 698.101 21.4806 697.749 23.8893C697.297 27.0095 697.056 30.1857 696.914 33.338C696.833 35.1686 696.114 35.7343 694.889 35.9888C685.11 38.0207 675.492 41.4519 665.655 42.9807C660.629 43.768 655.6 44.3847 650.545 44.6583C646.641 44.867 642.728 45.1022 638.871 44.7981C629.669 44.077 620.812 41.2733 611.996 38.3377C605.413 36.1441 598.779 34.17 592.167 32.1164C584.091 29.6048 575.877 28.4886 567.561 28.1589C551.736 27.5284 535.989 28.9833 520.533 35.0588C518.956 35.6789 518.324 35.4091 518.306 33.0779C518.248 26.8672 518.109 20.6413 517.705 14.4766C517.597 12.7626 517.909 12.182 518.988 12.0894C523.295 11.7317 527.611 11.4293 531.918 11.201C538.116 10.8688 544.314 10.6114 550.513 10.3338C553.414 10.2051 556.332 10.3097 559.19 10.4694C564.804 10.7782 570.484 10.12 576.859 11.3658Z" fill="white"/>
<path d="M518.788 65.038C518.693 61.7386 518.585 58.5126 518.51 55.2901C518.478 53.6863 518.472 52.4324 520.247 51.7989C534.661 46.644 549.14 41.918 563.945 39.7662C570.563 38.8031 577.127 39.9323 583.653 41.2413C595.29 43.57 606.291 48.6865 617.777 51.6807C625.476 53.6902 633.221 55.323 641.108 55.5198C654.178 55.8514 667.283 56.9631 680.348 53.126C685.511 51.6105 690.658 49.9843 695.842 48.4028C695.937 53.2688 695.839 57.8969 695.413 62.5387C695.277 63.9821 695.013 64.6904 693.828 64.8264C689.059 65.3611 684.453 67.6222 679.64 67.7981C676.016 67.9337 672.383 68.4839 668.767 68.484C663.911 68.4785 659.069 67.7523 654.226 68.0205C649.383 68.2887 644.556 68.4633 639.739 68.0871C632.963 67.5558 626.26 66.4463 619.604 64.9534C616.622 64.2837 613.56 64.3823 610.555 63.5466C604.795 61.949 599.194 59.8026 593.546 57.7808C589.382 56.2939 585.121 55.342 580.897 54.1691C576.488 52.943 571.992 52.818 567.514 52.4566C559.26 51.7926 551.17 53.7542 543.09 56.3435C534.924 58.9715 526.872 62.1494 518.788 65.038Z" fill="white"/>
<path d="M1005.43 163.631C1003.98 154.305 1000.75 145.732 993.197 139.106C986.227 132.991 978.353 129.137 969.251 127.92C962.233 126.986 955.224 127.598 948.278 129.16C939.643 131.107 933.419 136.155 929.502 143.762C925.347 151.816 923.808 160.514 925.402 169.503C926.52 175.783 928.875 181.623 933.109 186.601C938.62 193.077 946.145 196.61 953.733 199.695C958.776 201.744 964.311 202.905 969.94 202.898C976.759 202.67 983.65 203.047 989.946 199.444C993.133 197.622 996.392 195.919 998.557 192.904C1000.78 189.788 1003.62 187.017 1004.68 183.162C1006.46 176.709 1006.44 170.084 1005.43 163.631ZM976.054 140.276C977.148 140.802 978.234 141.352 979.313 141.909C979.622 142.074 979.995 142.215 980.034 142.733C979.923 142.875 979.788 143.063 979.622 143.228C976.545 146.329 974.135 149.955 971.471 153.386C971.011 153.975 970.702 154.854 969.687 153.92C968.997 153.284 967.887 152.986 968.751 151.706C971.05 148.291 972.835 144.594 974.46 140.833C974.888 139.837 975.348 139.939 976.054 140.276ZM961.995 137.411C962.027 136.767 962.281 136.335 962.987 136.414C965.754 136.728 968.458 137.34 971.05 138.353C971.273 138.439 971.502 138.541 971.423 138.926C971.344 139.083 971.249 139.303 971.13 139.515C969.251 142.953 967.554 146.47 966.253 150.16C965.912 151.125 965.571 151.408 964.572 150.89C963.312 150.246 961.869 150.215 960.473 150.191C959.545 150.175 959.165 149.987 959.498 148.943C960.703 145.19 961.821 141.399 961.995 137.411ZM932.166 171.379C931.262 168.537 930.834 165.648 931.111 162.838C931.294 159.046 931.325 158.936 934.806 159.863C937.914 160.695 941.118 160.985 944.226 161.778C944.948 161.959 945.455 162.155 945.138 162.916C944.44 164.612 944.234 166.394 943.972 168.176C943.822 169.22 943.354 169.785 942.164 170.044C939.389 170.649 936.638 171.395 933.958 172.305C932.768 172.706 932.467 172.329 932.166 171.379ZM934.172 176.458C933.696 175.328 933.894 174.927 935.004 174.55C937.359 173.75 939.73 172.941 941.982 171.897C943.806 171.049 943.822 172.203 943.814 173.279C943.79 176.654 944.329 179.951 945.019 183.233C945.423 185.156 946.026 187.04 946.637 189.309C941.102 186.02 936.622 182.236 934.172 176.458ZM950.094 154.359C948.555 155.513 947.667 157.178 946.748 158.811C946.47 159.297 946.303 160.043 945.558 159.69C941.895 158.638 938.351 157.641 934.83 156.597C931.476 155.608 931.46 155.584 932.396 152.216C933.173 149.422 934.457 146.839 935.861 144.311C936.289 143.542 936.693 143.118 937.621 143.95C941.308 147.279 945.796 149.484 949.856 152.295C950.902 153.025 951.275 153.472 950.094 154.359ZM951.124 150.12C947.81 147.051 944.131 144.382 940.428 141.768C939.936 141.422 939.54 140.951 939.017 140.465C942.109 138.141 945.201 136.241 948.873 135.574C952.258 134.954 955.644 135.519 959.022 135.841C959.569 135.896 959.751 136.21 959.632 136.712C958.641 140.975 957.833 145.269 957.5 149.641C957.46 150.136 957.262 150.411 956.746 150.489C956.453 150.536 956.152 150.646 955.89 150.795C954.106 151.824 952.758 151.635 951.124 150.12ZM972.755 191.373C969.203 191.005 966.412 189.45 963.803 187.393C960.743 184.983 958.031 182.299 956.104 178.868C955.264 177.384 955.121 175.806 954.986 174.205C954.915 173.318 955.676 173.239 956.215 173.224C958.372 173.145 960.362 172.415 962.368 171.771C963.129 171.528 963.708 171.371 964.105 172.36C966.475 178.373 969.607 184.041 972.383 189.874C972.589 190.298 972.89 190.698 972.755 191.373ZM991.349 187.221C988.003 189.568 984.443 191.523 980.256 191.954C979.535 192.033 978.797 191.994 978.068 192.009C976.22 192.347 975.554 191.405 974.999 189.764C973.049 184.002 971.066 178.24 968.537 172.69C967.173 169.707 967.181 169.762 970.202 168.223C971.003 167.815 971.621 168.019 972.264 168.278C979.971 171.355 987.821 173.969 995.916 175.838C996.9 176.065 997.137 176.646 997.201 177.667C997.478 182.236 994.664 184.897 991.349 187.221Z" fill="white"/>
<path d="M357.067 12.4409C356.93 12.7021 356.801 12.8575 356.558 12.7976C354.854 12.3937 353.131 12.1532 351.402 11.9972C348.844 11.7711 346.275 11.7941 343.706 11.7266C341.086 11.6555 338.467 11.542 335.846 11.4815C333.191 11.4185 330.534 11.3713 327.873 11.377C325.75 11.3787 323.624 11.3696 321.499 11.3978C319.409 11.4233 317.321 11.385 315.235 11.4213C312.851 11.4575 310.468 11.4353 308.087 11.3867C305.063 11.3238 302.043 11.2452 299.017 11.1982C296.6 11.1576 294.178 11.0688 291.76 10.9963C289.012 10.9107 286.264 10.7985 283.516 10.7235C281.079 10.655 278.642 10.5811 276.206 10.5072C273.076 10.4155 269.947 10.4088 266.813 10.4762C264.834 10.5149 262.859 10.4954 260.88 10.5288C259.013 10.5542 257.144 10.5529 255.275 10.6048C253.373 10.6544 251.469 10.7462 249.566 10.8275C247.332 10.9223 245.097 10.9745 242.867 10.9792C240.89 10.9809 238.914 10.9772 236.93 11.0262C234.628 11.0789 232.327 11.0625 230.022 11.0512C228.204 11.043 226.399 10.9401 224.576 11.6489C223.836 11.9359 223.173 12.2974 222.5 12.8338C221.98 13.2534 221.781 13.9247 221.789 14.5098C221.81 15.8716 221.67 17.2167 221.567 18.5538C221.191 23.304 221.201 28.0555 220.882 32.7993C220.835 33.4921 220.768 34.1834 220.751 34.873C220.69 37.1696 220.647 39.4674 220.6 41.7651C220.589 41.7643 220.578 41.7688 220.567 41.768C220.525 42.9022 220.443 44.0495 220.455 45.1769C220.481 47.5169 220.431 49.8621 220.388 52.2025C220.374 52.9933 220.331 53.7927 220.343 54.5747C220.366 56.3565 220.428 58.1358 220.487 59.9096C220.551 61.7582 220.615 63.6068 220.774 65.4408C220.829 66.1197 221.056 66.5983 221.503 66.8483C222.495 67.403 223.521 67.923 224.602 67.873C226.204 67.802 227.784 68.0429 229.384 67.9983C231.142 67.9438 232.898 68.0167 234.658 68.0472C236.56 68.0775 238.467 68.1027 240.369 68.1383C243.101 68.1908 245.834 68.27 248.559 68.423C254.122 68.7371 259.684 68.9609 265.265 68.9735C266.911 68.98 268.559 69.0132 270.21 69.02C272.203 69.0302 274.2 68.9876 276.196 68.9713C278.227 68.9524 280.258 68.944 282.292 68.9411C284.14 68.9409 285.986 68.898 287.837 68.8607C290.049 68.8123 292.261 68.7691 294.476 68.6995C296.159 68.6449 297.841 68.6009 299.524 68.5941C301.462 68.5896 303.403 68.5323 305.34 68.5331C307.263 68.5329 309.182 68.4846 311.101 68.4789C313.372 68.4665 315.639 68.5122 317.911 68.4839C319.728 68.4602 321.538 68.5317 323.35 68.5767C325.859 68.6398 328.365 68.7346 330.874 68.7977C332.1 68.8273 333.331 68.7986 334.556 68.8334C335.264 68.8523 335.982 68.872 336.695 68.8594C338.836 68.8111 340.974 68.7625 343.116 68.7036C344.141 68.6763 345.165 68.6381 346.189 68.5894C347.777 68.512 349.37 68.4138 350.959 68.3259C351.893 68.276 352.824 68.2206 353.758 68.1866C355.176 68.129 356.598 67.8218 358.01 68.0507C358.474 68.1265 358.78 67.8509 358.84 67.1643C358.906 66.3985 358.979 65.6227 358.955 64.8663C358.875 62.6818 358.896 60.494 358.935 58.3021C358.961 56.9541 358.979 55.6057 358.982 54.2615C358.989 52.4127 358.978 50.568 358.979 48.7187C358.98 47.0024 358.992 45.2868 358.99 43.5702C358.99 41.7741 358.983 39.9827 358.975 38.1861C358.962 36.1339 358.955 34.0769 358.927 32.0184C358.898 29.7844 358.854 27.5493 358.814 25.3146C358.775 23.1596 358.783 21.0027 358.654 18.8572C358.623 18.3927 358.442 17.8217 358.574 17.4805C358.882 16.6895 358.867 15.9019 358.896 15.091C358.935 14.0469 358.657 13.384 357.974 13.1171C357.727 13.0197 357.611 12.836 357.541 12.5227C357.428 12.1001 357.258 12.072 357.067 12.4409ZM236.552 61.158C236.023 61.2476 235.493 61.3903 234.966 61.4003C233.464 61.436 231.963 61.3973 230.461 61.4171C228.87 61.4358 227.277 61.4809 225.683 61.5366C224.814 61.5699 224.759 61.55 224.687 60.3066C224.56 57.9806 224.483 55.6529 224.491 53.3047C224.503 50.2925 224.561 47.2836 224.702 44.2701C224.847 41.2515 224.957 38.2303 225.03 35.2119C225.122 31.589 225.228 27.9619 225.356 24.3362C225.415 22.6666 225.567 20.9982 225.551 19.3232C225.539 17.6962 225.87 17.4171 226.979 17.3851C229.914 17.2981 232.835 17.5024 235.754 17.6853C236.239 17.7148 236.573 18.2489 237.085 18.1475C237.63 18.0431 238.183 18.1199 238.734 18.0798C239.087 18.0519 239.143 18.2685 239.116 18.7396C239.044 20.0364 238.738 21.3057 238.716 22.6114C238.709 23.0094 238.663 23.4046 238.651 23.5738C238.393 26.765 238.396 29.7251 238.319 32.6848C238.285 34.0056 238.169 35.3258 238.131 36.6515C238.064 39.0911 237.96 41.5335 237.743 43.9676C237.436 47.4369 237.448 50.9132 237.224 54.3884C237.131 55.8377 237.13 57.299 237.129 58.7497C237.129 59.4086 236.852 60.0158 236.947 60.6922C236.979 60.939 236.751 61.1245 236.552 61.158ZM274.916 62.253L273.983 62.186C270.206 62.1275 266.325 61.9766 262.439 61.8518C259.781 61.7674 257.121 61.7572 254.471 61.5723C253.958 61.5408 253.444 61.5199 252.93 61.5893C252.421 61.6537 252.295 61.3099 252.323 60.6742C252.368 59.6413 252.435 58.6151 252.444 57.5796C252.467 54.6744 252.554 51.7633 252.634 48.8569C252.672 47.4249 252.771 45.9919 252.841 44.5622C252.97 42.0738 253.041 39.5813 253.113 37.0889C253.206 33.8381 253.253 30.5893 253.383 27.3358C253.494 24.4954 253.59 21.6593 253.782 18.8248C253.82 18.2483 253.934 18.0651 254.355 18.0794C256.422 18.1587 258.492 18.2009 260.561 18.2165C262.668 18.2349 264.772 18.253 266.879 18.1916C269.239 18.1219 271.605 18.0365 273.963 18.0517C274.454 18.055 274.952 17.9951 275.443 18.0356C275.664 18.0515 275.754 18.1535 275.708 18.5329C275.513 20.0599 275.604 21.5863 275.562 23.1137C275.528 24.4876 275.551 25.8603 275.546 27.2309C275.538 29.2869 275.534 31.3484 275.515 33.4089C275.504 34.811 275.482 36.2123 275.449 37.6129C275.395 40.0694 275.394 42.5244 275.436 44.9772C275.484 47.6642 275.505 50.3546 275.531 53.0453C275.554 55.8103 275.556 58.579 275.576 61.3438C275.584 62.1786 275.522 62.2911 274.916 62.253ZM318.011 62.7414C316.997 62.8599 315.994 62.7083 314.991 62.716C313.691 62.7237 312.386 62.6991 311.088 62.6697C308.383 62.6031 305.667 62.6793 302.957 62.6761C302.04 62.6741 301.121 62.6666 300.211 62.6226C298.123 62.5259 296.033 62.5672 293.942 62.566C292.975 62.5657 292.008 62.3793 291.032 62.6069C290.758 62.6723 290.608 62.5712 290.62 62.0619C290.65 60.4858 290.631 58.9062 290.64 57.3339C290.658 55.0395 290.683 52.7509 290.708 50.4571C290.718 49.5598 290.793 48.6618 290.808 47.7594C290.832 45.9809 290.921 44.1965 291.059 42.4209C291.307 39.2662 291.368 36.1141 291.491 32.9557C291.625 29.5378 291.694 26.1259 291.897 22.7076C291.976 21.3582 292.023 20.0064 292.102 18.6517C292.133 18.1225 292.267 17.9515 292.621 18.0035C293.348 18.1035 294.094 17.8276 294.733 18.0115C298.207 18.0908 301.598 18.0897 304.985 18.2371C306.888 18.3204 308.795 18.2925 310.699 18.3495C312.746 18.406 314.804 18.3252 316.854 18.35C317.837 18.3622 317.827 18.4092 317.828 19.8335C317.837 23.5008 317.882 27.1654 318.006 30.8251C318.104 33.7016 318.21 36.5735 318.196 39.4633C318.18 42.725 318.212 45.9794 318.264 49.2354C318.312 52.1668 318.435 55.0877 318.489 58.025C318.515 59.3075 318.498 60.5976 318.557 61.8771C318.586 62.4107 318.477 62.6845 318.011 62.7414ZM353.252 17.9488C353.549 18.0073 353.725 17.9508 353.595 18.6111C353.357 19.8269 353.439 21.0868 353.461 22.3266C353.492 24.3375 353.585 26.3369 353.637 28.3494C353.697 30.5696 353.741 32.7888 353.793 35.0084C353.84 37.0471 353.906 39.0817 353.931 41.1241C353.97 43.8796 353.99 46.6337 353.993 49.3919C353.995 50.3166 353.91 51.2405 353.893 52.1746C353.853 54.5843 353.698 56.9963 353.629 59.4039C353.599 60.4274 353.643 61.4508 353.699 62.4645C353.729 62.9928 353.649 63.2155 353.26 63.1504C352.934 63.0952 352.601 63.0978 352.274 63.0743C349.783 63.1081 347.298 63.0095 344.803 63.1494C344.109 63.1899 343.414 63.1454 342.718 63.1592C340.833 63.1939 338.947 63.0746 337.061 63.1199C336.308 63.135 335.557 63.1183 334.811 63.0913C334.511 63.0804 334.42 62.9411 334.425 62.4843C334.44 59.5308 334.419 56.5801 334.43 53.6263C334.436 52.0963 334.507 50.5603 334.524 49.0258C334.554 46.8598 334.541 44.6961 334.585 42.5311C334.628 40.3873 334.613 38.2553 334.587 36.1172C334.561 33.9313 334.51 31.7489 334.477 29.5625C334.445 27.6153 334.42 25.6685 334.399 23.7168C334.382 22.1107 334.314 20.5116 334.192 18.9246C334.159 18.4865 334.205 18.3888 334.54 18.3172C335.463 18.1178 336.369 18.3262 337.286 18.2698C339.044 18.1622 340.8 18.3413 342.556 18.2707C344.255 18.196 345.954 18.2222 347.659 18.0576C348.831 17.9398 350.005 17.9496 351.17 17.9801C351.86 17.9977 352.559 17.8247 353.252 17.9488Z" fill="white"/>
<path d="M757.254 137.698C757.639 137.114 757.811 136.589 757.797 135.945C757.735 133.475 757.191 131.129 756.42 128.837C756.314 128.516 755.827 128.044 756.393 127.774C756.839 127.556 757.103 128.092 757.325 128.414C758.174 129.65 758.887 130.957 759.385 132.396C759.49 132.698 759.382 133.266 759.892 133.226C760.25 133.206 760.33 132.734 760.484 132.436C762.652 128.083 764.014 123.518 765.148 118.872C765.418 117.738 765.088 117.302 764.195 116.767C761.436 115.133 758.38 114.091 755.55 112.617C755.282 112.475 754.732 112.482 754.984 111.845C758.391 112.478 761.705 113.325 764.845 114.653C765.783 115.052 766.071 114.87 766.188 113.873C766.739 109.247 766.916 104.634 766.498 100.046C766.388 98.8517 765.886 98.3736 764.791 98.074C763.478 97.7145 762.047 97.5602 760.967 96.5655C762.359 96.5245 763.723 96.5984 765.078 96.7406C765.767 96.8163 766.098 96.7503 765.952 95.9191C764.996 90.7398 763.978 85.5809 762.404 80.5787C759.641 71.7786 755.877 63.3008 755.006 53.8766C754.941 53.1585 754.691 53.0862 754.034 53.4727C753.035 54.065 751.997 54.5968 750.938 55.0667C749.75 55.5927 748.739 56.531 747.293 56.8017C747.45 56.1093 747.831 55.7391 748.269 55.3826C750.098 53.924 751.921 52.4545 753.753 50.9881C754.163 50.6565 754.52 50.367 754.44 49.7327C753.924 45.7081 753.003 41.8009 751.916 37.9268C751.687 37.0989 751.309 37.2365 750.767 37.6956C750.106 38.2513 749.461 38.8581 748.727 39.3038C747.993 39.7495 747.301 40.4727 746.043 40.4048C747.592 38.9252 748.8 37.5349 750.078 36.2174C750.867 35.4069 750.88 34.7832 750.529 33.8797C748.906 29.658 747.067 25.5485 744.463 21.8724C742.781 19.497 740.91 17.2804 738.313 15.6026C737.485 18.1864 737.226 20.8339 735.653 23.1219C736.085 21.3971 736.492 19.6707 736.967 17.9536C737.699 15.2691 737.599 14.9777 735.299 13.5706C734.627 13.1597 733.911 12.8576 733.154 12.6564C731.051 12.0911 728.848 12.1607 726.66 12.1014C720.31 11.9091 715.482 14.4697 712.188 20.1196C711.62 21.0985 711.726 21.7157 712.449 22.3623C713.573 23.3568 714.721 24.3156 715.765 25.3771C716.595 26.2282 717.394 27.1382 717.961 28.2444C717.475 28.4288 717.231 28.2061 716.979 28.0252C715.185 26.702 713.34 25.4395 711.617 24.0277C710.605 23.2035 710.324 23.6402 709.872 24.6204C707.502 29.7295 706.117 35.0764 704.947 40.4724C704.803 41.1523 705.013 41.4155 705.66 41.6185C707.561 42.22 709.52 42.584 711.493 42.8905C711.755 42.9317 712.18 42.8126 712.181 43.2175C712.18 43.6038 711.76 43.5988 711.492 43.6631C709.541 44.1384 707.613 44.0831 705.708 43.8308C704.76 43.7061 704.388 43.9181 704.251 44.9424C703.577 49.8794 703.629 54.7539 704.142 59.6225C704.279 60.9533 704.851 61.369 706.03 61.4326C706.408 61.4564 706.781 61.488 707.163 61.5226C708.938 61.6699 710.711 61.8248 712.478 61.969C709.972 63.0509 707.397 62.9276 704.762 62.9968C704.826 63.4264 704.869 63.7939 704.933 64.1521C705.987 70.7817 708.407 76.9375 710.63 83.159C711.49 85.5676 711.54 85.5333 714.197 84.9071C715.358 84.6309 716.538 84.3531 717.72 84.1839C718.787 84.0321 719.858 83.6662 721.104 83.8552C720.679 84.2706 720.301 84.4081 719.904 84.5473C717.797 85.3023 715.718 86.1488 713.585 86.8124C712.386 87.1818 712.183 87.6493 712.701 88.6548C713.084 89.4093 713.336 90.2464 713.609 91.0556C715.163 95.6995 716.887 100.303 717.474 105.255C717.602 106.384 717.87 107.021 719.2 106.704C719.686 106.591 720.21 106.628 720.711 106.656C721.864 106.718 723.013 106.815 724.175 106.898C724.149 107.032 724.134 107.161 724.115 107.297C722.32 107.564 720.524 107.831 718.723 108.087C718.115 108.17 717.762 108.29 717.801 109.097C717.941 112.164 717.472 115.249 717.257 118.328C716.896 123.335 718.034 127.921 720.351 132.185C720.68 132.783 721.018 133.016 721.835 132.612C724.052 131.532 726.365 130.688 728.804 130.452C729.105 130.419 729.558 130.185 729.702 130.592C729.864 131.043 729.355 131.102 729.092 131.267C727.254 132.389 725.34 133.383 723.547 134.595C722.331 135.416 722.144 135.638 723.017 136.722C724.999 139.18 726.786 141.813 729.304 143.801C730.531 144.764 730.553 144.8 731.656 143.494C732.854 142.082 734.068 140.676 735.285 139.262C735.606 139.542 735.563 139.741 735.448 139.938C734.505 141.568 733.72 143.297 732.548 144.801C732.027 145.457 732.04 145.831 732.788 146.235C740.468 150.371 746.385 148.009 751.718 143.789C753.867 142.089 755.717 140.009 757.254 137.698ZM739.535 87.6282C737.866 86.7142 736.494 85.4597 735.407 83.8957C732.086 79.3325 729.864 74.3072 729.856 68.4164C729.855 67.2652 730.022 66.0733 730.303 64.9353C730.834 62.782 732.343 61.6283 734.505 61.0748C736.725 60.5088 738.472 61.1122 739.754 62.6819C744.11 68.0598 746.565 74.2388 746.408 81.4302C746.376 82.7568 746.105 84.0964 745.631 85.3823C744.554 88.2538 742.227 89.1103 739.535 87.6282Z" fill="white"/>
<path d="M286.538 92.8298C286.263 92.6674 286.02 92.6005 285.727 92.6212C284.604 92.7043 283.547 93.0037 282.519 93.4057C282.375 93.4612 282.171 93.6935 282.036 93.4418C281.926 93.2433 282.165 93.1113 282.307 93.0027C282.851 92.5886 283.431 92.2351 284.075 91.976C284.21 91.9216 284.472 91.9585 284.442 91.7269C284.425 91.5641 284.209 91.5383 284.069 91.4746C282.038 90.5831 279.928 90.0635 277.786 89.6496C277.264 89.5517 277.072 89.7117 276.848 90.1306C276.165 91.4234 275.758 92.8388 275.149 94.1611C275.09 94.286 275.105 94.5368 274.809 94.4358C275.022 92.8694 275.335 91.3412 275.87 89.881C276.032 89.4447 275.942 89.3175 275.486 89.2864C273.366 89.1378 271.26 89.1593 269.179 89.4509C268.637 89.5275 268.431 89.767 268.318 90.2723C268.184 90.8787 268.145 91.5341 267.716 92.0478C267.666 91.4147 267.67 90.7917 267.704 90.1713C267.724 89.8557 267.686 89.706 267.311 89.7911C264.972 90.3411 262.644 90.9189 260.4 91.7468C256.452 93.2006 252.673 95.1027 248.398 95.708C248.072 95.7538 248.045 95.8693 248.236 96.1599C248.527 96.602 248.793 97.0632 249.03 97.535C249.296 98.0649 249.746 98.5045 249.901 99.1577C249.582 99.1011 249.405 98.9358 249.233 98.7441C248.528 97.9434 247.818 97.145 247.11 96.3431C246.95 96.1635 246.81 96.007 246.523 96.0578C244.7 96.3815 242.941 96.8877 241.2 97.4687C240.827 97.5912 240.898 97.7605 241.12 97.9972C241.387 98.286 241.678 98.5666 241.897 98.8912C242.117 99.2159 242.462 99.5149 242.458 100.09C241.75 99.4168 241.09 98.8972 240.461 98.3441C240.075 98.0025 239.79 98.01 239.386 98.1902C237.499 99.0232 235.667 99.9518 234.05 101.219C233.005 102.038 232.036 102.94 231.329 104.16C232.525 104.48 233.737 104.54 234.814 105.206C234.019 105.047 233.223 104.9 232.43 104.722C231.191 104.447 231.06 104.499 230.47 105.578C230.298 105.894 230.176 106.227 230.101 106.576C229.89 107.547 229.971 108.549 229.992 109.547C230.045 112.444 231.318 114.587 233.965 115.963C234.424 116.2 234.703 116.138 234.981 115.795C235.409 115.26 235.821 114.716 236.281 114.217C236.651 113.82 237.048 113.436 237.539 113.153C237.634 113.371 237.538 113.487 237.461 113.605C236.898 114.452 236.364 115.321 235.758 116.137C235.405 116.616 235.61 116.735 236.067 116.919C238.447 117.885 240.914 118.398 243.398 118.812C243.711 118.863 243.826 118.761 243.905 118.461C244.137 117.582 244.259 116.682 244.355 115.776C244.368 115.656 244.304 115.465 244.489 115.455C244.665 115.447 244.672 115.639 244.707 115.759C244.967 116.638 244.984 117.518 244.911 118.391C244.876 118.826 244.98 118.99 245.45 119.03C247.714 119.228 249.934 119.096 252.141 118.755C252.744 118.663 252.921 118.393 252.924 117.855C252.926 117.682 252.933 117.511 252.94 117.337C252.968 116.524 252.999 115.714 253.026 114.905C253.574 116.023 253.575 117.199 253.665 118.398C253.859 118.359 254.025 118.332 254.187 118.294C257.184 117.667 259.935 116.429 262.721 115.278C263.799 114.833 263.783 114.812 263.438 113.615C263.287 113.092 263.134 112.56 263.031 112.026C262.938 111.543 262.748 111.063 262.806 110.491C263.005 110.676 263.076 110.845 263.148 111.023C263.539 111.965 263.971 112.894 264.32 113.851C264.515 114.389 264.732 114.472 265.179 114.213C265.514 114.022 265.89 113.889 266.253 113.747C268.334 112.936 270.393 112.049 272.636 111.671C273.148 111.588 273.432 111.452 273.259 110.853C273.196 110.634 273.202 110.395 273.203 110.166C273.206 109.639 273.225 109.114 273.237 108.582C273.298 108.591 273.357 108.595 273.42 108.6C273.582 109.413 273.743 110.225 273.899 111.04C273.95 111.315 274.013 111.473 274.38 111.437C275.774 111.306 277.19 111.451 278.597 111.481C280.887 111.535 282.951 110.915 284.842 109.765C285.108 109.602 285.206 109.443 285.004 109.08C284.463 108.093 284.028 107.058 283.866 105.952C283.844 105.816 283.728 105.615 283.91 105.54C284.112 105.456 284.15 105.687 284.231 105.803C284.783 106.616 285.278 107.465 285.87 108.256C286.271 108.791 286.376 108.872 286.85 108.45C287.927 107.493 289.087 106.62 289.937 105.429C290.349 104.849 290.364 104.838 289.745 104.365C289.075 103.85 288.408 103.328 287.737 102.804C287.857 102.652 287.949 102.667 288.041 102.715C288.805 103.109 289.61 103.428 290.32 103.929C290.631 104.152 290.801 104.137 290.969 103.788C292.683 100.198 291.476 97.5539 289.435 95.2174C288.613 94.276 287.625 93.4791 286.538 92.8298ZM264.118 102.01C263.738 102.791 263.197 103.444 262.508 103.973C260.503 105.588 258.262 106.711 255.579 106.845C255.054 106.871 254.508 106.821 253.983 106.718C252.99 106.524 252.431 105.862 252.131 104.889C251.824 103.89 252.06 103.081 252.747 102.462C255.101 100.359 257.862 99.1033 261.142 99.0159C261.747 99.0012 262.363 99.0951 262.96 99.2827C264.292 99.7098 264.733 100.751 264.118 102.01Z" fill="white"/>
</svg>
