<svg width="153" height="154" viewBox="0 0 153 154" fill="none" xmlns="http://www.w3.org/2000/svg">
<path d="M87.3318 39.8311C83.4605 42.0653 79.3686 43.9385 75.8667 46.7888C74.6412 47.7874 73.3083 48.6686 72.1776 49.7581C71.4019 50.5005 70.6109 50.6552 69.7095 50.3859C64.535 48.8533 59.2226 48.1037 53.8961 47.3652C50.4913 46.8934 47.1501 46.2556 43.681 47.1226C40.8199 47.8352 38.4223 49.3264 36.1884 51.0676C33.0614 53.5033 29.9725 56.0244 27.098 58.7522C22.306 63.2977 18.0592 68.3481 14.1429 73.6686C13.6099 74.3909 13.0646 75.1147 12.4375 75.7522C10.3308 77.903 10.7299 80.3522 11.7094 82.7529C14.2771 89.0441 18.1788 94.5656 21.9695 100.144C24.9372 104.513 27.9145 108.884 30.7701 113.325C31.6144 114.634 32.8406 115.28 34.1106 115.75C42.5309 118.875 51.0283 121.817 59.7938 123.796C63.4333 124.617 67.1689 125.105 70.8497 125.832C73.4815 126.351 75.7312 127.583 77.5376 129.459C79.4931 131.49 81.619 131.905 84.2398 131.104C90.8601 129.077 97.2293 126.409 103.539 123.607C104.649 123.116 105.788 122.708 106.829 121.986C108.404 120.895 108.742 119.644 108.173 117.942C107.024 114.528 105.694 111.178 105.104 107.588C104.676 105 104.665 104.731 107.029 103.861C108.547 103.302 110.05 102.599 111.867 102.739C113.032 102.573 114.133 103.292 115.349 103.493C118.284 103.978 120.599 102.705 122.709 100.882C128.265 96.0893 132.287 90.0826 136.17 83.944C139.919 78.017 141.534 71.3681 142.728 64.6057C142.996 63.0996 143.387 61.5412 143.173 59.9011C142.729 56.4924 140.105 55.0666 137.61 53.6531C133.174 51.1438 128.242 49.7959 123.433 48.2066C114.59 45.2816 105.56 43.0402 96.4481 41.1716C94.202 40.7115 92.0336 39.9969 89.8141 39.4745C88.8049 39.2369 88.1381 39.3673 87.3318 39.8311ZM93.429 45.8561C94.7445 46.1125 96.07 46.349 97.3735 46.6348C106.263 48.5613 115.087 50.7688 123.708 53.7082C127.919 55.1435 132.179 56.4579 136.045 58.7572C137.094 59.3809 137.699 60.0987 137.539 61.384C136.899 64.5082 136.291 67.6347 135.614 70.751C134.328 76.6776 131.374 81.8226 128.001 86.7609C125.745 90.0623 123.409 93.3174 120.422 96.0124C118.495 97.7505 116.412 99.0297 113.553 98.0388C112.377 97.6321 111.044 97.3065 109.728 97.6086C107.006 98.2362 104.358 99.0719 101.86 100.374C100.509 101.08 99.9435 102.098 99.8339 103.6C99.5504 107.408 100.639 110.94 101.797 114.476C102.176 115.637 103.114 116.948 102.83 117.91C102.494 119.052 100.727 119.117 99.572 119.573C93.9177 121.815 88.3369 124.254 82.4534 125.885C81.718 126.089 81.3543 125.981 80.83 125.52C78.303 123.279 75.5415 121.534 72.1664 120.693C67.4886 119.522 62.678 119.022 58.0187 117.927C50.533 116.165 43.1956 113.784 35.9001 111.314C34.8421 110.955 34.1544 110.272 33.5539 109.336C31.6029 106.318 29.6033 103.333 27.5489 100.383C24.0929 95.416 20.1699 90.7689 17.2429 85.4303C16.53 84.1298 15.6169 82.9435 17.3461 81.6203C17.7695 81.2991 18.1949 80.6363 18.5608 80.0708C22.8369 73.4439 27.6342 67.2255 33.5338 61.9377C35.5211 60.1582 37.5799 58.4568 39.6352 56.7527C43.0043 53.9588 46.7541 52.2326 51.2663 52.8309C52.9373 53.0504 54.5878 53.4089 56.2619 53.6033C61.4347 54.1991 66.5025 55.2607 71.4581 56.8818C72.9378 57.3665 74.3066 57.089 75.517 55.9403C76.747 54.7737 78.1056 53.7466 79.4327 52.6892C82.7577 50.0433 86.6774 48.4392 90.347 46.3845C91.3942 45.783 92.3807 45.6542 93.429 45.8561Z" fill="white"/>
<path d="M97.3534 56.4763C95.1381 56.4499 92.4799 58.2735 89.8604 60.2383C87.2747 62.1741 85.0948 64.5665 82.4405 66.4486C79.5058 68.526 76.3547 68.4577 73.2122 67.8208C68.4412 66.8536 63.741 65.4714 58.8859 65.0139C55.117 64.6607 51.3322 65.0478 47.8522 66.67C43.3186 68.789 38.4701 70.0247 33.8593 71.9173C30.3334 73.3652 27.8187 75.8105 25.5671 78.8662C24.1232 80.8282 24.5375 82.2765 25.2063 84.1346C26.6991 88.2881 28.508 92.2853 30.5974 96.1648C32.7506 100.161 36.5411 101.997 40.4778 103.633C46.5478 106.156 52.6442 108.588 58.5904 111.445C63.5981 113.854 68.9929 115.515 74.6843 115.654C77.7246 115.73 79.7534 114.293 80.8717 111.461C82.1234 108.297 83.0681 105.03 84.4194 101.894C86.9079 96.1076 91.6378 93.5336 97.353 92.1526C99.6197 91.605 101.922 91.1679 104.134 90.4562C108.038 89.2047 110.077 86.0599 111.585 82.5265C113.27 78.5838 114.663 74.54 115.754 70.3807C116.204 68.6633 115.691 67.2703 114.967 65.9278C113.708 63.6075 111.862 61.8114 109.512 60.523C106.077 58.6432 102.719 56.5865 97.3534 56.4763ZM99.9743 63.4623C103.299 64.3471 106.35 65.8701 109.136 67.8936C109.959 68.4889 110.416 69.262 110.061 70.3785C108.983 73.7791 107.946 77.1779 106.582 80.4922C105.355 83.4765 103.364 85.1759 100.217 85.7247C98.5305 86.0189 96.8929 86.5616 95.2261 86.9652C86.6036 89.0614 81.0626 94.3646 78.5576 102.884C78.0114 104.752 77.3206 106.58 76.6973 108.427C76.3325 109.513 75.7506 110.242 74.4188 109.851C70.4458 109.299 66.674 107.897 62.8571 106.687C59.1666 105.521 55.9846 103.226 52.4021 101.773C47.3906 99.7432 42.1485 98.3181 37.2339 96.0373C36.1588 95.5377 34.9919 95.0989 34.3414 94.0576C33.0952 92.0678 31.9443 90.0199 30.7907 87.9755C30.4943 87.4498 30.111 86.8726 30.3523 86.226C31.8112 82.3386 33.3497 78.724 38.0529 77.4407C42.0952 76.3368 46.0788 74.877 49.872 72.9965C53.0355 71.4251 56.446 71.5084 59.8074 71.9296C64.5863 72.5266 69.1398 74.2089 73.9113 74.9495C79.2421 75.7744 83.7082 74.3275 87.7985 70.9808C90.2967 68.9377 92.5044 66.545 95.2484 64.7886C96.7067 63.8673 98.2145 62.996 99.9743 63.4623Z" fill="white"/>
<path d="M69.4146 85.2126C71.2639 88.5441 70.6357 90.9906 67.5519 93.1947C67.275 93.3926 67.0235 93.6216 66.7431 93.8169C62.3565 96.8427 58.1735 98.578 52.8538 95.0277C51.1562 93.8961 49.26 93.0461 47.4578 92.0762C42.699 89.519 43.2006 86.5139 45.137 82.3423C45.7298 81.0636 46.8669 80.3333 48.1739 80.2122C52.093 79.8585 56.0218 79.6618 60.2913 79.3835C61.2757 79.5187 62.5923 79.6819 63.8767 80.091C66.5328 80.9389 68.145 82.9278 69.4146 85.2126Z" fill="white"/>
</svg>
