<svg width="72" height="114" viewBox="0 0 72 114" fill="none" xmlns="http://www.w3.org/2000/svg">
<path d="M4.41945 93.2256H6.45661V106.781H3.88636V97.6426H0.763989V95.8339L1.06861 95.8149C2.05863 95.7514 2.81384 95.5293 3.33423 95.1485C3.86732 94.755 4.22906 94.1141 4.41945 93.2256ZM17.0586 101.488H18.8673V103.659H17.0586V106.781H14.4883V103.659H7.90088V101.222L14.2408 93.2256H17.0586V101.488ZM14.5454 101.488V95.9862L10.1855 101.488H14.5454ZM23.736 93.2256H35.007V95.5293H30.6661V106.781H28.0769V95.5293H23.736V93.2256ZM40.3107 96.8049C40.5264 96.8049 40.7232 96.8176 40.9009 96.843V99.0515H40.2916C39.3778 99.0515 38.6733 99.2863 38.1783 99.7559C37.696 100.213 37.4548 100.892 37.4548 101.793V106.781H35.0559V96.9572H37.3787V98.7088C37.9245 97.4395 38.9018 96.8049 40.3107 96.8049ZM51.0212 102.041V102.612H43.6722C43.7611 103.449 44.0213 104.084 44.4528 104.516C44.897 104.934 45.4873 105.144 46.2234 105.144C47.315 105.144 48.0638 104.674 48.47 103.735H50.7737C50.5199 104.738 49.9868 105.537 49.1744 106.134C48.3621 106.718 47.3721 107.01 46.2044 107.01C44.7447 107.01 43.5643 106.54 42.6632 105.601C41.762 104.662 41.3114 103.418 41.3114 101.869C41.3114 100.321 41.7556 99.0769 42.6441 98.1376C43.5453 97.1984 44.7194 96.7287 46.1663 96.7287C47.6513 96.7287 48.8317 97.2174 49.7075 98.1947C50.5833 99.1721 51.0212 100.454 51.0212 102.041ZM46.1473 98.5945C44.7384 98.5945 43.9197 99.3751 43.6913 100.936H48.6223C48.5208 100.213 48.2542 99.6417 47.8227 99.2228C47.3911 98.804 46.8327 98.5945 46.1473 98.5945ZM61.8421 102.041V102.612H54.4931C54.582 103.449 54.8422 104.084 55.2737 104.516C55.718 104.934 56.3082 105.144 57.0443 105.144C58.1359 105.144 58.8848 104.674 59.2909 103.735H61.5946C61.3408 104.738 60.8077 105.537 59.9954 106.134C59.183 106.718 58.193 107.01 57.0253 107.01C55.5656 107.01 54.3852 106.54 53.4841 105.601C52.5829 104.662 52.1323 103.418 52.1323 101.869C52.1323 100.321 52.5765 99.0769 53.465 98.1376C54.3662 97.1984 55.5403 96.7287 56.9872 96.7287C58.4722 96.7287 59.6527 97.2174 60.5284 98.1947C61.4042 99.1721 61.8421 100.454 61.8421 102.041ZM56.9682 98.5945C55.5593 98.5945 54.7406 99.3751 54.5122 100.936H59.4432C59.3417 100.213 59.0751 99.6417 58.6436 99.2228C58.212 98.804 57.6536 98.5945 56.9682 98.5945ZM67.2374 107.048C64.3689 107.048 62.8712 105.918 62.7442 103.659H65.086C65.1495 104.268 65.3462 104.7 65.6762 104.954C66.0189 105.207 66.552 105.334 67.2755 105.334C68.5701 105.334 69.2174 104.941 69.2174 104.154C69.2174 103.798 69.0778 103.526 68.7986 103.335C68.5194 103.145 68.018 102.986 67.2945 102.859L66.1712 102.669C64.0262 102.313 62.9537 101.323 62.9537 99.6988C62.9537 98.7722 63.3091 98.0488 64.0198 97.5284C64.7306 96.9953 65.7333 96.7287 67.028 96.7287C69.833 96.7287 71.28 97.8393 71.3688 100.061H69.1032C69.0778 99.4767 68.8938 99.0642 68.5511 98.823C68.2084 98.5692 67.7007 98.4422 67.028 98.4422C65.8856 98.4422 65.3145 98.823 65.3145 99.5846C65.3145 99.9146 65.4414 100.175 65.6953 100.365C65.9491 100.543 66.368 100.682 66.9518 100.784L68.1894 100.974C69.3825 101.19 70.2455 101.533 70.7786 102.002C71.3244 102.472 71.5973 103.126 71.5973 103.963C71.5973 104.954 71.2165 105.715 70.455 106.248C69.6934 106.781 68.6209 107.048 67.2374 107.048Z" fill="white"/>
<path d="M4.41945 93.2256V92.9877H4.22715L4.18686 93.1757L4.41945 93.2256ZM6.45661 93.2256H6.69448V92.9877H6.45661V93.2256ZM6.45661 106.781V107.019H6.69448V106.781H6.45661ZM3.88636 106.781H3.64849V107.019H3.88636V106.781ZM3.88636 97.6426H4.12424V97.4047H3.88636V97.6426ZM0.763989 97.6426H0.526116V97.8805H0.763989V97.6426ZM0.763989 95.8339L0.749151 95.5965L0.526116 95.6104V95.8339H0.763989ZM1.06861 95.8149L1.08345 96.0523L1.08383 96.0523L1.06861 95.8149ZM3.33423 95.1485L3.4747 95.3405L3.4755 95.3399L3.33423 95.1485ZM4.41945 93.4635H6.45661V92.9877H4.41945V93.4635ZM6.21873 93.2256V106.781H6.69448V93.2256H6.21873ZM6.45661 106.543H3.88636V107.019H6.45661V106.543ZM4.12424 106.781V97.6426H3.64849V106.781H4.12424ZM3.88636 97.4047H0.763989V97.8805H3.88636V97.4047ZM1.00186 97.6426V95.8339H0.526116V97.6426H1.00186ZM0.778827 96.0713L1.08345 96.0523L1.05377 95.5775L0.749151 95.5965L0.778827 96.0713ZM1.08383 96.0523C2.09655 95.9873 2.90301 95.7588 3.4747 95.3405L3.19377 94.9565C2.72467 95.2998 2.02071 95.5155 1.05339 95.5775L1.08383 96.0523ZM3.4755 95.3399C4.07016 94.901 4.45403 94.1995 4.65204 93.2754L4.18686 93.1757C4.00409 94.0286 3.66448 94.6091 3.19297 94.9571L3.4755 95.3399ZM17.0586 101.488H16.8207V101.726H17.0586V101.488ZM18.8673 101.488H19.1051V101.251H18.8673V101.488ZM18.8673 103.659V103.897H19.1051V103.659H18.8673ZM17.0586 103.659V103.421H16.8207V103.659H17.0586ZM17.0586 106.781V107.019H17.2964V106.781H17.0586ZM14.4883 106.781H14.2505V107.019H14.4883V106.781ZM14.4883 103.659H14.7262V103.421H14.4883V103.659ZM7.90088 103.659H7.66301V103.897H7.90088V103.659ZM7.90088 101.222L7.71449 101.074L7.66301 101.139V101.222H7.90088ZM14.2408 93.2256V92.9877H14.1259L14.0544 93.0778L14.2408 93.2256ZM17.0586 93.2256H17.2964V92.9877H17.0586V93.2256ZM14.5454 101.488V101.726H14.7833V101.488H14.5454ZM14.5454 95.9862H14.7833V95.303L14.359 95.8385L14.5454 95.9862ZM10.1855 101.488L9.99911 101.341L9.69356 101.726H10.1855V101.488ZM17.0586 101.726H18.8673V101.251H17.0586V101.726ZM18.6294 101.488V103.659H19.1051V101.488H18.6294ZM18.8673 103.421H17.0586V103.897H18.8673V103.421ZM16.8207 103.659V106.781H17.2964V103.659H16.8207ZM17.0586 106.543H14.4883V107.019H17.0586V106.543ZM14.7262 106.781V103.659H14.2505V106.781H14.7262ZM14.4883 103.421H7.90088V103.897H14.4883V103.421ZM8.13876 103.659V101.222H7.66301V103.659H8.13876ZM8.08728 101.37L14.4272 93.3734L14.0544 93.0778L7.71449 101.074L8.08728 101.37ZM14.2408 93.4635H17.0586V92.9877H14.2408V93.4635ZM16.8207 93.2256V101.488H17.2964V93.2256H16.8207ZM14.7833 101.488V95.9862H14.3076V101.488H14.7833ZM14.359 95.8385L9.99911 101.341L10.372 101.636L14.7319 96.134L14.359 95.8385ZM10.1855 101.726H14.5454V101.251H10.1855V101.726ZM23.736 93.2256V92.9877H23.4981V93.2256H23.736ZM35.007 93.2256H35.2449V92.9877H35.007V93.2256ZM35.007 95.5293V95.7672H35.2449V95.5293H35.007ZM30.6661 95.5293V95.2914H30.4283V95.5293H30.6661ZM30.6661 106.781V107.019H30.904V106.781H30.6661ZM28.0769 106.781H27.839V107.019H28.0769V106.781ZM28.0769 95.5293H28.3147V95.2914H28.0769V95.5293ZM23.736 95.5293H23.4981V95.7672H23.736V95.5293ZM23.736 93.4635H35.007V92.9877H23.736V93.4635ZM34.7691 93.2256V95.5293H35.2449V93.2256H34.7691ZM35.007 95.2914H30.6661V95.7672H35.007V95.2914ZM30.4283 95.5293V106.781H30.904V95.5293H30.4283ZM30.6661 106.543H28.0769V107.019H30.6661V106.543ZM28.3147 106.781V95.5293H27.839V106.781H28.3147ZM28.0769 95.2914H23.736V95.7672H28.0769V95.2914ZM23.9739 95.5293V93.2256H23.4981V95.5293H23.9739ZM40.9009 96.843H41.1387V96.6367L40.9345 96.6075L40.9009 96.843ZM40.9009 99.0515V99.2893H41.1387V99.0515H40.9009ZM38.1783 99.7559L38.3419 99.9286L38.342 99.9285L38.1783 99.7559ZM37.4548 106.781V107.019H37.6927V106.781H37.4548ZM35.0559 106.781H34.8181V107.019H35.0559V106.781ZM35.0559 96.9572V96.7193H34.8181V96.9572H35.0559ZM37.3787 96.9572H37.6166V96.7193H37.3787V96.9572ZM37.3787 98.7088H37.1408L37.5972 98.8027L37.3787 98.7088ZM40.3107 97.0428C40.5174 97.0428 40.7026 97.0549 40.8672 97.0785L40.9345 96.6075C40.7437 96.5802 40.5355 96.567 40.3107 96.567V97.0428ZM40.663 96.843V99.0515H41.1387V96.843H40.663ZM40.9009 98.8136H40.2916V99.2893H40.9009V98.8136ZM40.2916 98.8136C39.338 98.8136 38.5671 99.0592 38.0146 99.5833L38.342 99.9285C38.7796 99.5134 39.4175 99.2893 40.2916 99.2893V98.8136ZM38.0147 99.5832C37.4699 100.099 37.217 100.851 37.217 101.793H37.6927C37.6927 100.933 37.9221 100.326 38.3419 99.9286L38.0147 99.5832ZM37.217 101.793V106.781H37.6927V101.793H37.217ZM37.4548 106.543H35.0559V107.019H37.4548V106.543ZM35.2938 106.781V96.9572H34.8181V106.781H35.2938ZM35.0559 97.1951H37.3787V96.7193H35.0559V97.1951ZM37.1408 96.9572V98.7088H37.6166V96.9572H37.1408ZM37.5972 98.8027C37.855 98.2031 38.2082 97.7676 38.6506 97.4804C39.0933 97.1929 39.6425 97.0428 40.3107 97.0428V96.567C39.57 96.567 38.9261 96.7342 38.3915 97.0814C37.8565 97.4287 37.4481 97.9452 37.1602 98.6148L37.5972 98.8027ZM51.0212 102.612V102.85H51.2591V102.612H51.0212ZM43.6722 102.612V102.374H43.4078L43.4357 102.637L43.6722 102.612ZM44.4528 104.516L44.2845 104.684L44.2896 104.689L44.4528 104.516ZM48.47 103.735V103.497H48.3137L48.2517 103.641L48.47 103.735ZM50.7737 103.735L51.0043 103.793L51.0793 103.497H50.7737V103.735ZM49.1744 106.134L49.3133 106.327L49.3152 106.326L49.1744 106.134ZM42.6632 105.601L42.8348 105.436L42.6632 105.601ZM42.6441 98.1376L42.4725 97.9729L42.4713 97.9741L42.6441 98.1376ZM49.7075 98.1947L49.8847 98.036L49.7075 98.1947ZM43.6913 100.936L43.4559 100.902L43.416 101.174H43.6913V100.936ZM48.6223 100.936V101.174H48.8959L48.8579 100.903L48.6223 100.936ZM47.8227 99.2228L47.657 99.3935L47.8227 99.2228ZM50.7833 102.041V102.612H51.2591V102.041H50.7833ZM51.0212 102.374H43.6722V102.85H51.0212V102.374ZM43.4357 102.637C43.5281 103.508 43.8022 104.201 44.2846 104.684L44.621 104.347C44.2403 103.967 43.994 103.391 43.9088 102.587L43.4357 102.637ZM44.2896 104.689C44.7868 105.157 45.4398 105.382 46.2234 105.382V104.906C45.5347 104.906 45.0073 104.712 44.616 104.343L44.2896 104.689ZM46.2234 105.382C46.8034 105.382 47.3098 105.257 47.7301 104.993C48.1515 104.729 48.4693 104.336 48.6883 103.829L48.2517 103.641C48.0646 104.073 47.8049 104.385 47.4774 104.59C47.1488 104.796 46.735 104.906 46.2234 104.906V105.382ZM48.47 103.973H50.7737V103.497H48.47V103.973ZM50.5431 103.677C50.3024 104.627 49.8002 105.379 49.0336 105.942L49.3152 106.326C50.1733 105.696 50.7373 104.848 51.0043 103.793L50.5431 103.677ZM49.0356 105.941C48.2702 106.491 47.3309 106.772 46.2044 106.772V107.248C47.4133 107.248 48.454 106.945 49.3133 106.327L49.0356 105.941ZM46.2044 106.772C44.8009 106.772 43.6855 106.323 42.8348 105.436L42.4915 105.766C43.4432 106.757 44.6886 107.248 46.2044 107.248V106.772ZM42.8348 105.436C41.984 104.549 41.5493 103.369 41.5493 101.869H41.0735C41.0735 103.467 41.54 104.774 42.4915 105.766L42.8348 105.436ZM41.5493 101.869C41.5493 100.369 41.9782 99.1877 42.8169 98.3011L42.4713 97.9741C41.533 98.966 41.0735 100.273 41.0735 101.869H41.5493ZM42.8158 98.3023C43.6668 97.4153 44.7762 96.9666 46.1663 96.9666V96.4909C44.6625 96.4909 43.4237 96.9815 42.4725 97.9729L42.8158 98.3023ZM46.1663 96.9666C47.5936 96.9666 48.7059 97.4334 49.5304 98.3535L49.8847 98.036C48.9576 97.0014 47.7091 96.4909 46.1663 96.4909V96.9666ZM49.5304 98.3535C50.3593 99.2785 50.7833 100.5 50.7833 102.041H51.2591C51.2591 100.408 50.8074 99.0657 49.8847 98.036L49.5304 98.3535ZM46.1473 98.3567C45.3975 98.3567 44.7763 98.5656 44.3125 99.0078C43.852 99.4468 43.5748 100.089 43.4559 100.902L43.9266 100.971C44.0361 100.222 44.2825 99.6937 44.6408 99.3521C44.9956 99.0138 45.4882 98.8324 46.1473 98.8324V98.3567ZM43.6913 101.174H48.6223V100.698H43.6913V101.174ZM48.8579 100.903C48.7506 100.139 48.4655 99.5152 47.9884 99.0521L47.657 99.3935C48.043 99.7682 48.2909 100.287 48.3868 100.969L48.8579 100.903ZM47.9884 99.0521C47.5061 98.5841 46.8852 98.3567 46.1473 98.3567V98.8324C46.7802 98.8324 47.2761 99.0238 47.657 99.3935L47.9884 99.0521ZM61.8421 102.612V102.85H62.08V102.612H61.8421ZM54.4931 102.612V102.374H54.2287L54.2566 102.637L54.4931 102.612ZM55.2737 104.516L55.1054 104.684L55.1105 104.689L55.2737 104.516ZM59.2909 103.735V103.497H59.1346L59.0726 103.641L59.2909 103.735ZM61.5946 103.735L61.8252 103.793L61.9002 103.497H61.5946V103.735ZM59.9954 106.134L60.1342 106.327L60.1362 106.326L59.9954 106.134ZM53.4841 105.601L53.6557 105.436L53.4841 105.601ZM53.465 98.1376L53.2934 97.9729L53.2922 97.9741L53.465 98.1376ZM60.5284 98.1947L60.7056 98.036L60.5284 98.1947ZM54.5122 100.936L54.2768 100.902L54.2369 101.174H54.5122V100.936ZM59.4432 100.936V101.174H59.7168L59.6788 100.903L59.4432 100.936ZM58.6436 99.2228L58.4779 99.3935L58.6436 99.2228ZM61.6043 102.041V102.612H62.08V102.041H61.6043ZM61.8421 102.374H54.4931V102.85H61.8421V102.374ZM54.2566 102.637C54.349 103.508 54.6231 104.201 55.1055 104.684L55.4419 104.347C55.0612 103.967 54.8149 103.391 54.7297 102.587L54.2566 102.637ZM55.1105 104.689C55.6077 105.157 56.2607 105.382 57.0443 105.382V104.906C56.3556 104.906 55.8282 104.712 55.4369 104.343L55.1105 104.689ZM57.0443 105.382C57.6243 105.382 58.1307 105.257 58.551 104.993C58.9724 104.729 59.2902 104.336 59.5093 103.829L59.0726 103.641C58.8855 104.073 58.6258 104.385 58.2983 104.59C57.9697 104.796 57.5559 104.906 57.0443 104.906V105.382ZM59.2909 103.973H61.5946V103.497H59.2909V103.973ZM61.364 103.677C61.1233 104.627 60.6211 105.379 59.8546 105.942L60.1362 106.326C60.9942 105.696 61.5582 104.848 61.8252 103.793L61.364 103.677ZM59.8565 105.941C59.0911 106.491 58.1518 106.772 57.0253 106.772V107.248C58.2342 107.248 59.2749 106.945 60.1342 106.327L59.8565 105.941ZM57.0253 106.772C55.6218 106.772 54.5064 106.323 53.6557 105.436L53.3124 105.766C54.2641 106.757 55.5095 107.248 57.0253 107.248V106.772ZM53.6557 105.436C52.8049 104.549 52.3702 103.369 52.3702 101.869H51.8944C51.8944 103.467 52.3609 104.774 53.3124 105.766L53.6557 105.436ZM52.3702 101.869C52.3702 100.369 52.7992 99.1877 53.6378 98.3011L53.2922 97.9741C52.3539 98.966 51.8944 100.273 51.8944 101.869H52.3702ZM53.6367 98.3023C54.4878 97.4153 55.5971 96.9666 56.9872 96.9666V96.4909C55.4834 96.4909 54.2447 96.9815 53.2934 97.9729L53.6367 98.3023ZM56.9872 96.9666C58.4145 96.9666 59.5268 97.4334 60.3513 98.3535L60.7056 98.036C59.7785 97.0014 58.53 96.4909 56.9872 96.4909V96.9666ZM60.3513 98.3535C61.1802 99.2785 61.6043 100.5 61.6043 102.041H62.08C62.08 100.408 61.6283 99.0657 60.7056 98.036L60.3513 98.3535ZM56.9682 98.3567C56.2184 98.3567 55.5972 98.5656 55.1334 99.0078C54.6729 99.4468 54.3957 100.089 54.2768 100.902L54.7475 100.971C54.8571 100.222 55.1034 99.6937 55.4617 99.3521C55.8165 99.0138 56.3091 98.8324 56.9682 98.8324V98.3567ZM54.5122 101.174H59.4432V100.698H54.5122V101.174ZM59.6788 100.903C59.5715 100.139 59.2864 99.5152 58.8093 99.0521L58.4779 99.3935C58.8639 99.7682 59.1119 100.287 59.2077 100.969L59.6788 100.903ZM58.8093 99.0521C58.327 98.5841 57.7061 98.3567 56.9682 98.3567V98.8324C57.6011 98.8324 58.0971 99.0238 58.4779 99.3935L58.8093 99.0521ZM62.7442 103.659V103.421H62.4926L62.5067 103.672L62.7442 103.659ZM65.086 103.659L65.3226 103.634L65.3004 103.421H65.086V103.659ZM65.6762 104.954L65.5312 105.142L65.5346 105.145L65.6762 104.954ZM68.7986 103.335L68.9326 103.139L68.7986 103.335ZM67.2945 102.859L67.3356 102.625L67.3343 102.625L67.2945 102.859ZM66.1712 102.669L66.211 102.434L66.2101 102.434L66.1712 102.669ZM64.0198 97.5284L64.1604 97.7203L64.1626 97.7187L64.0198 97.5284ZM71.3688 100.061V100.298H71.6164L71.6065 100.051L71.3688 100.061ZM69.1032 100.061L68.8656 100.071L68.8755 100.298H69.1032V100.061ZM68.5511 98.823L68.4095 99.0142L68.4142 99.0175L68.5511 98.823ZM65.6953 100.365L65.5525 100.556L65.5588 100.56L65.6953 100.365ZM66.9518 100.784L66.9111 101.018L66.9157 101.019L66.9518 100.784ZM68.1894 100.974L68.2317 100.74L68.2255 100.739L68.1894 100.974ZM70.7786 102.002L70.6214 102.181L70.6235 102.183L70.7786 102.002ZM70.455 106.248L70.3186 106.053L70.455 106.248ZM67.2374 106.81C65.829 106.81 64.7968 106.532 64.106 106.011C63.4245 105.497 63.0422 104.721 62.9817 103.646L62.5067 103.672C62.5732 104.856 63.0032 105.775 63.8195 106.39C64.6263 106.999 65.7773 107.286 67.2374 107.286V106.81ZM62.7442 103.897H65.086V103.421H62.7442V103.897ZM64.8494 103.684C64.9165 104.327 65.1293 104.833 65.5312 105.142L65.8213 104.765C65.5632 104.566 65.3825 104.209 65.3226 103.634L64.8494 103.684ZM65.5346 105.145C65.9382 105.444 66.5331 105.572 67.2755 105.572V105.096C66.571 105.096 66.0997 104.971 65.8178 104.762L65.5346 105.145ZM67.2755 105.572C67.9392 105.572 68.4767 105.473 68.8555 105.242C69.2535 105.001 69.4553 104.626 69.4553 104.154H68.9796C68.9796 104.468 68.8578 104.684 68.6084 104.836C68.3399 104.999 67.9065 105.096 67.2755 105.096V105.572ZM69.4553 104.154C69.4553 103.725 69.2807 103.376 68.9326 103.139L68.6646 103.532C68.875 103.675 68.9796 103.872 68.9796 104.154H69.4553ZM68.9326 103.139C68.6081 102.917 68.0623 102.752 67.3356 102.625L67.2534 103.094C67.9737 103.22 68.4307 103.372 68.6646 103.532L68.9326 103.139ZM67.3343 102.625L66.211 102.434L66.1315 102.903L67.2548 103.094L67.3343 102.625ZM66.2101 102.434C65.1623 102.261 64.4087 101.937 63.9194 101.485C63.4377 101.04 63.1915 100.453 63.1915 99.6988H62.7158C62.7158 100.569 63.0059 101.289 63.5967 101.835C64.18 102.373 65.0351 102.722 66.1324 102.904L66.2101 102.434ZM63.1915 99.6988C63.1915 98.8435 63.5144 98.1932 64.1604 97.7203L63.8793 97.3364C63.1037 97.9043 62.7158 98.701 62.7158 99.6988H63.1915ZM64.1626 97.7187C64.8172 97.2277 65.7622 96.9666 67.028 96.9666V96.4909C65.7045 96.4909 64.6441 96.7628 63.8771 97.3381L64.1626 97.7187ZM67.028 96.9666C68.4047 96.9666 69.4073 97.2401 70.0722 97.7504C70.7274 98.2533 71.0889 99.0131 71.1312 100.07L71.6065 100.051C71.56 98.8868 71.1535 97.9806 70.3618 97.373C69.5798 96.7727 68.4563 96.4909 67.028 96.4909V96.9666ZM71.3688 99.8227H69.1032V100.298H71.3688V99.8227ZM69.3409 100.05C69.3136 99.4235 69.1124 98.9272 68.688 98.6285L68.4142 99.0175C68.6751 99.2012 68.842 99.5298 68.8656 100.071L69.3409 100.05ZM68.6927 98.6319C68.2914 98.3346 67.7243 98.2044 67.028 98.2044V98.6801C67.6771 98.6801 68.1253 98.8037 68.4095 99.0142L68.6927 98.6319ZM67.028 98.2044C66.4379 98.2044 65.9537 98.3013 65.6109 98.5299C65.2511 98.7698 65.0766 99.1345 65.0766 99.5846H65.5524C65.5524 99.2731 65.6635 99.0666 65.8748 98.9257C66.1031 98.7735 66.4757 98.6801 67.028 98.6801V98.2044ZM65.0766 99.5846C65.0766 99.9859 65.236 100.318 65.5525 100.555L65.838 100.175C65.6468 100.031 65.5524 99.8432 65.5524 99.5846H65.0766ZM65.5588 100.56C65.8569 100.769 66.3186 100.915 66.9111 101.018L66.9926 100.55C66.4173 100.45 66.0413 100.317 65.8317 100.17L65.5588 100.56ZM66.9157 101.019L68.1532 101.21L68.2255 100.739L66.988 100.549L66.9157 101.019ZM68.147 101.208C69.324 101.421 70.1364 101.754 70.6214 102.181L70.9359 101.824C70.3547 101.312 69.4409 100.959 68.2317 100.74L68.147 101.208ZM70.6235 102.183C71.1079 102.6 71.3594 103.183 71.3594 103.963H71.8352C71.8352 103.069 71.5409 102.345 70.9338 101.822L70.6235 102.183ZM71.3594 103.963C71.3594 104.882 71.0118 105.568 70.3186 106.053L70.5914 106.443C71.4213 105.862 71.8352 105.025 71.8352 103.963H71.3594ZM70.3186 106.053C69.6122 106.548 68.5946 106.81 67.2374 106.81V107.286C68.6472 107.286 69.7747 107.015 70.5914 106.443L70.3186 106.053Z" fill="white"/>
<path d="M34.1994 40.4023L34.1994 46.7004L33.5046 52.6485C32.9256 56.3806 32.6511 61.4606 28.9885 66.9939C26.9041 70.1429 25.723 76.5809 30.7255 78.5403M44.2737 40.4023L44.9685 52.6485C45.4317 56.3806 47.1224 64.4747 50.1794 66.9939C51.6848 69.5598 53.6533 76.4409 47.0529 78.5403M30.7255 73.9917C32.115 74.4582 34.5468 74.6915 36.9785 77.8405C38.7882 80.184 41.1472 79.59 42.1894 77.8405C43.9264 76.0911 45.3159 73.9917 48.0951 73.9917" stroke="white" stroke-width="2.1335" stroke-linecap="round"/>
<path d="M38.8616 22.7821L38.8677 22.793L38.8764 22.802C38.8821 22.8079 38.8871 22.8135 38.8918 22.819C37.7126 23.2337 36.2708 23.4342 34.7166 23.242C33.7586 23.1139 33.1143 22.5938 32.6274 21.8231C32.1373 21.0473 31.8105 20.0234 31.4916 18.8991C31.4362 18.7037 31.381 18.5053 31.3253 18.305C31.0618 17.3573 30.7856 16.364 30.4095 15.4229C29.9768 14.34 29.4091 13.3182 28.5685 12.503C29.4751 12.3121 32.8366 11.6575 35.9748 12.1641C37.686 12.4404 39.3184 13.0601 40.452 14.2762C41.5827 15.489 42.2307 17.3097 41.9465 20.018C41.9008 20.4196 41.6709 20.8557 41.2801 21.2793C40.9167 21.6732 40.4189 22.0509 39.8169 22.3732C39.8086 22.3251 39.7932 22.2747 39.765 22.2292C39.6021 21.9138 39.483 21.4479 39.3609 20.9166L39.3607 20.9159L39.3601 20.9133C39.1779 20.1453 38.9551 19.2063 38.4199 18.4096C37.88 17.6061 37.0262 16.9523 35.5961 16.746L35.5961 16.746L35.5922 16.7456C35.3017 16.7154 35.0263 16.8985 34.9959 17.2135C34.9678 17.5051 35.1377 17.7932 35.4477 17.8266C36.5424 17.9874 37.1687 18.453 37.5696 19.0566C37.9705 19.6602 38.1507 20.4074 38.3322 21.16L38.3393 21.1894L38.3395 21.1903C38.355 21.2516 38.3702 21.313 38.3854 21.3741C38.5123 21.8855 38.6363 22.3852 38.8616 22.7821Z" fill="white" stroke="white" stroke-width="0.19768"/>
<path d="M50.2006 34.2383L50.2006 34.2383L50.2012 34.2378C52.6428 32.5738 54.7098 32.1516 56.4398 32.4557C58.1717 32.7601 59.5835 33.7954 60.7071 35.0806C62.7565 37.425 63.8256 40.5765 64.1095 41.5269C61.654 40.3722 58.9966 41.0118 56.6521 41.576C56.5674 41.5964 56.4831 41.6167 56.3992 41.6368C55.1571 41.9345 54.0137 42.191 53.0256 42.1413C52.0459 42.092 51.2259 41.7421 50.6185 40.8257C50.3533 40.4134 50.1288 40.0435 49.9264 39.6778C50.0027 39.6517 50.0881 39.6086 50.1494 39.5264C51.1705 38.3697 52.2153 37.8842 53.2037 37.755C54.1964 37.6252 55.1425 37.8534 55.9658 38.1421L55.9662 38.1422C56.2407 38.237 56.5399 38.0786 56.6291 37.801C56.718 37.5248 56.5718 37.2155 56.2991 37.1212C55.4153 36.8159 54.3011 36.5388 53.0966 36.6869C51.9146 36.8321 50.6541 37.3856 49.4436 38.7046C48.9396 37.5316 48.8337 36.6242 48.9892 35.9151C49.1501 35.1812 49.5944 34.6448 50.2006 34.2383Z" fill="white" stroke="white" stroke-width="0.19768"/>
<path d="M53.9915 44.748L53.9915 44.748L53.9922 44.7474C54.8844 43.9452 55.8543 43.8089 56.9151 44.0394C57.9838 44.2717 59.1365 44.8747 60.3814 45.5476C60.461 45.5906 60.5409 45.6339 60.6212 45.6774C62.9805 46.955 65.6515 48.4015 68.5812 47.8485C68.0447 48.746 66.0662 51.8084 63.2476 53.7234C61.7105 54.7677 59.9314 55.4655 58.0046 55.2936C56.0793 55.1219 53.9886 54.0803 51.8301 51.6105L51.8298 51.6102C51.3284 51.041 51.0059 50.3985 50.9795 49.6499C50.9543 48.9356 51.1982 48.1116 51.8369 47.1487C53.4037 49.9189 56.0495 50.8645 58.072 50.8645H58.0757C58.2433 50.8645 58.4435 50.8645 58.6209 50.8384C58.9172 50.8066 59.1267 50.5571 59.0971 50.2506C59.0682 49.9511 58.8316 49.7268 58.5273 49.7571L58.5271 49.7571C58.1058 49.7828 54.5658 49.9988 52.6728 46.4993C52.6309 46.4138 52.5628 46.3439 52.4783 46.2974C52.876 45.8043 53.3801 45.2878 53.9915 44.748Z" fill="white" stroke="white" stroke-width="0.19768"/>
<path d="M9.47955 30.6421L9.4795 30.642L9.47769 30.645C9.33193 30.8868 9.38503 31.2256 9.62931 31.3849C9.72041 31.4474 9.83735 31.4774 9.92815 31.4774C10.1048 31.4774 10.2849 31.387 10.3781 31.2283C11.1026 30.1219 12.2075 29.6021 13.3477 29.3968C14.4867 29.1918 15.6532 29.3024 16.4882 29.4524C16.5405 29.4695 16.5921 29.4762 16.6397 29.4788C16.6947 30.4096 16.5217 31.6094 16.0041 33.2188L16.004 33.2191C15.6676 34.2774 14.9734 34.8481 14.0455 35.174C13.1098 35.5025 11.9426 35.5799 10.6699 35.6464C10.5882 35.6507 10.506 35.6549 10.4235 35.6591C8.01897 35.7827 5.29324 35.9229 3.25044 37.7468C3.27466 36.7463 3.46815 33.4205 4.80774 30.5866C5.54439 29.0283 6.62349 27.6274 8.20306 26.839C9.78059 26.0515 11.8729 25.867 14.6531 26.771C15.4369 27.0264 16.0642 27.4962 16.3888 28.3473C15.437 28.1979 14.1874 28.1147 12.9566 28.3686C11.6514 28.6379 10.3632 29.2876 9.47955 30.6421Z" fill="white" stroke="white" stroke-width="0.19768"/>
<path d="M19.3163 12.7576L19.3163 12.7576C19.2868 12.4512 19.4947 12.2069 19.7583 12.1462L19.7703 12.1435L19.7703 12.1442C20.0738 12.1128 20.3077 12.334 20.3649 12.601L20.3669 12.6101L20.3664 12.6101C20.5702 14.3372 21.3585 15.3481 22.2984 15.9739C23.2439 16.6034 24.3478 16.847 25.1903 17.0242C25.1904 17.0242 25.1904 17.0242 25.1905 17.0242L25.1701 17.121C25.2311 17.1336 25.286 17.1462 25.3408 17.1589C25.3957 17.1715 25.4506 17.1841 25.5115 17.1968L19.3163 12.7576ZM19.3163 12.7576L19.3166 12.7597C19.5639 14.8492 20.5252 16.094 21.6546 16.8615C22.742 17.6004 23.9805 17.8934 24.8655 18.0833C24.5501 18.3044 24.1897 18.453 23.8131 18.5147C21.2119 18.9222 19.4051 18.4173 18.1536 17.4315C16.8995 16.4436 16.1882 14.961 15.8039 13.385C15.1036 10.5133 15.4978 7.36912 15.6293 6.46599C17.1536 8.00928 19.3234 8.57339 21.2884 9.08426C21.4911 9.13695 21.6916 9.18908 21.889 9.24165C22.9812 9.53257 23.9764 9.83596 24.741 10.3167C25.5003 10.7941 26.0291 11.4445 26.1944 12.4357L26.1945 12.4358C26.5699 14.6733 26.2836 16.2108 25.7062 17.1757L19.3163 12.7576Z" fill="white" stroke="white" stroke-width="0.19768"/>
<path d="M38.0252 10.3403V10.3398V10.3389V10.338V10.3371V10.3362V10.3353V10.3344V10.3335V10.3326V10.3317V10.3308V10.3299V10.329V10.328V10.3271V10.3262V10.3253V10.3244V10.3235V10.3226V10.3217V10.3208V10.3199V10.3189V10.318V10.3171V10.3162V10.3153V10.3144V10.3135V10.3126V10.3116V10.3107V10.3098V10.3089V10.308V10.3071V10.3062V10.3052V10.3043V10.3034V10.3025V10.3016V10.3007V10.2998V10.2988V10.2979V10.297V10.2961V10.2952V10.2943V10.2933V10.2924V10.2915V10.2906V10.2897V10.2887V10.2878V10.2869V10.286V10.2851V10.2841V10.2832V10.2823V10.2814V10.2805V10.2795V10.2786V10.2777V10.2768V10.2758V10.2749V10.274V10.2731V10.2722V10.2712V10.2703V10.2694V10.2685V10.2675V10.2666V10.2657V10.2647V10.2638V10.2629V10.262V10.261V10.2601V10.2592V10.2583V10.2573V10.2564V10.2555V10.2545V10.2536V10.2527V10.2517V10.2508V10.2499V10.249V10.248V10.2471V10.2462V10.2452V10.2443V10.2434V10.2424V10.2415V10.2406V10.2396V10.2387V10.2378V10.2368V10.2359V10.2349V10.234V10.2331V10.2321V10.2312V10.2303V10.2293V10.2284V10.2274V10.2265V10.2256V10.2246V10.2237V10.2227V10.2218V10.2209V10.2199V10.219V10.218V10.2171V10.2161V10.2152V10.2143V10.2133V10.2124V10.2114V10.2105V10.2095V10.2086V10.2076V10.2067V10.2057V10.2048V10.2039V10.2029V10.202V10.201V10.2001V10.1991V10.1982V10.1972V10.1963V10.1953V10.1944V10.1934V10.1925V10.1915V10.1905V10.1896V10.1886V10.1877V10.1867V10.1858V10.1848V10.1839V10.1829V10.182V10.181V10.18V10.1791V10.1781V10.1772V10.1762V10.1752V10.1743V10.1733V10.1724V10.1714V10.1704V10.1695V10.1685V10.1676V10.1666V10.1656V10.1647V10.1637V10.1627V10.1618V10.1608V10.1598V10.1589V10.1579V10.1569V10.156V10.155V10.154V10.1531V10.1521V10.1511V10.1502V10.1492V10.1482V10.1472V10.1463V10.1453V10.1443V10.1434V10.1424V10.1414V10.1404V10.1395V10.1385V10.1375V10.1365V10.1356V10.1346V10.1336V10.1326V10.1316V10.1307V10.1297V10.1287V10.1277V10.1267V10.1258V10.1248V10.1238V10.1228V10.1218V10.1209V10.1199V10.1189V10.1179V10.1169V10.1159V10.1149V10.114V10.113V10.112V10.111V10.11V10.109V10.108V10.107V10.106V10.1051V10.1041V10.1031V10.1021V10.1011V10.1001V10.0991V10.0981V10.0971V10.0961V10.0951V10.0941V10.0931V10.0921V10.0911V10.0901V10.0891V10.0881V10.0871V10.0861V10.0851V10.0841V10.0831V10.0821V10.0811V10.0801V10.0791V10.0781V10.0771V10.0761V10.0751V10.0741V10.0731V10.0721V10.0711V10.0701V10.0691V10.068V10.067V10.066V10.065V10.064V10.063V10.062V10.061V10.06V10.0589V10.0579V10.0569V10.0559V10.0549V10.0539V10.0528V10.0518V10.0508V10.0498V10.0488V10.0477V10.0467V10.0457V10.0447V10.0437V10.0426V10.0416V10.0406V10.0396V10.0385V10.0375V10.0365V10.0355V10.0344V10.0334V10.0324V10.0313V10.0303V10.0293V10.0283V10.0272V10.0262V10.0252V10.0241V10.0231V10.0221V10.021V10.02V10.019V10.0179L38.0256 9.9949C38.0377 9.12875 38.0532 8.0279 37.6532 6.95953C37.2473 5.87544 36.4171 4.83232 34.7481 4.08895C34.4747 3.9634 34.1734 4.09273 34.0555 4.36752C33.9372 4.6436 34.0557 4.9538 34.3245 5.07762L34.3245 5.07763L34.326 5.0783C35.6815 5.67507 36.3379 6.48377 36.657 7.34451C36.9755 8.20319 36.9622 9.12192 36.95 9.96492L36.9496 9.99122H36.9496V9.99264V9.99397V9.99531V9.99664V9.99798V9.99931V10.0006V10.002V10.0033V10.0047V10.006V10.0073V10.0087V10.01V10.0114V10.0127V10.014V10.0154V10.0167V10.0181V10.0194V10.0208V10.0221V10.0234V10.0248V10.0261V10.0275V10.0288V10.0302V10.0315V10.0329V10.0342V10.0356V10.0369V10.0383V10.0396V10.041V10.0423V10.0437V10.045V10.0464V10.0477V10.0491V10.0504V10.0518V10.0532V10.0545V10.0559V10.0572V10.0586V10.0599V10.0613V10.0627V10.064V10.0654V10.0667V10.0681V10.0695V10.0708V10.0722V10.0735V10.0749V10.0763V10.0776V10.079V10.0803V10.0817V10.0831V10.0844V10.0858V10.0872V10.0885V10.0899V10.0913V10.0926V10.094V10.0954V10.0967V10.0981V10.0995V10.1008V10.1022V10.1036V10.1049V10.1063V10.1077V10.1091V10.1104V10.1118V10.1132V10.1145V10.1159V10.1173V10.1187V10.12V10.1214V10.1228V10.1241V10.1255V10.1269V10.1283V10.1296V10.131V10.1324V10.1338V10.1351V10.1365V10.1379V10.1393V10.1406V10.142V10.1434V10.1448V10.1461V10.1475V10.1489V10.1503V10.1517V10.153V10.1544V10.1558V10.1572V10.1585V10.1599V10.1613V10.1627V10.1641V10.1654V10.1668V10.1682V10.1696V10.171V10.1723V10.1737V10.1751V10.1765V10.1779V10.1792V10.1806V10.182V10.1834V10.1848V10.1861V10.1875V10.1889V10.1903V10.1917V10.193V10.1944V10.1958V10.1972V10.1986V10.1999V10.2013V10.2027V10.2041V10.2055V10.2069V10.2082V10.2096V10.211V10.2124V10.2138V10.2152V10.2165V10.2179V10.2193V10.2207V10.2221V10.2234V10.2248V10.2262V10.2276V10.229V10.2304V10.2317V10.2331V10.2345V10.2359V10.2373V10.2387V10.24V10.2414V10.2428V10.2442V10.2456V10.2469V10.2483V10.2497V10.2511V10.2525V10.2539V10.2552V10.2566V10.258V10.2594V10.2608V10.2621V10.2635V10.2649V10.2663V10.2677V10.269V10.2704V10.2718V10.2732V10.2746V10.2759V10.2773V10.2787V10.2801V10.2815V10.2828V10.2842V10.2856V10.287V10.2884V10.2897V10.2911V10.2925V10.2939V10.2953V10.2966V10.298V10.2994V10.3008V10.3021V10.3035V10.3049V10.3063V10.3076V10.309V10.3104V10.3118V10.3132V10.3145V10.3159V10.3173V10.3187V10.32V10.3214V10.3228V10.3242V10.3255V10.3269V10.3283V10.3296V10.331V10.3324V10.3338V10.3351V10.3365V10.3379V10.3392V10.3406V10.342V10.3434V10.3447V10.3461V10.3475V10.3488V10.3502V10.3516V10.3529V10.3543V10.3557V10.357V10.3584V10.3598V10.3611V10.3625V10.3639V10.3652V10.3666V10.368V10.3693V10.3707V10.3721V10.3734V10.3748V10.3761V10.3775V10.3789V10.3802V10.3816V10.383V10.3843V10.3857V10.387V10.3884V10.3897V10.3911V10.3925V10.3938V10.3952V10.3965V10.3979V10.3992V10.4006V10.402V10.4033V10.4047V10.406V10.4074V10.4087V10.4101V10.4114V10.4128V10.4141V10.4155V10.4168V10.4182V10.4195V10.4209V10.4222V10.4236V10.4249V10.4263V10.4276V10.429V10.4303V10.4316V10.433V10.4343V10.4357V10.437V10.4384V10.4397V10.441V10.4424V10.4437V10.4451V10.4464V10.4477V10.4491V10.4504V10.4517V10.4531V10.4544V10.4557V10.4571V10.4584V10.4597V10.4611V10.4624V10.4637V10.4651V10.4664V10.4677V10.4691V10.4704V10.4717V10.473V10.4744V10.4757V10.477V10.4783V10.4797V10.481V10.4823V10.4836V10.485V10.4863V10.4876V10.4889V10.4902V10.4916V10.4929V10.4942V10.4955V10.4968V10.4981V10.4994V10.5008V10.5021V10.5034V10.5047V10.506V10.5073V10.5086V10.5099V10.5112V10.5125V10.5139V10.5152V10.5165V10.5178V10.5191V10.5204V10.5217V10.523V10.5243V10.5256V10.5269V10.5282V10.5295V10.5308V10.5321V10.5334V10.5347V10.5359V10.5372V10.5385V10.5398V10.5411V10.5424V10.5437V10.545V10.5463V10.5476V10.5488V10.5501V10.5514V10.5527V10.554V10.5553V10.5565V10.5578V10.5591V10.5604V10.5617V10.5629V10.5642V10.5655V10.5668V10.568V10.5693V10.5706V10.5718V10.5731V10.5744V10.5756V10.5769V10.5782V10.5794V10.5807V10.582V10.5832V10.5845V10.5858V10.587V10.5883V10.5895V10.5908V10.592V10.5933V10.5946V10.5958V10.5971V10.5983V10.5996V10.6008V10.6021V10.6033V10.6046V10.6058V10.607V10.6083V10.6095V10.6108V10.612V10.6133V10.6145V10.6157V10.617V10.6182V10.6194V10.6207V10.6219V10.6231V10.6244V10.6256V10.6268V10.6281V10.6293V10.6305V10.6317V10.633V10.6342V10.6354V10.6366V10.6378V10.6391V10.6403V10.6415V10.6427V10.6439V10.6451V10.6464V10.6476V10.6488V10.65V10.6512V10.6524V10.6536V10.6548V10.656V10.6572V10.6584V10.6596V10.6608V10.662V10.6632V10.6644V10.6656V10.6668V10.668V10.6692V10.6704V10.6716V10.6727V10.6739V10.6751V10.6977L36.9539 10.7066C36.2763 10.8886 35.4626 10.9795 34.4902 10.9555L34.4897 10.9554C33.5254 10.9372 32.8269 10.4962 32.2559 9.7899C31.6812 9.07897 31.2401 8.10437 30.7961 7.02914C30.7166 6.83662 30.6371 6.64095 30.5567 6.44323C30.1901 5.54139 29.806 4.59677 29.3312 3.71354C28.7816 2.69095 28.1065 1.74304 27.1868 1.02853C28.0207 0.756942 30.968 -0.129458 33.8196 0.154069C35.3791 0.309132 36.8996 0.813175 38.0317 1.94897C39.1623 3.08335 39.9188 4.86124 39.9248 7.59157C39.9248 8.60105 39.3567 9.66695 38.0252 10.3403Z" fill="white" stroke="white" stroke-width="0.19768"/>
<path d="M21.5795 50.8133L21.5794 50.8135C21.4287 51.0635 21.519 51.3992 21.7554 51.5533C21.8411 51.6123 21.9331 51.6458 22.0299 51.6458C22.2072 51.6458 22.3879 51.5548 22.4808 51.3951C23.169 50.252 24.4076 49.6238 25.6737 49.2887C26.8904 48.9666 28.1175 48.9194 28.8662 48.9386C28.932 49.622 28.9516 50.4225 28.8818 51.3628L28.8818 51.3629C28.7991 52.4957 28.2438 53.2429 27.3977 53.8101C26.5451 54.3816 25.4029 54.7664 24.1548 55.1686C24.0774 55.1936 23.9995 55.2186 23.9213 55.2437C21.5583 56.0031 18.8821 56.8632 17.2939 59.2104C17.0758 58.2201 16.4589 54.8726 17.1029 51.7089C17.457 49.9698 18.1903 48.2953 19.5714 47.0959C20.9508 45.898 22.9889 45.1633 25.9753 45.3265L25.9768 45.3266C26.6065 45.3512 27.1807 45.5292 27.6507 45.9346C28.1012 46.3232 28.465 46.9287 28.6849 47.8326C27.6571 47.8285 26.3078 47.9262 25.0155 48.3278C23.6695 48.746 22.3767 49.4965 21.5795 50.8133Z" fill="white" stroke="white" stroke-width="0.19768"/>
<path d="M46.9482 11.6191L46.9482 11.619C46.4516 8.93901 46.8657 7.04607 47.7655 5.71074C48.6665 4.37376 50.0647 3.58057 51.5653 3.12164C54.305 2.28378 57.3532 2.56952 58.2324 2.66502C57.4593 3.54955 56.9687 4.61317 56.615 5.72466C56.3085 6.68787 56.1031 7.69293 55.9072 8.65181C55.8649 8.85899 55.823 9.064 55.7806 9.26598C55.5411 10.4076 55.2865 11.4497 54.8532 12.2594C54.4226 13.0641 53.8188 13.6334 52.878 13.8406C51.877 14.0578 51.0152 14.1347 50.2909 14.0745V14.0735V14.0723V14.0711V14.0699V14.0687V14.0675V14.0663V14.0651V14.0639V14.0627V14.0614V14.0602V14.059V14.0578V14.0566V14.0554V14.0542V14.053V14.0517V14.0505V14.0493V14.0481V14.0469V14.0457V14.0444V14.0432V14.042V14.0408V14.0396V14.0383V14.0371V14.0359V14.0347V14.0335V14.0322V14.031V14.0298V14.0286V14.0273V14.0261V14.0249V14.0236V14.0224V14.0212V14.02V14.0187V14.0175V14.0163V14.015V14.0138V14.0126V14.0113V14.0101V14.0089V14.0076V14.0064V14.0052V14.0039V14.0027V14.0014V14.0002V13.999V13.9977V13.9965V13.9952V13.994V13.9928V13.9915V13.9903V13.989V13.9878V13.9865V13.9853V13.984V13.9828V13.9815V13.9803V13.9791V13.9778V13.9766V13.9753V13.9741V13.9728V13.9715V13.9703V13.969V13.9678V13.9665V13.9653V13.964V13.9628V13.9615V13.9603V13.959V13.9577V13.9565V13.9552V13.954V13.9527V13.9514V13.9502V13.9489V13.9476V13.9464V13.9451V13.9439V13.9426V13.9413V13.9401V13.9388V13.9375V13.9362V13.935V13.9337V13.9324V13.9312V13.9299V13.9286V13.9274V13.9261V13.9248V13.9235V13.9223V13.921V13.9197V13.9184V13.9172V13.9159V13.9146V13.9133V13.912V13.9108V13.9095V13.9082V13.9069V13.9056V13.9044V13.9031V13.9018V13.9005V13.8992V13.8979V13.8966V13.8954V13.8941V13.8928V13.8915V13.8902V13.8889V13.8876V13.8863V13.885V13.8837V13.8825V13.8812V13.8799V13.8786V13.8773V13.876V13.8747V13.8734V13.8721V13.8708V13.8695V13.8682V13.8669V13.8656V13.8643V13.863V13.8617V13.8604V13.8591V13.8578V13.8565V13.8552V13.8539V13.8526V13.8513V13.8499V13.8486V13.8473V13.846V13.8447V13.8434V13.8421V13.8408V13.8395V13.8382V13.8368V13.8355V13.8342V13.8329V13.8316V13.8303V13.829V13.8276V13.8263V13.825V13.8237V13.8224V13.821V13.8197V13.8184V13.8171V13.8158V13.8144V13.8131V13.8118V13.8105V13.8091V13.8078V13.8065V13.8052V13.8038V13.8025V13.8012V13.7998V13.7985V13.7972V13.7959V13.7945V13.7932V13.7919V13.7905V13.7892V13.7879V13.7865V13.7852V13.7838V13.7825V13.7812V13.7798V13.7785V13.7772V13.7758V13.7745V13.7731V13.7718V13.7705V13.7691V13.7678V13.7664V13.7651V13.7637V13.7624V13.761V13.7597V13.7584V13.757V13.7557V13.7543V13.753V13.7516V13.7503V13.7489V13.7476V13.7462V13.7448V13.7435V13.7421V13.7408V13.7394V13.7381V13.7367V13.7354V13.734V13.7326V13.7313V13.7299V13.7286V13.7272V13.7258V13.7245V13.7231V13.7218V13.7204V13.719V13.7177V13.7163V13.7149V13.7136V13.7122V13.7108V13.7095V13.7081V13.7067V13.7054V13.704V13.7026V13.7012V13.6999V13.6985V13.6971V13.6958V13.6944V13.693V13.6916V13.6903V13.6889V13.6875V13.6861V13.6847V13.6834V13.682V13.6806V13.6792V13.6778V13.6765V13.6751V13.6737V13.6723V13.6709V13.6695V13.6682V13.6668V13.6654V13.664V13.6626V13.6612V13.6598V13.6584V13.6571V13.6557V13.6543V13.6529V13.6515V13.6501V13.6487V13.6473V13.6459V13.6445V13.6431V13.6417V13.6403V13.6389V13.6375V13.6361V13.6347V13.6333V13.6319V13.6305V13.6291V13.6277V13.6263V13.6249V13.6235V13.6221V13.6207V13.6193V13.6179V13.6165V13.6151V13.6137V13.6123V13.6109V13.6095V13.608V13.6066V13.6052V13.6038V13.6024V13.601V13.5996V13.5982V13.5967V13.5953V13.5939V13.5925V13.5911V13.5897V13.5882V13.5868V13.5854V13.584V13.5826V13.5811V13.5797V13.5783V13.5769V13.5755V13.574V13.5726V13.5712V13.5698V13.5683V13.5669V13.5655V13.564V13.5626V13.5612V13.5598V13.5583V13.5569V13.5555V13.554V13.5526V13.5512V13.5497V13.5483V13.5469V13.5454V13.544V13.5426V13.5411V13.5397V13.5382V13.5368V13.5354V13.5339V13.5325V13.531V13.5296V13.5282V13.5267V13.5253V13.5238V13.5224V13.5209V13.5195V13.518V13.5166V13.5151V13.5137V13.5122V13.5108V13.5093V13.5079V13.5064V13.505V13.5035V13.5021V13.5006V13.4992V13.4977V13.4963V13.4948V13.4934V13.4919V13.4904V13.489V13.4875V13.4861V13.4846V13.4831V13.4817V13.4802V13.4788V13.4773V13.4758V13.4744V13.4729V13.4714V13.47V13.4685V13.467V13.4656V13.4641V13.4626V13.4612V13.4597V13.4582V13.4568V13.4553V13.4538V13.4523V13.4509V13.4494V13.4479V13.4464V13.445V13.4435V13.442V13.4405V13.4391V13.4376V13.4361V13.4346V13.4331V13.4317H50.2909L50.2909 13.4288C50.2664 12.5927 50.2497 11.6636 50.5743 10.7932C50.8965 9.92908 51.5591 9.11406 52.9145 8.51732L52.9145 8.51734L52.916 8.51664C53.1848 8.39283 53.3034 8.08262 53.185 7.80655C53.0672 7.53182 52.766 7.40249 52.4927 7.52787C50.8353 8.25878 50.0113 9.30225 49.6086 10.3894C49.2117 11.4609 49.2272 12.568 49.2393 13.4344L49.2397 13.4569V13.4581V13.4593V13.4605V13.4617V13.4629V13.464V13.4652V13.4664V13.4676V13.4688V13.47V13.4712V13.4723V13.4735V13.4747V13.4759V13.4771V13.4783V13.4794V13.4806V13.4818V13.483V13.4842V13.4854V13.4866V13.4877V13.4889V13.4901V13.4913V13.4925V13.4937V13.4948V13.496V13.4972V13.4984V13.4996V13.5008V13.502V13.5031V13.5043V13.5055V13.5067V13.5079V13.5091V13.5102V13.5114V13.5126V13.5138V13.515V13.5162V13.5173V13.5185V13.5197V13.5209V13.5221V13.5233V13.5244V13.5256V13.5268V13.528V13.5292V13.5304V13.5315V13.5327V13.5339V13.5351V13.5363V13.5374V13.5386V13.5398V13.541V13.5422V13.5434V13.5445V13.5457V13.5469V13.5481V13.5493V13.5504V13.5516V13.5528V13.554V13.5552V13.5564V13.5575V13.5587V13.5599V13.5611V13.5623V13.5634V13.5646V13.5658V13.567V13.5682V13.5693V13.5705V13.5717V13.5729V13.5741V13.5752V13.5764V13.5776V13.5788V13.58V13.5811V13.5823V13.5835V13.5847V13.5858V13.587V13.5882V13.5894V13.5906V13.5917V13.5929V13.5941V13.5953V13.5964V13.5976V13.5988V13.6V13.6011V13.6023V13.6035V13.6047V13.6059V13.607V13.6082V13.6094V13.6106V13.6117V13.6129V13.6141V13.6153V13.6164V13.6176V13.6188V13.62V13.6211V13.6223V13.6235V13.6246V13.6258V13.627V13.6282V13.6293V13.6305V13.6317V13.6329V13.634V13.6352V13.6364V13.6375V13.6387V13.6399V13.6411V13.6422V13.6434V13.6446V13.6457V13.6469V13.6481V13.6493V13.6504V13.6516V13.6528V13.6539V13.6551V13.6563V13.6574V13.6586V13.6598V13.6609V13.6621V13.6633V13.6644V13.6656V13.6668V13.6679V13.6691V13.6703V13.6714V13.6726V13.6738V13.6749V13.6761V13.6773V13.6784V13.6796V13.6808V13.6819V13.6831V13.6843V13.6854V13.6866V13.6878V13.6889V13.6901V13.6912V13.6924V13.6936V13.6947V13.6959V13.697V13.6982V13.6994V13.7005V13.7017V13.7029V13.704V13.7052V13.7063V13.7075V13.7087V13.7098V13.711V13.7121V13.7133V13.7144V13.7156V13.7168V13.7179V13.7191V13.7202V13.7214V13.7225V13.7237V13.7249V13.726V13.7272V13.7283V13.7295V13.7306V13.7318V13.7329V13.7341V13.7352V13.7364V13.7375V13.7387V13.7399V13.741V13.7422V13.7433V13.7445V13.7456V13.7468V13.7479V13.7491V13.7502V13.7514V13.7525V13.7537V13.7548V13.756V13.7571V13.7582V13.7594V13.7605V13.7617V13.7628V13.764V13.7651V13.7663V13.7674V13.7686V13.7697V13.7709V13.772V13.7731V13.7743V13.7754V13.7766V13.7777V13.7789V13.78V13.7811V13.7823V13.7834V13.7846V13.7857V13.7868V13.788V13.7891V13.7903V13.7914V13.7925V13.7937V13.7948V13.796V13.7971V13.7982V13.7994V13.8005V13.8016V13.8028V13.8039V13.805V13.8062V13.8073V13.8084V13.8096V13.8107V13.8118V13.813V13.8141V13.8152V13.8164V13.8175V13.8186V13.8198V13.8209V13.822V13.8232V13.8243V13.8254V13.8265V13.8277V13.8288V13.8299V13.831V13.8322V13.8333V13.8344V13.8355V13.8367V13.8378V13.8389V13.84V13.8412V13.8423V13.8434V13.8445V13.8457V13.8468V13.8479V13.849V13.8501V13.8513V13.8524V13.8535V13.8546V13.8557V13.8569V13.858V13.8591V13.8602V13.8613V13.8624V13.8636V13.8647V13.8658V13.8669V13.868V13.8691V13.8702V13.8714V13.8725V13.8736V13.8747V13.8758V13.8769V13.878V13.8791V13.8803V13.8814V13.8825V13.8836V13.8847V13.8858V13.8869V13.888V13.8891V13.8902V13.8913V13.8924V13.8935V13.8946V13.8957V13.8968V13.898V13.8991V13.9002V13.9013V13.9024V13.9035V13.9046V13.9057V13.9068V13.9079V13.909V13.9099C47.8436 13.5195 47.1305 12.6113 46.9482 11.6191Z" fill="white" stroke="white" stroke-width="0.19768"/>
<path d="M8.52835 43.1065L8.52838 43.1065L8.52615 43.1048C8.29102 42.922 7.95781 42.9491 7.77573 43.2007C7.60228 43.4404 7.6261 43.7793 7.86715 43.9677C8.84016 44.7688 9.98584 45.051 11.1237 45.051C12.7035 45.051 14.2534 44.4895 15.2817 44.033C15.3021 44.0257 15.3209 44.017 15.3384 44.0072C15.4115 44.8906 15.0468 45.5628 14.4481 46.0914L14.4474 46.092C12.4613 47.8807 10.6669 48.5126 9.09017 48.4557C7.51164 48.3988 6.1333 47.6508 4.9822 46.644C2.90204 44.8247 1.58772 42.1813 1.20828 41.3498C3.53075 42.0678 5.82615 41.1664 7.84867 40.3722C7.92236 40.3432 7.99569 40.3144 8.06865 40.2859C9.14454 39.8645 10.1355 39.493 11.0227 39.4147C11.9016 39.3371 12.6713 39.5478 13.3172 40.2903L13.3175 40.2907C14.2438 41.3444 14.8065 42.217 15.0917 42.9702C15.0204 42.9695 14.9489 42.9854 14.8849 43.018C14.2548 43.3067 13.1566 43.7376 11.9677 43.8905C10.7766 44.0436 9.51048 43.916 8.52835 43.1065Z" fill="white" stroke="white" stroke-width="0.19768"/>
<path d="M23.3308 38.4813L23.3313 38.4808C24.3253 37.6959 25.6099 37.5866 26.8138 37.7555C28.0165 37.9242 29.1219 38.3685 29.7381 38.669L29.7587 38.679H29.7792C29.7502 38.781 29.723 38.8833 29.6954 38.9867C29.6872 39.0174 29.679 39.0482 29.6708 39.0791C29.6251 39.2493 29.5769 39.4244 29.5167 39.6116L29.5162 39.6132C29.2281 40.5638 28.6129 41.0837 27.7831 41.3883C26.9456 41.6958 25.8957 41.7816 24.748 41.8592C24.6738 41.8642 24.5991 41.8692 24.5242 41.8742C22.3625 42.0185 19.9064 42.1825 18.0757 43.8379C18.0832 42.9192 18.2236 39.9519 19.3909 37.4049C20.0378 35.9936 20.9959 34.72 22.413 33.9907C23.8281 33.2624 25.7163 33.0689 28.2404 33.8468L28.2404 33.8468C28.8814 34.0437 29.405 34.3904 29.7248 34.987C30.0351 35.5658 30.161 36.3936 29.9954 37.5771C29.1092 37.1836 27.8947 36.746 26.6151 36.6146C25.2763 36.4771 23.8572 36.6742 22.672 37.6182L22.6719 37.6181L22.6679 37.6216C22.4625 37.8041 22.4018 38.1386 22.5803 38.3854L22.5802 38.3855L22.5842 38.3904C22.7606 38.6037 23.0887 38.6694 23.3308 38.4813Z" fill="white" stroke="white" stroke-width="0.19768"/>
<path d="M49.8022 23.4474L49.8023 23.4482C49.8987 24.3731 50.0158 27.5404 47.0668 29.4561H47.0667H47.0666H47.0665H47.0664H47.0662H47.0661H47.066H47.0658H47.0657H47.0656H47.0654H47.0653H47.0652H47.065H47.0649H47.0647H47.0646H47.0645H47.0643H47.0642H47.0641H47.0639H47.0638H47.0637H47.0635H47.0634H47.0633H47.0631H47.063H47.0629H47.0627H47.0626H47.0624H47.0623H47.0622H47.062H47.0619H47.0618H47.0616H47.0615H47.0613H47.0612H47.0611H47.0609H47.0608H47.0607H47.0605H47.0604H47.0602H47.0601H47.06H47.0598H47.0597H47.0596H47.0594H47.0593H47.0591H47.059H47.0589H47.0587H47.0586H47.0584H47.0583H47.0582H47.058H47.0579H47.0577H47.0576H47.0575H47.0573H47.0572H47.057H47.0569H47.0568H47.0566H47.0565H47.0563H47.0562H47.0561H47.0559H47.0558H47.0556H47.0555H47.0554H47.0552H47.0551H47.055C46.6781 29.3954 46.2758 29.1514 45.8918 28.7438C45.5063 28.3347 45.1456 27.7671 44.855 27.0773C44.274 25.698 43.9774 23.8402 44.3158 21.8112C44.4809 20.827 45.0122 20.1862 45.7758 19.7193C46.5449 19.249 47.5462 18.9573 48.6446 18.6774C48.8337 18.6292 49.0256 18.5815 49.2195 18.5332C51.2034 18.0391 53.398 17.4926 54.9307 15.9415C55.0685 16.8443 55.5061 20.0461 55.0037 23.125C54.7277 24.8162 54.1697 26.4593 53.1325 27.6642C52.1389 28.8183 50.6989 29.5782 48.6203 29.5853C51.0463 27.342 50.9481 24.2977 50.8279 23.3255C50.7978 23.0481 50.5578 22.8281 50.2562 22.8593L50.2551 22.8595C49.9796 22.8912 49.7729 23.1436 49.8022 23.4474Z" fill="white" stroke="white" stroke-width="0.19768"/>
<path d="M61.3488 24.8817L61.3489 24.8818L61.3517 24.8794C62.0523 24.291 63.0125 23.6757 64.2293 23.645C65.4433 23.6143 66.9365 24.1651 68.7044 25.9597C70.2701 27.5578 70.5964 30.1481 70.3593 32.6301C70.132 35.0107 69.3894 37.2592 68.7667 38.3715C67.9299 37.1953 67.4751 36.7408 66.5567 36.161C66.218 35.9471 65.8148 35.7153 65.3061 35.4228C65.1089 35.3094 64.8959 35.1869 64.6647 35.0528C63.8352 34.5719 62.7664 33.939 61.3411 33.0363C59.569 31.9118 58.9099 30.6556 58.8598 29.4599C58.8102 28.2785 59.354 27.133 60.06 26.2031C61.6569 26.5695 62.5691 27.312 63.1291 28.1629C63.6959 29.0241 63.9073 30.0032 64.0899 30.8486L64.0936 30.8657L64.0932 30.8658L64.0961 30.8751L64.1195 30.9476C64.1783 31.1848 64.3823 31.3734 64.6292 31.3734H64.6293H64.6295H64.6296H64.6298H64.6299H64.6301H64.6302H64.6304H64.6305H64.6307H64.6308H64.631H64.6311H64.6313H64.6314H64.6316H64.6317H64.6319H64.632H64.6322H64.6323H64.6325H64.6326H64.6328H64.6329H64.6331H64.6333H64.6334H64.6336H64.6337H64.6339H64.634H64.6342H64.6344H64.6345H64.6347H64.6348H64.635H64.6352H64.6353H64.6355H64.6357H64.6358H64.636H64.6362H64.6363H64.6365H64.6367H64.6368H64.637H64.6372H64.6373H64.6375H64.6377H64.6378H64.638H64.6382H64.6384H64.6385H64.6387H64.6389H64.639H64.6392H64.6394H64.6396H64.6397H64.6399H64.6401H64.6403H64.6404H64.6406H64.6408H64.641H64.6412H64.6413H64.6415H64.6417H64.6419H64.6421H64.6422H64.6424H64.6426H64.6428H64.643H64.6431H64.6433H64.6435H64.6437H64.6439H64.6441H64.6442H64.6444H64.6446H64.6448H64.645H64.6452H64.6454H64.6455H64.6457H64.6459H64.6461H64.6463H64.6465H64.6467H64.6469H64.647H64.6472H64.6474H64.6476H64.6478H64.648H64.6482H64.6484H64.6486H64.6488H64.649H64.6492H64.6493H64.6495H64.6497H64.6499H64.6501H64.6503H64.6505H64.6507H64.6509H64.6511H64.6513H64.6515H64.6517H64.6519H64.6521H64.6523H64.6525H64.6527H64.6529H64.6531H64.6533H64.6535H64.6537H64.6539H64.6541H64.6543H64.6545H64.6547H64.6549H64.6551H64.6553H64.6555H64.6557H64.6559H64.6561H64.6563H64.6565H64.6567H64.6569H64.6571H64.6573H64.6575H64.6577H64.6579H64.6581H64.6583H64.6585H64.6587H64.6589H64.6592H64.6594H64.6596H64.6598H64.66H64.6602H64.6604H64.6606H64.6608H64.661H64.6612H64.6614H64.6616H64.6618H64.6621H64.6623H64.6625H64.6627H64.6629H64.6631H64.6633H64.6635H64.6637H64.6639H64.6641H64.6644H64.6646H64.6648H64.665H64.6652H64.6654H64.6656H64.6658H64.666H64.6662H64.6665H64.6667H64.6669H64.6671H64.6673H64.6675H64.6677H64.6679H64.6682H64.6684H64.6686H64.6688H64.669H64.6692H64.6694H64.6696H64.6699H64.6701H64.6703H64.6705H64.6707H64.6709H64.6711H64.6713H64.6716H64.6718H64.672H64.6722H64.6724H64.6726H64.6728H64.6731H64.6733H64.6735H64.6737H64.6739H64.6741H64.6743H64.6745H64.6748H64.675H64.6752H64.6754H64.6756H64.6758H64.676H64.6763H64.6765H64.6767H64.6769H64.6771H64.6773H64.6775H64.6778H64.678H64.6782H64.6784H64.6786H64.6788H64.679H64.6793H64.6795H64.6797H64.6799H64.6801H64.6803H64.6805H64.6808H64.681H64.6812H64.6814H64.6816H64.6818H64.682H64.6823H64.6825H64.6827H64.6829H64.6831H64.6833H64.6835H64.6838H64.684H64.6842H64.6844H64.6846H64.6848H64.685H64.6852H64.6855H64.6857H64.6859H64.6861H64.6863H64.6865H64.6867H64.687H64.6872H64.6874H64.6876H64.6878H64.688H64.6882H64.6884H64.6886H64.6889H64.6891H64.6893H64.6895H64.6897H64.6899H64.6901H64.6903H64.6905H64.6908H64.691H64.6912H64.6914H64.6916H64.6918H64.692H64.6922H64.6924H64.6926H64.6929H64.6931H64.6933H64.6935H64.6937H64.6939H64.6941H64.6943H64.6945H64.6947H64.6949H64.6951H64.6954H64.6956H64.6958H64.696H64.6962H64.6964H64.6966H64.6968H64.697H64.6972H64.6974H64.6976H64.6978H64.698H64.6982H64.6984H64.6986H64.6988H64.699H64.6993H64.6995H64.6997H64.6999H64.7001H64.7003H64.7005H64.7007H64.7009H64.7011H64.7013H64.7015H64.7017H64.7019H64.7021H64.7023H64.7025H64.7027H64.7029H64.7031H64.7033H64.7035H64.7037H64.7039H64.7041H64.7043H64.7045H64.7047H64.7048H64.705H64.7052H64.7054H64.7056H64.7058H64.706H64.7062H64.7064H64.7066H64.7068H64.707H64.7072H64.7074H64.7076H64.7078H64.7079H64.7081H64.7083H64.7085H64.7087H64.7089H64.7091H64.7093H64.7095H64.7097H64.7098H64.71H64.7102H64.7104H64.7106H64.7108H64.711H64.7112H64.7113H64.7115H64.7117H64.7119H64.7121H64.7123H64.7124H64.7126H64.7128H64.713H64.7132H64.7134H64.7135H64.7137H64.7139H64.7141H64.7143H64.7144H64.7146H64.7148H64.715H64.7152H64.7153H64.7155H64.7157H64.7159H64.716H64.7162H64.7164H64.7166H64.7167H64.7169H64.7171H64.7173H64.7174H64.7176H64.7178H64.7179H64.7181H64.7183H64.7185H64.7186H64.7188H64.719H64.7191H64.7193H64.7195H64.7196H64.7198H64.72H64.7201H64.7203H64.7205H64.7206H64.7208H64.7209H64.7211H64.7213H64.7214H64.7216H64.7217H64.7219H64.7221H64.7222H64.7224H64.7225H64.7227H64.7229H64.723H64.7232H64.7233H64.7235H64.7236H64.7238H64.7239H64.7241H64.7242H64.7244H64.7245H64.7247H64.7248H64.725H64.7251H64.7253H64.7254H64.7256H64.7257H64.7259H64.726H64.7262H64.7263H64.7265H64.7266H64.7268H64.738L64.7489 31.3708C65.0268 31.3068 65.1992 30.9973 65.1404 30.723L65.1409 30.7229L65.1379 30.7134L65.1151 30.6426C64.9447 29.8228 64.7162 28.7285 64.0946 27.7157C63.4886 26.7281 62.5118 25.8221 60.8646 25.3121C61.0255 25.1531 61.1954 25.001 61.3488 24.8817Z" fill="white" stroke="white" stroke-width="0.19768"/>
<path d="M60.7125 20.1524L60.7124 20.1523L60.7095 20.1549C60.6339 20.2235 60.5624 20.284 60.4932 20.3426C60.4745 20.3585 60.4559 20.3742 60.4375 20.3899C60.3693 20.4479 60.3033 20.5054 60.2405 20.5665C59.422 19.6991 58.6542 18.5479 58.1374 17.1357C57.7953 16.2004 57.9379 15.3688 58.3676 14.565C58.8 13.7559 59.5208 12.9793 60.3309 12.1618C60.4687 12.0227 60.6091 11.8825 60.7509 11.7409C62.2218 10.2717 63.8496 8.6459 64.4093 6.49426C65.0013 7.24084 67.1148 10.0083 68.1446 13.1154C68.7083 14.8166 68.9432 16.6079 68.4367 18.221C67.9319 19.8291 66.6851 21.2768 64.2503 22.2852C63.8767 22.4377 63.3717 22.4301 62.7959 22.2507C62.2498 22.0806 61.6484 21.7584 61.0522 21.2871L61.1819 21.175L61.4006 20.9861C61.4007 20.986 61.4009 20.9859 61.401 20.9858C62.0583 20.4307 62.8898 19.7244 63.4211 18.7067C63.9551 17.684 64.1818 16.3556 63.6509 14.5637C63.5634 14.262 63.2657 14.0995 62.9887 14.1942C62.6928 14.2871 62.5437 14.5952 62.6324 14.8733C63.0646 16.3425 62.8942 17.3959 62.4686 18.2108C62.04 19.0314 61.3481 19.6202 60.7125 20.1524Z" fill="white" stroke="white" stroke-width="0.19768"/>
<path d="M31.0738 28.1052L31.0737 28.1052L31.0742 28.1075C31.2053 28.7872 30.8785 29.5288 30.1314 30.2253C30.047 30.0356 29.9691 29.8286 29.8857 29.6066C29.8505 29.513 29.8143 29.4166 29.7761 29.3178L29.7612 29.2771C29.497 28.5547 29.1813 27.6918 28.5709 26.9546C27.9452 26.1991 27.0145 25.5805 25.5278 25.3622L25.5278 25.3621L25.5236 25.3616C25.2331 25.3315 24.9577 25.5146 24.9273 25.8296C24.8992 26.1212 25.0691 26.4093 25.3791 26.4427C26.564 26.6168 27.2845 27.0674 27.7729 27.6469C28.2654 28.2312 28.5287 28.9533 28.7854 29.6881C28.9315 30.1172 29.0801 30.5287 29.2795 30.8907C28.274 31.5414 26.8785 32.0952 25.1809 32.364L25.1808 32.364C24.2273 32.5165 23.4864 32.2184 22.8376 31.6454C22.1836 31.0679 21.6266 30.214 21.0498 29.2603C20.951 29.097 20.8517 28.9308 20.7513 28.7627C19.7174 27.0323 18.5658 25.105 16.6564 24.0936C17.4634 23.6753 20.4079 22.2327 23.4492 21.9628C25.1107 21.8154 26.7895 22.0191 28.1639 22.9194C29.5355 23.8178 30.6199 25.4206 31.0738 28.1052Z" fill="white" stroke="white" stroke-width="0.19768"/>
</svg>
