<svg width="101" height="111" viewBox="0 0 101 111" fill="none" xmlns="http://www.w3.org/2000/svg">
<path d="M7.11957 106.113C6.06719 105.22 5.00686 104.342 3.97831 103.433C3.00932 102.575 1.97679 101.753 1.15474 100.764C0.59479 100.089 0.0427841 99.1597 0.0189566 98.3297C-0.0525262 95.4982 0.0944106 92.6588 0.189721 89.8233C0.233405 88.5604 0.328715 87.2976 0.435939 86.0347C0.682157 83.2111 0.892634 80.3796 1.24211 77.568C1.4645 75.7888 1.93311 74.0375 2.23889 72.2663C2.43746 71.1147 2.49305 69.9352 2.7075 68.7875C3.12051 66.5676 3.54147 64.3437 4.0617 62.1476C4.84404 58.8435 5.52313 55.4917 6.60728 52.2829C7.54053 49.5269 8.9265 46.9178 10.2172 44.2928C10.9518 42.8035 11.8255 41.3659 12.7786 39.9998C13.6483 38.7528 14.6848 37.6131 15.7015 36.4733C16.186 35.9333 16.8015 35.0874 17.3416 35.0993C18.8149 35.135 19.6608 34.0151 20.7688 33.487C22.2302 32.788 23.7075 32.3671 25.2444 32.1407C27.4088 31.823 29.5969 31.7158 31.7295 32.4862C33.1313 32.9945 34.6047 33.3281 35.9549 33.9436C36.912 34.3805 37.7142 35.1469 38.5799 35.7744C39.2947 36.2907 40.0215 36.791 40.7045 37.343C42.7339 38.9752 44.4892 40.8497 45.9228 43.0458C46.7409 44.2967 47.8488 45.3571 48.6352 46.6199C50.3507 49.368 51.979 52.1757 53.5754 54.9953C55.5372 58.4582 57.4275 61.9569 59.3496 65.4437C59.5522 65.813 59.854 66.1744 59.9215 66.5755C60.1121 67.7311 60.7038 67.9932 61.8753 68.0687C64.544 68.2395 67.1929 68.6962 69.8457 69.0377C70.3381 69.1012 70.8305 69.2005 71.323 69.2243C73.1061 69.3038 73.6779 70.519 73.8527 72.0003C74.0076 73.3187 74.1624 74.6729 74.0115 75.9755C73.9202 76.7578 73.3444 77.5521 72.8043 78.1875C72.3396 78.7315 71.6327 79.089 70.9973 79.4662C70.1197 79.9865 69.2738 80.3002 68.1142 80.1691C64.27 79.7323 60.398 79.5377 56.538 79.2399C55.3347 79.1485 54.1076 79.1287 52.936 78.8705C52.3602 78.7435 51.7447 78.2431 51.3912 77.7427C50.2753 76.1462 49.2666 74.4743 48.2341 72.8223C47.1102 71.0193 46.0022 69.2045 44.8903 67.3936C44.1913 66.2538 43.4924 65.1101 42.7418 63.887C42.301 65.0267 41.749 65.9957 41.9039 67.3578C42.0468 68.6366 41.5107 69.9828 41.3439 71.3092C41.1493 72.8819 40.9944 74.4585 40.8833 76.039C40.6648 79.1287 40.4464 82.2223 40.3114 85.3159C40.2121 87.6391 40.2478 89.9702 40.224 92.2974C40.1962 95.1726 40.1684 98.0438 40.1525 100.919C40.1446 102.44 40.1645 103.965 40.1843 105.486C40.1962 106.431 39.5688 106.788 38.7983 107.023C38.1907 107.209 37.595 107.456 36.9755 107.563C35.2123 107.869 33.4411 108.178 31.662 108.377C29.8749 108.576 28.0759 108.651 26.2809 108.77C25.5264 108.822 24.7718 108.873 24.0173 108.854C23.8862 108.85 23.6877 108.512 23.6519 108.302C23.3422 106.463 22.9808 104.628 22.7941 102.778C22.5559 100.446 22.4089 98.0994 22.3375 95.7603C22.2858 93.9812 22.4288 92.1981 22.4645 90.415C22.4804 89.6803 22.5042 88.9377 22.4208 88.2109C22.2461 86.7336 22.4248 85.3119 22.6988 83.8505C22.9887 82.3136 22.8656 80.7053 23.0364 79.1366C23.2667 77.0318 23.6122 74.943 23.8942 72.8461C24.0411 71.7501 24.1166 70.646 24.2913 69.5579C24.4899 68.3109 24.8195 67.0838 24.9863 65.8368C25.0856 65.0863 24.9664 64.3119 24.9664 63.5454C24.9625 61.0753 24.9625 58.6092 24.9625 56.139C24.8592 56.1112 24.756 56.0834 24.6527 56.0556C24.4025 56.8102 24.1166 57.5568 23.914 58.3272C23.3025 60.6464 22.6353 62.9537 22.1587 65.2968C21.7378 67.3698 21.5035 69.4825 21.2454 71.5872C20.7807 75.3639 20.2803 79.1406 19.9428 82.9292C19.6648 86.0307 19.6092 89.1521 19.4464 92.2616C19.3233 94.6523 19.1009 97.047 19.081 99.4377C19.0651 101.582 19.2478 103.731 19.3828 105.871C19.4345 106.673 19.641 107.472 19.6648 108.274C19.6688 108.476 19.2399 108.869 19.0095 108.869C17.8579 108.865 16.6863 108.869 15.5585 108.671C13.8112 108.361 12.0876 107.928 10.376 107.456C10.0504 107.364 9.60558 106.852 9.60956 106.534C9.62941 102.865 9.69692 99.1915 9.81606 95.522C9.88357 93.457 9.99874 91.384 10.2251 89.3308C10.4276 87.4882 10.8287 85.6693 11.1107 83.8346C11.2417 82.9689 11.2537 82.0833 11.3887 81.2136C11.5356 80.2724 11.7421 79.3391 11.9566 78.4059C12.175 77.4568 12.457 76.5235 12.6595 75.5704C13.0884 73.5173 13.3862 71.4522 14.1408 69.4586C14.6848 68.0131 14.7325 66.3889 15.1376 64.8838C15.7531 62.6042 16.4918 60.3605 17.1669 58.1008C18.255 54.4512 19.4186 50.8215 19.8435 47.0131C19.8514 46.9336 19.7283 46.8423 19.5218 46.5643C18.9142 47.4062 18.3543 48.1886 17.7904 48.9669C15.9874 51.4529 15.217 54.3877 14.2718 57.2351C13.0209 61.0078 11.8215 64.8004 10.7255 68.6207C10.245 70.2926 10.0821 72.0558 9.75252 73.7714C9.31171 76.0668 8.80339 78.3543 8.40229 80.6576C8.07665 82.5241 7.83837 84.4104 7.61201 86.2928C7.38565 88.1673 7.12752 90.0417 7.05206 91.9241C6.97264 94.005 7.09972 96.0899 7.11163 98.1748C7.13149 100.752 7.11957 103.326 7.11957 106.113Z" fill="#664E2D"/>
<path d="M30.4414 15.4891C30.9219 13.4558 31.2317 11.3749 31.9425 9.44089C32.3953 8.19788 33.3563 7.09784 34.2379 6.06134C35.0282 5.13207 35.9773 4.31796 36.9384 3.55548C37.5341 3.0829 38.2489 2.7096 38.9677 2.4475C40.1869 1.99874 41.4418 1.64133 42.6967 1.30377C44.0311 0.942388 45.3892 0.894732 46.7554 1.12507C47.8713 1.31569 49.0706 1.31569 50.0753 1.7565C51.1873 2.24496 52.4541 2.40381 53.3993 3.3728C54.1459 4.14322 55.2936 4.53241 56.0203 5.31475C57.0846 6.45847 57.9345 7.80473 58.8717 9.06759C60.5912 11.3868 60.7501 14.1826 60.758 16.8354C60.766 19.2102 59.8089 21.4897 58.5699 23.6342C57.1164 26.152 54.817 27.6253 52.4819 29.047C51.509 29.6387 50.2659 29.8016 49.1341 30.1193C47.085 30.6991 45.004 30.3734 42.9827 30.0756C40.7151 29.746 38.6063 28.8167 36.8391 27.2917C35.6001 26.2234 34.2022 25.2386 33.2809 23.9281C32.3317 22.5778 31.7837 20.9178 31.2436 19.3293C30.8306 18.1181 30.7075 16.8116 30.4414 15.4891Z" fill="#664E2D"/>
<path d="M100.463 106.076C99.4703 105.031 98.4021 104.027 97.2186 103.213C95.642 102.128 93.8351 101.362 92.2863 100.238C90.7177 99.1023 89.0339 97.9546 88.601 95.8181C88.5653 95.6354 88.3786 95.4924 88.3071 95.3137C88.1483 94.9245 87.8901 94.5195 87.8941 94.1223C87.8981 93.2645 88.1483 92.4028 88.1086 91.549C88.0371 90.0438 87.8028 88.5467 87.6797 87.0416C87.5883 85.9733 87.5764 84.8971 87.5129 83.8249C87.4732 83.1577 87.7909 82.7486 88.3826 82.5104C89.4866 82.0616 90.6303 81.6883 91.6827 81.1363C93.438 80.215 95.1337 79.1705 96.611 77.8243C97.1551 77.3318 97.8183 76.9109 98.1956 76.3152C99.3869 74.4408 100.4 72.5782 100.408 70.1439C100.416 68.5951 100.348 67.4513 98.9898 66.4824C95.09 68.4799 91.5636 71.0493 88.4223 74.2303C89.0339 71.6569 89.7646 69.159 90.4596 66.6531C90.6819 65.8628 90.7495 65.0249 90.9996 64.2465C91.0989 63.9368 91.4841 63.7025 91.774 63.4761C91.9527 63.3411 92.2585 63.3411 92.4094 63.1862C93.6405 61.9233 94.8518 60.6367 96.063 59.3579C96.3053 59.1037 96.6071 58.8734 96.75 58.5716C97.2584 57.4954 97.6714 56.3715 98.1956 55.2993C98.9144 53.8418 99.3314 52.3526 98.9978 50.7164C98.7674 49.5886 98.5609 48.4568 98.3147 47.329C98.132 46.491 97.3854 46.1574 96.7222 46.0979C96.2814 46.0582 95.7771 46.5744 95.3283 46.8802C95.1218 47.0271 94.9789 47.2694 94.8041 47.468C93.5214 48.8976 91.9369 50.1605 91.0195 51.7966C89.431 54.6281 88.323 57.686 88.3508 61.0616C88.3667 62.5945 88.0847 64.1433 87.8107 65.6643C87.3858 67.9994 86.8536 70.3186 86.3533 72.7093C86.2222 72.4988 86.0395 72.336 86.0197 72.1533C85.9125 71.1089 85.9244 70.0446 85.7496 69.012C85.3009 66.3036 85.2532 63.6111 85.8132 60.9146C85.9839 60.0886 85.4002 59.0402 84.6139 58.9687C84.173 58.929 83.6846 59.342 83.2279 59.5684C82.0643 60.1363 81.3455 61.0814 80.7736 62.2291C79.5108 64.7588 79.1613 67.4553 79.1534 70.2193C79.1534 71.6251 78.9826 73.1183 79.9476 74.3177C80.9603 75.5686 82.0484 76.756 83.1405 77.9394C84.1016 78.9799 84.5185 80.211 84.3954 81.5811C84.2008 83.7375 83.7878 85.878 83.7044 88.0344C83.625 90.0677 84.0777 92.1327 83.3867 94.1184C83.1802 94.7061 82.7037 95.2065 82.3066 95.7148C82.1278 95.9491 81.8221 96.0841 81.6116 96.3026C80.6188 97.3271 79.7332 98.4868 78.6331 99.3763C76.715 100.925 75.063 102.676 73.7326 104.749C73.5737 105 73.1766 105.23 72.8907 105.234C71.3776 105.262 70.6827 106.294 70.0989 107.434C69.9639 107.704 69.952 108.296 70.1227 108.427C70.9726 109.074 71.8502 109.98 72.8192 110.123C74.9319 110.44 77.1042 110.365 79.2527 110.42C79.8285 110.432 80.3686 110.575 80.996 110.385C81.8141 110.134 82.7394 110.258 83.6131 110.166C85.2453 109.995 86.8735 109.737 88.5136 109.602C89.6018 109.515 90.7058 109.602 91.8018 109.563C92.9138 109.527 94.0257 109.396 95.1377 109.364C96.5674 109.324 97.9851 109.297 99.3075 108.645C100.63 107.99 101.206 106.858 100.463 106.076ZM89.6415 77.316C90.6343 76.1841 91.5755 74.9928 92.6874 73.988C93.7954 72.9952 95.0742 72.193 96.2973 71.3273C96.4006 71.2518 96.6229 71.3432 96.8771 71.367C96.0471 74.0953 94.1846 75.7116 91.8495 76.9109C91.2578 77.2167 90.7296 77.6376 90.1419 77.9514C89.9433 78.0586 89.6494 77.9911 89.3992 78.003C89.4787 77.7726 89.4945 77.4867 89.6415 77.316ZM95.4554 50.7284C95.8724 52.984 93.6644 57.6582 91.778 58.4048C92.1513 56.3239 92.6557 54.1516 95.4554 50.7284ZM82.7235 65.4617C83.2041 68.6229 83.6727 71.7284 84.1373 74.7863C81.8181 73.027 81.1827 69.0716 82.7235 65.4617ZM88.9624 104.614C88.0053 104.047 86.9291 103.618 85.8489 103.34C85.2612 103.189 84.4272 103.284 83.9348 103.614C82.8983 104.313 82.0246 105.246 81.0715 106.068C80.5115 106.552 79.9317 106.965 79.2527 105.996C80.0707 104.364 81.2661 102.962 82.7156 101.799C83.3987 101.247 84.2088 100.742 85.0428 100.524C85.6583 100.357 86.4168 100.631 87.084 100.814C87.7194 100.993 88.3071 101.33 88.9306 101.553C90.6065 102.152 91.9448 103.153 92.9972 104.853C91.4603 105.234 90.2332 105.373 88.9624 104.614Z" fill="#664E2D"/>
</svg>
