<?xml version="1.0" encoding="UTF-8"?>
<svg id="Layer_1" data-name="Layer 1" xmlns="http://www.w3.org/2000/svg" viewBox="0 0 232.91 239.65">
  <defs>
    <style>
      .cls-1 {
        fill: #fff;
      }
    </style>
  </defs>
  <path class="cls-1" d="M96.26,102.98c-.13.21-3.71,2.02-4.38,2.46-2.23,1.46-4.99,3.29-7,5-.69.58-4.86,4.46-4.2,5.27,3.34-2.59,6.62-5.25,10.34-7.29,1.16-.63,7.36-3.67,8.2-3.47.23.05.73.58.89.81.63.86,2.55,6.61,2.62,7.71.04.58-.16,2.19-.28,2.78-.74,3.51-4.19,5.61-7.29,7.1-5.72,2.75-11.96,4.16-17.57,7.38-.73.42-2.84,2.47-3.6,1.99-1.85-7.67-2.59-17.22,1.8-24.18,1.11-1.76,2.93-3.58,4.73-4.62,3.39-1.97,8.87-2.66,12.77-2.36.61.05,3.68.33,2.98,1.44v-.02Z"/>
  <path class="cls-1" d="M146.2,32.93c-.6-.93.45-3.11.63-3.98.29-1.36.46-2.77.9-4.14,1.22-3.82,3.23-7.31,5.15-10.79-.87-.9-5,5.74-5.32,6.31-.83,1.48-1.59,3.11-2.29,4.66-.36.8-2.26,6.19-2.59,6.29-.3.1-.87-.86-1.04-1.12-1.25-1.94-2.22-5.37-2.43-7.64-.62-6.62,4-11,9.43-13.82,4.79-2.49,12.23-4.33,17.79-4.75,5.15-.4,2.66.96,1.67,3.83-2.18,6.33-1.55,18.12-6.14,22.64-2.61,2.56-7.33,3.22-10.87,3.27-.73,0-4.62-.33-4.9-.76h0Z"/>
  <path class="cls-1" d="M162.72,33.92s-.04.73.06,1.02c5.71,17.05,1.49,32.38-19.16,30.73-.26-.02-1.46.35-1.16-.33s7.16-5.2,8.39-6.24c.7-.59,7.33-6.99,6.6-7.67-.24-.23-.75.19-.97.35-1.21.84-2.87,2.9-4.19,3.96-2.55,2.05-6.72,4.74-9.65,6.18-.45.22-2.78,1.19-3.05,1.17-.76-.04-1.66-1.81-1.99-2.49-.62-1.31-1.83-4.65-2.16-6.23-.8-3.82,2.68-7.29,5.63-9.14,5.42-3.4,12.05-5.05,17.57-8.58.57-.37,3.74-3.12,4.1-2.74h-.02Z"/>
  <path class="cls-1" d="M167.52,83.32c-.34-.58-1.26-1.11-1.86-1.37-3.94-1.74-10.23-2.15-14.57-2.7-.7-.09-4.14-.39-3.61-1.2.27-.41,3.18-2.13,3.81-2.43,5.33-2.58,11.31-3.3,16.72-.57,7.21,3.63,12.27,11.86,14.49,19.33.14.46,1.39,1.74,0,1.91-.7.09-3.96-.93-5.28-.96-7.88-.18-25.51,4.46-29.49-4.57-.47-1.06-1.83-5.92-1.83-7.06,0-.91.12-1.93,1.08-2.05,2.21-.28,6.55-.11,8.9,0,3.95.19,7.74,1.24,11.62,1.69v-.02Z"/>
  <path class="cls-1" d="M172.31,115.7c.52-.7-3-1.13-3.48-1.19-4.48-.54-10.88-1.25-14.98-3.25-.59-.29-1.47-.66-1.41-1.37.15-1.55,4.73-7.31,6.12-8.3,7.76-5.47,20.75,3.38,29,5.22.96.21,4.35.02,4.64,1.14.08.3-1.55,2.42-1.9,2.83-8.61,10.18-23.74,18.44-35.11,7.29-.41-.41-2.97-3.46-2.99-3.73-.11-1.22,2.38.03,2.99.14,3.12.53,6.92,1.17,10.06,1.45,1.15.1,6.51.5,7.07-.24h-.01Z"/>
  <path class="cls-1" d="M178.79,48.79c-.33-.3,4.29-6.8,4.75-7.6,1.02-1.79,2.88-5.07,3.35-6.97.18-.72.68-3.46-.53-2.2-.33.35-1.32,2.95-1.77,3.74-1.82,3.22-4.4,6.93-6.99,9.56-.8.81-1.94,2.34-3.19,1.99-1.34-.38-6.46-6.4-7.01-7.87-2.92-7.87,8.43-14.73,12.95-19.9,1-1.15,1.94-2.42,2.81-3.67,1.14-1.63,1.17-3.66,3.06-1.49,9.69,11.13,14.33,28.96-4.09,33.79-.63.16-2.74,1.16-3.34.61h0Z"/>
  <path class="cls-1" d="M184.43,52.87c2.31.39,7.58,2.37,9.55,3.88,7.81,5.97,5.6,20.49,1.88,28.18-1.13,2.33-1.65.38-2.67-.53-5.27-4.71-12.08-6.88-17.59-10.95-6.52-4.82-6.29-8.82-2.37-15.47.3-.51,1.75-2.73,2.08-2.74,1.18-.02,6.58,3.8,7.78,4.72,3.37,2.58,5.3,5.03,8.13,7.94,1.51,1.55.45-1.12,0-1.93-2.57-4.71-8.54-8.64-12.32-12.39-.32-.22.13-.72.24-.72,1.48,0,3.96-.22,5.28,0h0Z"/>
  <path class="cls-1" d="M50.7,69.66l7.62-3.77c3.39-.88,7.12-2.66,10.51-3.16,1.84-.27,3.03-.18,3.4,1.84.23,1.25.25,7.06,0,8.28-1.54,7.66-18.58,8.24-24.7,9.84-1.41.37-2.96.92-4.33,1.42-1.2.44-2.65,1.91-2.83-.16-.63-7.34,2.21-17.8,7.93-22.8,5.19-4.54,12.85-4.81,18.95-2.39.46.18,2.21.15,1.34,1.33-.1.14-2.81.87-3.26,1.06-2.81,1.15-6.2,2.47-8.84,3.87-.56.3-6.64,3.81-5.78,4.65h-.01Z"/>
  <path class="cls-1" d="M129.85,45.67c-.16.1-.68-.02-.85-.22-2.51-3.25-5.09-7.09-8.13-9.85-.54-.49-3.69-3.08-4.2-2.63-.32.28,2.46,2.78,2.76,3.11,1.89,2.11,3.76,4.59,5.2,7.04.33.57,2.37,4.31,2.33,4.57-.22,1.11-2.67,1.23-3.39,1.41-3.67.93-6.85,2.09-10.57.38-6-2.74-8.26-13.75-12.06-19.13-.37-.52-2.78-3.05-2.73-3.26.12-.59,1.96-.29,2.5-.38,7.84-1.37,20.64-1.36,26.65,4.81,1.73,1.78,3.4,6.29,3.49,8.75.02.64-.75,5.25-.98,5.4h-.02Z"/>
  <path class="cls-1" d="M90.28,55.27c1.63,1.3,3.43,2.38,5.04,3.71s8.57,7.87,8.4,9.59c-.07.75-3.14,1.96-3.96,2.3-14.92,6.06-17.03-8.05-25.79-16.2-.3-.28-1.91-1.36-1.94-1.48-.34-1.53,1.34-1.11,2-1.33,7.92-2.63,21.1-4.93,28.12,1.48,1.52,1.39,3.85,5.83,4.18,7.81.15.94.46,5.18-.94,4.54-.43-.2-3.5-3.4-4.32-4.08-3.11-2.6-6.75-5.59-10.8-6.35h.01Z"/>
  <path class="cls-1" d="M94.06,37.22c-.25.26-.84.32-1.2.25-2.81-.47-9.56-4.22-12.16-5.85-1.49-.94-2.87-2.22-4.46-2.98.05.58.59,1.25.96,1.68,2.84,3.31,8.71,6.35,12.54,8.57.56.33,1.38.09.99,1.11-.3.79-1.86.36-2.42.44-10.68,1.51-17.82-3.06-19.56-13.91-.68-4.23-.53-9.03.64-13.14.59-.43,2.89,1.45,3.69,1.86,5.72,2.92,13.54,3.82,18.71,7.2,3.61,2.37,4.46,4.61,4.12,8.96-.05.64-1.22,3.65-1.5,4.37-.16.41-.05,1.12-.36,1.44h0Z"/>
  <path class="cls-1" d="M100.29,75.95c1.13,1.06-.6.99-1.19,1.21-3.23,1.23-11.82,4.58-13.87,7-.84.99-.54,1.07.56.56,4.35-2.04,8.57-4.28,13.25-5.22.42-.08,3.23-.47,3.47-.4.2.06.61.32.73.48.29.41.52,6.04.46,6.97-.14,2.12-.6,3.31-2.15,4.8-4.12,3.95-14.37,4.17-20.01,5.66-.94.25-6.14,2.37-6.38,2.13-.29-.28.09-7.11.23-8.04.61-4.04,3.38-10.4,6.48-13.19,4.11-3.69,10.41-4.16,15.66-2.94.29.07,2.65.87,2.75.97h0Z"/>
  <path class="cls-1" d="M68.69,101.08c.25.36-2.38,2.75-2.8,3.07-10.38,8.12-21.04,2.24-28.38-6.56-.51-.62-3.84-5.17-3.84-5.51,0-.59,2.65-.29,3.23-.36,4.54-.56,9.16-2.11,13.56-3.23,7.91-2,12.76-3.02,17.12,5.18.88,1.67,2.63,3.91.16,4.65-5.58,1.68-11.04,1.23-16.69,1.78-1.74.17-.97.78.27.95,1.4.19,3.62.44,5,.51,1.81.09,11.83-1.24,12.36-.49h.01Z"/>
  <path class="cls-1" d="M123.69,17.29c-.46-.38-.87-1.46-1.27-1.96-1.23-1.53-2.74-3.39-4.07-4.8-.61-.64-4.8-4.82-5.52-4.19-.26.23,4.46,4.7,4.66,5.29.77,1.47,4.69,6.53,4.19,7.98-.32.92-3.19,1.01-3.88,1.17-6.96,1.62-9.8.98-13.32-5.5-2.37-4.35-3.67-8.83-6.76-12.91-.26-.34-.86-.57-.91-.65-.71-1.32.94-.78,1.72-.93,6.13-1.15,12.32-1.19,18.32.91,5.19,1.82,7.71,5.09,8.43,10.52.13.98-.28,4.39-.83,5.14-.25.35-.53.11-.76-.08h0Z"/>
  <path class="cls-1" d="M136.75,94.18c.76.71.93,3.49,1,4.59.88,14.46,2.41,32.25,7.59,45.95,3.63,9.61,11.61,16.9,10.68,28.19-.43,5.14-4.06,10.3-8.91,12.2-.39.15-2.7.88-2.98.89-1.93.08-2.56-2.63-.29-3.43.68-.24,1.32-.09,1.86-.3,5.66-2.14,7.69-6.96,7.42-12.72-.36-7.72-7.32-16.08-10.19-23.63-5.11-13.45-7.21-31.42-8.28-46.41-.07-1.04-.28-4.17.03-5,.22-.59,1.59-.77,2.06-.33h0Z"/>
  <path class="cls-1" d="M115.17,94.18c1.22,1.26-.25,8.91-.42,10.86-1.17,13.35-2.59,26.94-6.77,39.75-3.1,9.5-14.21,19.72-10.08,30.81,1.26,3.39,3,5.12,6.43,6.52,1.11.45,3.3.27,3.46,2.08.32,3.47-5.87.51-7.27-.43-4.62-3.06-6.65-8.58-6.4-13.98.47-9.73,8.44-18.12,11.52-27.33,4.22-12.61,5.75-27.99,6.94-41.27.14-1.54-.61-7.26,1.78-7.31.2,0,.67.15.81.29h0Z"/>
  <path class="cls-1" d="M146.58,173.33c.59.52.52,2,0,2.52-.67.67-1.86.22-2.58.4-6.59,1.57-9.44,12.1-16.9,12.86-5.58.57-8.22-1.08-11.89-4.92s-4.34-7.1-10.4-7.88c-2.33-.3-1.97-3.22-.28-3.3,9.96-.49,11.44,13.87,21.36,12.98,8.48-.76,9.98-12.91,19.42-12.98.38,0,.97.07,1.26.32h.01Z"/>
</svg>